<svg width="20" height="21" viewBox="0 0 20 21" fill="none" xmlns="http://www.w3.org/2000/svg">
<path d="M16.25 18.3655H16.1438C3.8625 17.6592 2.11875 7.29673 1.875 4.13423C1.85536 3.88834 1.88443 3.64099 1.96055 3.40636C2.03667 3.17173 2.15833 2.95442 2.31858 2.76689C2.47882 2.57935 2.67449 2.42528 2.89438 2.3135C3.11427 2.20172 3.35406 2.13443 3.6 2.11548H7.04375C7.2941 2.11524 7.53875 2.19017 7.74602 2.33058C7.95329 2.47099 8.11362 2.6704 8.20625 2.90298L9.15625 5.24048C9.24772 5.4677 9.27042 5.71678 9.22153 5.95679C9.17264 6.19679 9.05432 6.41715 8.88125 6.59048L7.55 7.93423C7.75795 9.11595 8.32387 10.2053 9.17119 11.0548C10.0185 11.9044 11.1063 12.4732 12.2875 12.6842L13.6438 11.3405C13.8197 11.1693 14.0421 11.0538 14.2833 11.0082C14.5245 10.9626 14.7738 10.9891 15 11.0842L17.3563 12.028C17.5853 12.1235 17.7808 12.2851 17.9177 12.4921C18.0546 12.6992 18.1268 12.9423 18.125 13.1905V16.4905C18.125 16.9878 17.9275 17.4647 17.5758 17.8163C17.2242 18.1679 16.7473 18.3655 16.25 18.3655ZM3.75 3.36548C3.58424 3.36548 3.42527 3.43133 3.30806 3.54854C3.19085 3.66575 3.125 3.82472 3.125 3.99048V4.04048C3.4125 7.74048 5.25625 16.4905 16.2125 17.1155C16.2946 17.1206 16.3769 17.1094 16.4547 17.0826C16.5325 17.0558 16.6042 17.0139 16.6657 16.9593C16.7273 16.9047 16.7775 16.8385 16.8134 16.7645C16.8493 16.6905 16.8702 16.6101 16.875 16.528V13.1905L14.5188 12.2467L12.725 14.028L12.425 13.9905C6.9875 13.3092 6.25 7.87173 6.25 7.81548L6.2125 7.51548L7.9875 5.72173L7.05 3.36548H3.75Z" fill="#EE4C1F"/>
</svg>
