<svg width="70" height="70" viewBox="0 0 70 70" fill="none" xmlns="http://www.w3.org/2000/svg">
<path fill-rule="evenodd" clip-rule="evenodd" d="M60.1563 7.65625C60.1563 6.65072 59.9582 5.65505 59.5734 4.72608C59.1885 3.79711 58.6245 2.95304 57.9134 2.24207C57.2023 1.53111 56.3582 0.967188 55.4292 0.58249C54.5001 0.197792 53.5044 -0.000143568 52.4989 7.81296e-08H19.6864C17.6558 7.81296e-08 15.7085 0.806633 14.2726 2.24246C12.8368 3.67828 12.0302 5.62569 12.0302 7.65625V9.84375C12.0302 10.1338 12.1454 10.412 12.3505 10.6171C12.5556 10.8223 12.8338 10.9375 13.1239 10.9375H59.0614C59.3515 10.9375 59.6297 10.8223 59.8348 10.6171C60.0399 10.412 60.1552 10.1338 60.1552 9.84375V7.65625H60.1563ZM57.9677 7.65625V8.75H14.2177V7.65625C14.2177 6.20585 14.7938 4.81485 15.8194 3.78926C16.845 2.76367 18.236 2.1875 19.6864 2.1875H52.4989C53.9493 2.1875 55.3403 2.76367 56.3659 3.78926C57.3915 4.81485 57.9677 6.20585 57.9677 7.65625Z" fill="#EE4C1F"/>
<path fill-rule="evenodd" clip-rule="evenodd" d="M49.1859 1.35953C49.2263 1.19825 49.2294 1.02989 49.195 0.867243C49.1606 0.704591 49.0895 0.551924 48.9872 0.420854C48.8849 0.289784 48.7541 0.18376 48.6047 0.110834C48.4553 0.0379072 48.2913 4.37058e-06 48.125 0H24.0625C23.8962 4.37058e-06 23.7322 0.0379072 23.5828 0.110834C23.4334 0.18376 23.3025 0.289784 23.2003 0.420854C23.098 0.551924 23.0269 0.704591 22.9925 0.867243C22.958 1.02989 22.9612 1.19825 23.0016 1.35953L23.6797 4.0775C23.8575 4.78753 24.2675 5.41775 24.8446 5.86801C25.4217 6.31826 26.1327 6.56272 26.8647 6.5625H45.3228C46.0544 6.56223 46.7649 6.31756 47.3416 5.86734C47.9182 5.41712 48.3279 4.78717 48.5056 4.0775L49.1859 1.35953ZM46.7239 2.1875L46.3837 3.54703C46.3248 3.78373 46.1883 3.9939 45.996 4.14397C45.8037 4.29404 45.5667 4.37538 45.3228 4.375H26.8647C26.6208 4.37538 26.3837 4.29404 26.1914 4.14397C25.9991 3.9939 25.8626 3.78373 25.8037 3.54703L25.4625 2.1875H46.7228H46.7239ZM25.1541 40.4688C25.1541 40.1789 25.039 39.9008 24.8341 39.6957C24.6292 39.4907 24.3513 39.3753 24.0614 39.375H10.9364C10.6463 39.375 10.3681 39.4902 10.163 39.6954C9.9579 39.9005 9.84265 40.1787 9.84265 40.4688V49.2188C9.84265 50.089 10.1884 50.9236 10.8037 51.5389C11.4191 52.1543 12.2537 52.5 13.1239 52.5H21.8739C22.7441 52.5 23.5787 52.1543 24.1941 51.5389C24.8094 50.9236 25.1551 50.089 25.1551 49.2188V40.4688H25.1541ZM22.9687 41.5625V49.2188C22.9687 49.5088 22.8535 49.787 22.6484 49.9921C22.4433 50.1973 22.1651 50.3125 21.875 50.3125H13.125C12.8349 50.3125 12.5567 50.1973 12.3516 49.9921C12.1465 49.787 12.0312 49.5088 12.0312 49.2188V41.5625H22.9687ZM44.2969 50.3125H29.5312C29.2412 50.3125 28.963 50.4277 28.7578 50.6329C28.5527 50.838 28.4375 51.1162 28.4375 51.4062C28.4375 51.6963 28.5527 51.9745 28.7578 52.1796C28.963 52.3848 29.2412 52.5 29.5312 52.5H44.2969C44.587 52.5 44.8651 52.3848 45.0703 52.1796C45.2754 51.9745 45.3906 51.6963 45.3906 51.4062C45.3906 51.1162 45.2754 50.838 45.0703 50.6329C44.8651 50.4277 44.587 50.3125 44.2969 50.3125ZM11.4844 59.0625C8.46672 59.0625 6.01672 61.5125 6.01672 64.5312C6.01672 67.55 8.46672 70 11.4855 70C14.5031 70 16.9542 67.55 16.9542 64.5312C16.9542 61.5125 14.5031 59.0625 11.4855 59.0625H11.4844ZM11.4844 61.25C13.2956 61.25 14.7667 62.7211 14.7667 64.5312C14.7667 66.3414 13.2956 67.8125 11.4855 67.8125C10.6152 67.8125 9.78063 67.4668 9.16528 66.8514C8.54992 66.2361 8.20422 65.4015 8.20422 64.5312C8.20422 63.661 8.54992 62.8264 9.16528 62.2111C9.78063 61.5957 10.6152 61.25 11.4855 61.25H11.4844ZM38.2812 59.0625C35.2636 59.0625 32.8136 61.5125 32.8136 64.5312C32.8136 67.55 35.2636 70 38.2823 70C41.3 70 43.75 67.55 43.75 64.5312C43.75 61.5125 41.3 59.0625 38.2812 59.0625ZM38.2812 61.25C39.1515 61.25 39.9861 61.5957 40.6014 62.2111C41.2168 62.8264 41.5625 63.661 41.5625 64.5312C41.5625 65.4015 41.2168 66.2361 40.6014 66.8514C39.9861 67.4668 39.1515 67.8125 38.2812 67.8125C37.411 67.8125 36.5764 67.4668 35.9611 66.8514C35.3457 66.2361 35 65.4015 35 64.5312C35 63.661 35.3457 62.8264 35.9611 62.2111C36.5764 61.5957 37.411 61.25 38.2812 61.25Z" fill="#EE4C1F"/>
<path fill-rule="evenodd" clip-rule="evenodd" d="M9.84375 41.5625H25.1562C25.4463 41.5625 25.7245 41.4473 25.9296 41.2421C26.1348 41.037 26.25 40.7588 26.25 40.4688C26.25 40.1787 26.1348 39.9005 25.9296 39.6954C25.7245 39.4902 25.4463 39.375 25.1562 39.375H9.84375C9.55367 39.375 9.27547 39.4902 9.07035 39.6954C8.86523 39.9005 8.75 40.1787 8.75 40.4688C8.75 40.7588 8.86523 41.037 9.07035 41.2421C9.27547 41.4473 9.55367 41.5625 9.84375 41.5625Z" fill="#EE4C1F"/>
<path fill-rule="evenodd" clip-rule="evenodd" d="M20.7812 40.4687C20.7812 40.1786 20.666 39.9004 20.4609 39.6953C20.2558 39.4902 19.9776 39.3749 19.6875 39.3749H15.3125C15.0224 39.3749 14.7442 39.4902 14.5391 39.6953C14.334 39.9004 14.2188 40.1786 14.2188 40.4687V44.2968C14.2188 45.022 14.5068 45.7175 15.0196 46.2303C15.5324 46.7431 16.2279 47.0312 16.9531 47.0312H18.0469C18.7721 47.0312 19.4676 46.7431 19.9804 46.2303C20.4932 45.7175 20.7812 45.022 20.7812 44.2968V40.4687ZM18.5938 41.5624V44.2968C18.5935 44.4418 18.5357 44.5807 18.4332 44.6832C18.3308 44.7857 18.1918 44.8434 18.0469 44.8437H16.9531C16.8083 44.8431 16.6695 44.7853 16.5671 44.6829C16.4646 44.5804 16.4068 44.4417 16.4062 44.2968V41.5624H18.5938ZM58.8787 69.977C59.1459 70.0314 59.4238 69.9841 59.6579 69.8443C59.892 69.7045 60.0655 69.4822 60.1442 69.2212C61.6931 64.0844 64.0536 59.2284 67.1366 54.8373L67.1376 54.8351C68.2917 53.1858 68.9093 51.2208 68.9062 49.2078C68.9062 43.7751 64.4952 39.364 59.0625 39.364C53.6298 39.364 49.2188 43.7751 49.2188 49.2078C49.2188 51.3034 49.875 53.247 51.0223 54.8242C54.1055 59.2159 56.4661 64.0727 58.0147 69.2103C58.1897 69.7889 58.6272 69.9387 58.8787 69.977ZM59.0822 65.5167C57.5145 61.2775 55.4058 57.2587 52.8085 53.5598L52.7964 53.5434C51.8839 52.2827 51.397 50.764 51.4062 49.2078C51.4062 44.9826 54.8373 41.5515 59.0625 41.5515C63.2877 41.5515 66.7188 44.9826 66.7188 49.2078C66.7208 50.7725 66.2411 52.3 65.345 53.5827C62.7526 57.2747 60.6476 61.2858 59.0822 65.5167Z" fill="#EE4C1F"/>
<path fill-rule="evenodd" clip-rule="evenodd" d="M59.0614 44.8438C56.6464 44.8438 54.6864 46.8027 54.6864 49.2188C54.6864 51.6327 56.6464 53.5938 59.0614 53.5938C61.4764 53.5938 63.4364 51.6327 63.4364 49.2188C63.4364 46.8027 61.4764 44.8438 59.0614 44.8438ZM59.0614 47.0312C59.6416 47.0314 60.1979 47.262 60.608 47.6723C61.0182 48.0827 61.2485 48.6391 61.2484 49.2193C61.2482 49.7995 61.0176 50.3558 60.6073 50.7659C60.1969 51.1761 59.6405 51.4064 59.0603 51.4062C58.4801 51.4062 57.9238 51.1758 57.5135 50.7655C57.1033 50.3553 56.8728 49.7989 56.8728 49.2188C56.8728 48.6386 57.1033 48.0822 57.5135 47.672C57.9238 47.2617 58.4801 47.0312 59.0603 47.0312H59.0614ZM43.75 14.2188C37.7125 14.2188 32.8125 19.1188 32.8125 25.1562C32.8125 31.1916 37.7125 36.0938 43.75 36.0938C49.7853 36.0938 54.6875 31.1916 54.6875 25.1562C54.6875 19.1188 49.7853 14.2188 43.75 14.2188ZM43.75 16.4062C48.5789 16.4062 52.5 20.3263 52.5 25.1562C52.5 29.9852 48.5789 33.9051 43.75 33.9051C38.92 33.9051 35 29.9851 35 25.1551C35 20.3262 38.92 16.4051 43.75 16.4051V16.4062Z" fill="#EE4C1F"/>
<path fill-rule="evenodd" clip-rule="evenodd" d="M42.6562 15.3125V17.5C42.6562 17.7901 42.7715 18.0683 42.9766 18.2734C43.1817 18.4785 43.4599 18.5938 43.75 18.5938C44.0401 18.5938 44.3183 18.4785 44.5234 18.2734C44.7285 18.0683 44.8438 17.7901 44.8438 17.5V15.3125C44.8438 15.0224 44.7285 14.7442 44.5234 14.5391C44.3183 14.334 44.0401 14.2188 43.75 14.2188C43.4599 14.2188 43.1817 14.334 42.9766 14.5391C42.7715 14.7442 42.6562 15.0224 42.6562 15.3125ZM49.9363 17.4223L48.3897 18.9689C48.1905 19.1752 48.0802 19.4515 48.0827 19.7383C48.0852 20.025 48.2002 20.2993 48.403 20.5021C48.6058 20.7049 48.8801 20.82 49.1669 20.8225C49.4537 20.8249 49.73 20.7147 49.9363 20.5155L51.4828 18.9689C51.6821 18.7626 51.7923 18.4863 51.7898 18.1996C51.7873 17.9128 51.6723 17.6385 51.4695 17.4357C51.2667 17.2329 50.9924 17.1179 50.7056 17.1154C50.4188 17.1129 50.1425 17.2231 49.9363 17.4223ZM53.5938 24.0625H51.4062C51.1162 24.0625 50.838 24.1777 50.6329 24.3829C50.4277 24.588 50.3125 24.8662 50.3125 25.1562C50.3125 25.4463 50.4277 25.7245 50.6329 25.9296C50.838 26.1348 51.1162 26.25 51.4062 26.25H53.5938C53.8838 26.25 54.162 26.1348 54.3671 25.9296C54.5723 25.7245 54.6875 25.4463 54.6875 25.1562C54.6875 24.8662 54.5723 24.588 54.3671 24.3829C54.162 24.1777 53.8838 24.0625 53.5938 24.0625ZM51.4828 31.3436L49.9363 29.797C49.73 29.5978 49.4537 29.4876 49.1669 29.49C48.8801 29.4925 48.6058 29.6076 48.403 29.8104C48.2002 30.0132 48.0852 30.2875 48.0827 30.5742C48.0802 30.861 48.1905 31.1373 48.3897 31.3436L49.9363 32.8902C50.1413 33.0954 50.4196 33.2107 50.7097 33.2108C50.9998 33.2109 51.2781 33.0958 51.4834 32.8907C51.6886 32.6856 51.804 32.4074 51.8041 32.1173C51.8042 31.8271 51.689 31.5488 51.4839 31.3436H51.4828ZM42.6562 32.8125V35C42.6562 35.2901 42.7715 35.5683 42.9766 35.7734C43.1817 35.9785 43.4599 36.0938 43.75 36.0938C44.0401 36.0938 44.3183 35.9785 44.5234 35.7734C44.7285 35.5683 44.8438 35.2901 44.8438 35V32.8125C44.8438 32.5224 44.7285 32.2442 44.5234 32.0391C44.3183 31.834 44.0401 31.7188 43.75 31.7188C43.4599 31.7188 43.1817 31.834 42.9766 32.0391C42.7715 32.2442 42.6562 32.5224 42.6562 32.8125ZM37.5627 29.797L36.0161 31.3436C35.8109 31.5487 35.6955 31.8269 35.6954 32.117C35.6953 32.4072 35.8105 32.6855 36.0155 32.8907C36.2206 33.0959 36.4989 33.2113 36.789 33.2114C37.0791 33.2115 37.3574 33.0963 37.5627 32.8913L39.1092 31.3436C39.3085 31.1373 39.4187 30.861 39.4162 30.5742C39.4137 30.2875 39.2987 30.0132 39.0959 29.8104C38.8931 29.6076 38.6188 29.4925 38.332 29.49C38.0452 29.4876 37.7689 29.5978 37.5627 29.797ZM36.0938 24.0625H33.9062C33.6162 24.0625 33.338 24.1777 33.1329 24.3829C32.9277 24.588 32.8125 24.8662 32.8125 25.1562C32.8125 25.4463 32.9277 25.7245 33.1329 25.9296C33.338 26.1348 33.6162 26.25 33.9062 26.25H36.0938C36.3838 26.25 36.662 26.1348 36.8671 25.9296C37.0723 25.7245 37.1875 25.4463 37.1875 25.1562C37.1875 24.8662 37.0723 24.588 36.8671 24.3829C36.662 24.1777 36.3838 24.0625 36.0938 24.0625ZM39.1081 18.97L37.5616 17.4234C37.3553 17.2242 37.079 17.114 36.7922 17.1164C36.5054 17.1189 36.2311 17.234 36.0283 17.4368C35.8255 17.6396 35.7105 17.9139 35.708 18.2007C35.7055 18.4874 35.8158 18.7637 36.015 18.97L37.5616 20.5166C37.7678 20.7158 38.0441 20.826 38.3309 20.8236C38.6177 20.8211 38.892 20.706 39.0948 20.5032C39.2976 20.3004 39.4126 20.0261 39.4151 19.7393C39.4176 19.4526 39.3074 19.1763 39.1081 18.97Z" fill="#EE4C1F"/>
<path d="M43.7502 26.2506C44.3543 26.2506 44.844 25.7609 44.844 25.1569C44.844 24.5528 44.3543 24.0631 43.7502 24.0631C43.1461 24.0631 42.6564 24.5528 42.6564 25.1569C42.6564 25.7609 43.1461 26.2506 43.7502 26.2506Z" fill="#EE4C1F"/>
<path fill-rule="evenodd" clip-rule="evenodd" d="M12.0312 9.84375V31.7188C12.0312 32.0088 12.1465 32.287 12.3516 32.4921C12.5567 32.6973 12.8349 32.8125 13.125 32.8125C13.4151 32.8125 13.6933 32.6973 13.8984 32.4921C14.1035 32.287 14.2188 32.0088 14.2188 31.7188V9.84375C14.2188 9.55367 14.1035 9.27547 13.8984 9.07035C13.6933 8.86523 13.4151 8.75 13.125 8.75C12.8349 8.75 12.5567 8.86523 12.3516 9.07035C12.1465 9.27547 12.0312 9.55367 12.0312 9.84375ZM57.9688 9.84375V40.4688C57.9688 40.7588 58.084 41.037 58.2891 41.2421C58.4942 41.4473 58.7724 41.5625 59.0625 41.5625C59.3526 41.5625 59.6308 41.4473 59.8359 41.2421C60.041 41.037 60.1562 40.7588 60.1562 40.4688V9.84375C60.1562 9.55367 60.041 9.27547 59.8359 9.07035C59.6308 8.86523 59.3526 8.75 59.0625 8.75C58.7724 8.75 58.4942 8.86523 58.2891 9.07035C58.084 9.27547 57.9688 9.55367 57.9688 9.84375Z" fill="#EE4C1F"/>
<path fill-rule="evenodd" clip-rule="evenodd" d="M8.5914 62.3438C8.85828 62.3438 9.11531 62.2464 9.31547 62.0703C9.91376 61.5408 10.6854 61.2489 11.4844 61.25C12.3156 61.25 13.0747 61.5595 13.6533 62.0703C13.8534 62.2464 14.1105 62.3438 14.3773 62.3438H29.5312C29.8213 62.3438 30.0995 62.2285 30.3046 62.0234C30.5098 61.8183 30.625 61.5401 30.625 61.25V33.9063C30.625 33.0356 30.2794 32.2011 29.6636 31.5864C29.3591 31.2815 28.9975 31.0396 28.5994 30.8747C28.2013 30.7097 27.7747 30.6249 27.3438 30.625H7.65625C6.78563 30.625 5.95109 30.9706 5.3364 31.5864C5.0315 31.8909 4.78964 32.2525 4.62467 32.6506C4.4597 33.0487 4.37485 33.4753 4.375 33.9063V61.25C4.375 61.5401 4.49023 61.8183 4.69535 62.0234C4.90047 62.2285 5.17867 62.3438 5.46875 62.3438H8.5914ZM8.20423 60.1562H6.5625V33.9063C6.56207 33.7625 6.59007 33.6201 6.64488 33.4872C6.69969 33.3543 6.78023 33.2335 6.88188 33.1319C6.98353 33.0302 7.10429 32.9497 7.23718 32.8949C7.37008 32.8401 7.5125 32.8121 7.65625 32.8125H27.3438C27.4875 32.8121 27.6299 32.8401 27.7628 32.8949C27.8957 32.9497 28.0165 33.0302 28.1181 33.1319C28.2198 33.2335 28.3003 33.3543 28.3551 33.4872C28.4099 33.6201 28.4379 33.7625 28.4375 33.9063V60.1562H14.7645C13.8192 59.4446 12.6676 59.0606 11.4844 59.0625C10.3011 59.0606 9.14954 59.4446 8.20423 60.1562Z" fill="#EE4C1F"/>
<path fill-rule="evenodd" clip-rule="evenodd" d="M35.3883 62.3438C35.6551 62.3438 35.9122 62.2464 36.1123 62.0703C36.7106 61.5408 37.4823 61.2489 38.2812 61.25C39.1125 61.25 39.8716 61.5595 40.4502 62.0703C40.6503 62.2464 40.9073 62.3438 41.1742 62.3438H44.8437C45.1338 62.3438 45.412 62.2285 45.6171 62.0234C45.8222 61.8183 45.9375 61.5401 45.9375 61.25V51.9728C45.9375 51.415 45.7953 50.867 45.5241 50.3792L40.9566 42.1564C40.6723 41.6448 40.2564 41.2185 39.752 40.9218C39.2475 40.6251 38.6729 40.4686 38.0877 40.4688H29.5312C29.2412 40.4688 28.963 40.584 28.7578 40.7891C28.5527 40.9942 28.4375 41.2724 28.4375 41.5625V61.25C28.4375 61.5401 28.5527 61.8183 28.7578 62.0234C28.963 62.2285 29.2412 62.3438 29.5312 62.3438H35.3883ZM35.0011 60.1562H30.625V42.6562H38.0877C38.2826 42.6562 38.4741 42.7084 38.6422 42.8072C38.8102 42.906 38.9488 43.048 39.0436 43.2184L43.6122 51.4423C43.7028 51.6044 43.7503 51.7871 43.75 51.9728V60.1562H41.5614C40.6161 59.4446 39.4645 59.0606 38.2812 59.0625C37.098 59.0606 35.9464 59.4446 35.0011 60.1562ZM11.4844 59.0625C8.46672 59.0625 6.01672 61.5125 6.01672 64.5312C6.01672 67.55 8.46672 70 11.4855 70C14.5031 70 16.9542 67.55 16.9542 64.5312C16.9542 61.5125 14.5031 59.0625 11.4855 59.0625H11.4844ZM11.4844 61.25C13.2956 61.25 14.7667 62.7211 14.7667 64.5312C14.7667 66.3414 13.2956 67.8125 11.4855 67.8125C10.6152 67.8125 9.78063 67.4668 9.16528 66.8514C8.54992 66.2361 8.20422 65.4015 8.20422 64.5312C8.20422 63.661 8.54992 62.8264 9.16528 62.2111C9.78063 61.5957 10.6152 61.25 11.4855 61.25H11.4844Z" fill="#EE4C1F"/>
<path fill-rule="evenodd" clip-rule="evenodd" d="M41.1742 60.1563C40.952 60.1561 40.735 60.2237 40.5522 60.3499C40.3693 60.4762 40.2292 60.6552 40.1506 60.863C40.072 61.0709 40.0585 61.2977 40.112 61.5134C40.1656 61.7291 40.2835 61.9233 40.4502 62.0703C40.9054 62.4704 41.2407 62.9889 41.4188 63.5682C41.5968 64.1475 41.6106 64.7649 41.4586 65.3516C41.4173 65.5132 41.4135 65.6822 41.4474 65.8456C41.4813 66.0089 41.552 66.1624 41.6543 66.2943C41.7565 66.4261 41.8875 66.5329 42.0372 66.6065C42.187 66.6801 42.3516 66.7184 42.5184 66.7188H45.9747C46.835 66.7185 47.6599 66.3766 48.2683 65.7683C48.8766 65.1599 49.2185 64.335 49.2188 63.4747V63.4725C49.2189 63.037 49.1332 62.6057 48.9666 62.2033C48.8 61.8008 48.5557 61.4352 48.2478 61.1272C47.9398 60.8193 47.5742 60.575 47.1717 60.4084C46.7693 60.2418 46.338 60.1561 45.9025 60.1563H41.1742ZM14.3773 60.1563C14.1551 60.1561 13.9382 60.2237 13.7553 60.3499C13.5724 60.4762 13.4324 60.6552 13.3537 60.863C13.2751 61.0709 13.2617 61.2977 13.3152 61.5134C13.3687 61.7291 13.4866 61.9233 13.6533 62.0703C14.1083 62.47 14.4436 62.9882 14.6219 63.567C14.8001 64.1459 14.8143 64.7629 14.6628 65.3494C14.6215 65.5109 14.6176 65.6797 14.6515 65.8429C14.6853 66.0062 14.756 66.1595 14.8582 66.2913C14.9603 66.4231 15.0911 66.5298 15.2408 66.6033C15.3904 66.6768 15.5548 66.7152 15.7216 66.7155L34.0441 66.7176C34.2109 66.7176 34.3754 66.6793 34.5251 66.6059C34.6749 66.5325 34.8059 66.4257 34.908 66.2939C35.0102 66.1621 35.0809 66.0086 35.1146 65.8453C35.1484 65.682 35.1443 65.5131 35.1028 65.3516C34.9509 64.7648 34.9649 64.1474 35.1431 63.568C35.3214 62.9887 35.6569 62.4702 36.1123 62.0703C36.279 61.9233 36.3969 61.7291 36.4505 61.5134C36.504 61.2977 36.4905 61.0709 36.4119 60.863C36.3333 60.6552 36.1932 60.4762 36.0103 60.3499C35.8275 60.2237 35.6105 60.1561 35.3883 60.1563H14.3773ZM9.31547 62.0703C9.48213 61.9233 9.60006 61.7291 9.65358 61.5134C9.70709 61.2977 9.69365 61.0709 9.61502 60.863C9.5364 60.6552 9.39633 60.4762 9.21346 60.3499C9.0306 60.2237 8.81362 60.1561 8.5914 60.1563H4.37937C3.94788 60.1561 3.52059 60.241 3.12195 60.4061C2.72332 60.5713 2.36118 60.8135 2.05626 61.1188C1.75095 61.4237 1.50878 61.7858 1.34362 62.1845C1.17846 62.5831 1.09355 63.0104 1.09375 63.4419V63.4441C1.09361 63.8736 1.17809 64.299 1.34237 64.6959C1.50666 65.0928 1.74752 65.4535 2.05122 65.7572C2.35491 66.061 2.71548 66.302 3.11232 66.4664C3.50917 66.6309 3.93451 66.7155 4.36407 66.7155H7.24609C7.41283 66.7151 7.57729 66.6767 7.72695 66.6032C7.87661 66.5297 8.00751 66.423 8.10972 66.2913C8.21192 66.1596 8.28273 66.0063 8.31673 65.843C8.35073 65.6798 8.34703 65.5109 8.30593 65.3494C8.15449 64.7629 8.16866 64.1459 8.34689 63.567C8.52511 62.9882 8.8604 62.47 9.31547 62.0703ZM43.75 64.5313C43.75 63.7536 43.587 63.0142 43.295 62.3438H43.2939H45.9025C46.2016 62.3446 46.4882 62.4638 46.6997 62.6753C46.9112 62.8868 47.0304 63.1734 47.0312 63.4725V63.4747C47.031 63.7548 46.9195 64.0234 46.7215 64.2215C46.5234 64.4195 46.2548 64.531 45.9747 64.5313H43.75ZM32.8125 64.5301L16.9531 64.529C16.9531 63.7525 16.7902 63.0131 16.4981 62.3438H16.497H33.2686C32.9669 63.0331 32.8116 63.7776 32.8125 64.5301ZM6.01563 64.528H4.36407C4.07698 64.5277 3.80172 64.4135 3.59871 64.2105C3.39571 64.0075 3.28154 63.7322 3.28125 63.4451V63.4419C3.28154 63.1507 3.39733 62.8716 3.6032 62.6657C3.80908 62.4598 4.08822 62.344 4.37937 62.3438H6.47063C6.1699 63.0326 6.01499 63.7763 6.01563 64.528Z" fill="#EE4C1F"/>
</svg>
