<svg width="33" height="32" viewBox="0 0 33 32" fill="none" xmlns="http://www.w3.org/2000/svg">
<path d="M15.698 0.0049005C13.13 0.0359005 7.609 0.457901 4.521 3.2909C2.224 5.5669 1.422 8.9319 1.328 13.0929C1.25 17.2389 1.156 25.0249 8.661 27.1449V30.3739C8.661 30.3739 8.614 31.6659 9.468 31.9309C10.52 32.2639 11.119 31.2699 12.119 30.2019L13.984 28.0929C19.119 28.5199 23.052 27.5359 23.505 27.3899C24.547 27.0569 30.416 26.3069 31.375 18.5199C32.359 10.4779 30.896 5.4109 28.255 3.1189H28.239C27.442 2.3849 24.239 0.0509005 17.083 0.0249005C17.083 0.0249005 16.552 -0.0110995 15.698 0.0039005V0.0049005ZM15.786 2.2659C16.515 2.2609 16.958 2.2919 16.958 2.2919C23.015 2.3079 25.906 4.1309 26.588 4.7449C28.812 6.6509 29.958 11.2189 29.119 17.9329C28.322 24.4429 23.562 24.8549 22.681 25.1359C22.306 25.2559 18.842 26.1099 14.478 25.8289C14.478 25.8289 11.228 29.7509 10.212 30.7609C10.051 30.9379 9.863 30.9899 9.743 30.9639C9.571 30.9219 9.519 30.7089 9.529 30.4169L9.56 25.0579C3.195 23.2979 3.57 16.6569 3.638 13.1879C3.716 9.7189 4.367 6.8809 6.305 4.9589C8.914 2.5999 13.602 2.2819 15.784 2.2659H15.786ZM16.266 5.7339C16.2136 5.73337 16.1616 5.74322 16.1131 5.76287C16.0645 5.78252 16.0203 5.81159 15.983 5.8484C15.9458 5.88521 15.9161 5.92904 15.8959 5.97735C15.8756 6.02567 15.8651 6.07751 15.865 6.1299C15.865 6.3539 16.047 6.5309 16.266 6.5309C17.2575 6.51204 18.2429 6.68967 19.1654 7.05353C20.088 7.41739 20.9293 7.96028 21.641 8.6509C23.094 10.0619 23.802 11.9579 23.829 14.4369C23.829 14.6559 24.006 14.8379 24.23 14.8379V14.8219C24.3356 14.8222 24.437 14.7807 24.5121 14.7065C24.5872 14.6323 24.6299 14.5315 24.631 14.4259C24.6796 13.2591 24.4903 12.0945 24.0748 11.0031C23.6593 9.91162 23.0262 8.91606 22.214 8.0769C20.631 6.5299 18.625 5.7329 16.266 5.7329V5.7339ZM10.995 6.6509C10.7119 6.60954 10.4233 6.66636 10.177 6.8119H10.156C9.58426 7.14704 9.06921 7.57062 8.63 8.0669C8.265 8.4889 8.067 8.9159 8.015 9.3269C7.984 9.5719 8.005 9.8169 8.078 10.0509L8.104 10.0669C8.515 11.2749 9.052 12.4369 9.708 13.5309C10.553 15.0679 11.5929 16.4893 12.802 17.7599L12.838 17.8119L12.895 17.8539L12.931 17.8959L12.973 17.9319C14.2482 19.1445 15.6731 20.1893 17.213 21.0409C18.973 21.9989 20.041 22.4519 20.682 22.6399V22.6499C20.87 22.7069 21.041 22.7329 21.213 22.7329C21.7593 22.6929 22.2764 22.4711 22.682 22.1029C23.176 21.6636 23.5949 21.1464 23.922 20.5719V20.5619C24.229 19.9839 24.125 19.4369 23.682 19.0669C22.7948 18.2914 21.8354 17.6026 20.817 17.0099C20.135 16.6399 19.442 16.8639 19.161 17.2389L18.562 17.9939C18.255 18.3689 17.697 18.3169 17.697 18.3169L17.681 18.3269C13.52 17.2639 12.41 13.0509 12.41 13.0509C12.41 13.0509 12.358 12.4779 12.743 12.1859L13.493 11.5819C13.852 11.2899 14.102 10.5979 13.717 9.9149C13.1284 8.89505 12.4411 7.93545 11.665 7.0499C11.4953 6.84113 11.2573 6.69909 10.993 6.6489L10.995 6.6509ZM16.958 7.8389C16.427 7.8389 16.427 8.6409 16.963 8.6409C17.6233 8.65161 18.275 8.79234 18.8808 9.05503C19.4867 9.31773 20.0349 9.69725 20.494 10.1719C20.9128 10.6339 21.2347 11.1753 21.4404 11.7639C21.6462 12.3526 21.7318 12.9766 21.692 13.5989C21.6938 13.7042 21.7368 13.8046 21.8118 13.8787C21.8867 13.9527 21.9877 13.9944 22.093 13.9949L22.109 14.0159C22.2151 14.0151 22.3166 13.9726 22.3917 13.8976C22.4667 13.8226 22.5092 13.721 22.51 13.6149C22.546 12.0259 22.052 10.6929 21.083 9.6249C20.109 8.5569 18.75 7.9579 17.015 7.8389H16.958ZM17.615 9.9949C17.068 9.9789 17.047 10.7969 17.589 10.8129C18.907 10.8809 19.547 11.5469 19.631 12.9169C19.6328 13.0209 19.6753 13.12 19.7493 13.1931C19.8233 13.2662 19.923 13.3074 20.027 13.3079H20.043C20.0965 13.3056 20.149 13.2927 20.1974 13.2699C20.2458 13.2471 20.2892 13.2149 20.325 13.1751C20.3609 13.1354 20.3884 13.0889 20.4061 13.0384C20.4238 12.9879 20.4312 12.9343 20.428 12.8809C20.334 11.0949 19.36 10.0889 17.631 9.9959H17.615V9.9949Z" fill="#EE4C1F"/>
</svg>
