<svg width="36" height="35" viewBox="0 0 36 35" fill="none" xmlns="http://www.w3.org/2000/svg">
<path d="M31.9386 4.54617C31.6749 4.3184 31.3539 4.16714 31.0104 4.10877C30.6669 4.0504 30.314 4.08715 29.9898 4.21503L4.75744 14.1278C4.37258 14.279 4.04703 14.5507 3.8295 14.9024C3.61196 15.254 3.51415 15.6666 3.55069 16.0785C3.58723 16.4904 3.75616 16.8793 4.0322 17.1872C4.30824 17.495 4.67655 17.7052 5.08201 17.7863L11.711 19.1119V27.3414C11.7106 27.7202 11.8226 28.0905 12.0329 28.4055C12.2431 28.7206 12.5422 28.9661 12.8921 29.111C13.242 29.256 13.6271 29.2938 13.9985 29.2197C14.3699 29.1456 14.711 28.9629 14.9785 28.6948L18.7067 24.9665L24.2828 29.8736C24.6296 30.1815 25.0771 30.3518 25.5409 30.3524C25.7425 30.3521 25.9428 30.3203 26.1346 30.2582C26.451 30.1578 26.7355 29.9763 26.9598 29.7317C27.1841 29.4871 27.3404 29.1879 27.413 28.8641L32.5554 6.424C32.6337 6.0845 32.6176 5.73005 32.509 5.39903C32.4003 5.068 32.2031 4.77302 31.9388 4.54603L31.9386 4.54617ZM5.18496 15.9335C5.1761 15.8742 5.18854 15.8137 5.22008 15.7627C5.25162 15.7117 5.30021 15.6735 5.35722 15.655L26.4706 7.36038L12.3411 17.5649L5.40371 16.1774C5.34428 16.1692 5.28968 16.1402 5.24963 16.0955C5.20958 16.0509 5.18666 15.9934 5.18496 15.9335V15.9335ZM13.8183 27.5349C13.7801 27.5731 13.7314 27.5991 13.6783 27.6097C13.6253 27.6202 13.5703 27.6148 13.5204 27.5941C13.4704 27.5734 13.4277 27.5384 13.3977 27.4934C13.3676 27.4485 13.3516 27.3956 13.3516 27.3416V20.2541L17.4727 23.8807L13.8183 27.5349ZM25.8138 28.4976C25.8032 28.5438 25.7808 28.5865 25.7488 28.6214C25.7168 28.6564 25.6763 28.6824 25.6312 28.697C25.5861 28.7115 25.538 28.7141 25.4916 28.7045C25.4452 28.6948 25.4021 28.6733 25.3666 28.642L13.8447 18.5028L30.9324 6.16177L25.8138 28.4976Z" fill="#EE4C1F"/>
</svg>
