<svg width="70" height="70" viewBox="0 0 70 70" fill="none" xmlns="http://www.w3.org/2000/svg">
<path d="M27.6172 65.625C27.9073 65.625 28.1855 65.5098 28.3906 65.3047C28.5957 65.0995 28.7109 64.8213 28.7109 64.5313C28.7109 64.2412 28.5957 63.963 28.3906 63.7579C28.1855 63.5527 27.9073 63.4375 27.6172 63.4375H17.7734C17.4834 63.4375 17.2052 63.5527 17 63.7579C16.7949 63.963 16.6797 64.2412 16.6797 64.5313C16.6797 64.8213 16.7949 65.0995 17 65.3047C17.2052 65.5098 17.4834 65.625 17.7734 65.625H27.6172ZM43.4766 30.852V33.4693C43.4859 33.4715 43.4941 33.4748 43.5034 33.4764C45.5811 32.2633 47.2008 30.3988 48.1115 28.1719C49.0222 25.9449 49.1731 23.4798 48.5408 21.1584C47.9085 18.837 46.5283 16.7889 44.614 15.3314C42.6998 13.874 40.3583 13.0885 37.9523 13.0966C35.5463 13.1048 33.2102 13.9062 31.3059 15.3766C29.4015 16.847 28.0352 18.9044 27.4187 21.23C26.8021 23.5557 26.9698 26.0197 27.8956 28.2405C28.8214 30.4612 30.4537 32.3146 32.5396 33.5136V30.8782C31.122 29.7487 30.0903 28.2067 29.5869 26.4654C29.0836 24.7242 29.1335 22.8695 29.7297 21.1578C30.326 19.4461 31.4391 17.9619 32.9154 16.9102C34.3917 15.8585 36.1581 15.2913 37.9707 15.287C39.7833 15.2826 41.5524 15.8413 43.0337 16.8859C44.515 17.9305 45.6353 19.4094 46.2398 21.1182C46.8442 22.827 46.903 24.6814 46.408 26.4251C45.9131 28.1687 44.8887 29.7156 43.4766 30.852Z" fill="#EE4C1F"/>
<path d="M61.7969 8.75H12.5781C11.7082 8.75101 10.8742 9.09704 10.259 9.71217C9.64392 10.3273 9.29789 11.1613 9.29688 12.0312V36.0938C9.29789 36.9637 9.64392 37.7977 10.259 38.4128C10.8742 39.028 11.7082 39.374 12.5781 39.375H32.5396V37.1875H20.1698C19.9187 34.9705 18.9228 32.9044 17.3452 31.3267C15.7675 29.749 13.7013 28.7532 11.4844 28.502V19.623C13.7013 19.3718 15.7675 18.376 17.3452 16.7983C18.9228 15.2206 19.9187 13.1545 20.1698 10.9375H54.2052C54.4563 13.1545 55.4522 15.2206 57.0298 16.7983C58.6075 18.376 60.6737 19.3718 62.8906 19.623V28.502C60.6737 28.7532 58.6075 29.749 57.0298 31.3267C55.4522 32.9044 54.4563 34.9705 54.2052 37.1875H49.1367C50.1233 37.6631 50.9433 38.4256 51.4894 39.375H61.7969C62.6668 39.374 63.5008 39.028 64.1159 38.4128C64.7311 37.7977 65.0771 36.9637 65.0781 36.0938V12.0312C65.0771 11.1613 64.7311 10.3273 64.1159 9.71217C63.5008 9.09704 62.6668 8.75101 61.7969 8.75ZM17.9594 37.1875H12.5781C12.2882 37.1871 12.0102 37.0717 11.8052 36.8667C11.6002 36.6616 11.4848 36.3837 11.4844 36.0938V30.7125C13.117 30.9506 14.6292 31.7094 15.7958 32.8761C16.9625 34.0427 17.7213 35.5549 17.9594 37.1875ZM11.4844 17.4125V12.0312C11.4848 11.7413 11.6002 11.4634 11.8052 11.2583C12.0102 11.0533 12.2882 10.9379 12.5781 10.9375H17.9594C17.7213 12.5701 16.9625 14.0823 15.7958 15.2489C14.6292 16.4156 13.117 17.1744 11.4844 17.4125ZM62.8906 36.0938C62.8902 36.3837 62.7748 36.6616 62.5698 36.8667C62.3648 37.0717 62.0868 37.1871 61.7969 37.1875H56.4156C56.6537 35.5549 57.4125 34.0427 58.5792 32.8761C59.7458 31.7094 61.258 30.9506 62.8906 30.7125V36.0938ZM62.8906 17.4125C61.258 17.1744 59.7458 16.4156 58.5792 15.2489C57.4125 14.0823 56.6537 12.5701 56.4156 10.9375H61.7969C62.0868 10.9379 62.3648 11.0533 62.5698 11.2583C62.7748 11.4634 62.8902 11.7413 62.8906 12.0312V17.4125Z" fill="#EE4C1F"/>
<path d="M38.0833 17.5175C37.9015 17.518 37.7273 17.5901 37.5984 17.7183C37.4696 17.8466 37.3966 18.0205 37.3953 18.2022V19.0313C35.4812 19.2353 34.6434 20.3547 34.6434 21.6497C34.6434 23.0989 35.5759 23.782 36.6691 24.2353C37.5561 24.0053 38.487 24.0049 39.3742 24.2342C40.2614 24.4634 41.0757 24.9147 41.7402 25.5457C41.0238 22.7916 36.3787 23.409 36.3787 21.6497C36.3787 21.0684 36.8413 20.5007 38.0833 20.5007C38.8519 20.4924 39.5967 20.7668 40.1762 21.2718C40.3435 21.4545 40.5727 21.5685 40.8193 21.5917C41.0284 21.596 41.2308 21.5173 41.382 21.3728C41.5333 21.2283 41.6212 21.0298 41.6265 20.8207C41.6248 20.6538 41.5726 20.4913 41.4766 20.3547C41.1378 19.9685 40.7253 19.6537 40.2633 19.4289C39.8013 19.2041 39.299 19.0738 38.786 19.0455V18.2022C38.7849 18.1111 38.7659 18.0211 38.73 17.9373C38.6941 17.8535 38.642 17.7777 38.5767 17.7141C38.5114 17.6505 38.4342 17.6004 38.3496 17.5666C38.2649 17.5329 38.1744 17.5162 38.0833 17.5175Z" fill="#EE4C1F"/>
<path d="M34.1797 67.8125H9.29688C8.71671 67.8125 8.16031 67.582 7.75008 67.1718C7.33984 66.7616 7.10938 66.2052 7.10938 65.625V4.375C7.10938 3.79484 7.33984 3.23844 7.75008 2.8282C8.16031 2.41797 8.71671 2.1875 9.29688 2.1875H16.5736L18.6189 5.98719C18.7126 6.16127 18.8518 6.30669 19.0215 6.40799C19.1913 6.5093 19.3853 6.56269 19.583 6.5625H30.1837C30.3812 6.5625 30.575 6.50901 30.7446 6.40771C30.9141 6.30642 31.0531 6.1611 31.1467 5.98719L33.192 2.1875H39.9219C40.502 2.1875 41.0584 2.41797 41.4687 2.8282C41.8789 3.23844 42.1094 3.79484 42.1094 4.375V6.5625H44.2969V4.375C44.2956 3.21508 43.8342 2.10304 43.014 1.28285C42.1938 0.462657 41.0818 0.00130272 39.9219 0L9.29688 0C8.13695 0.00130272 7.02491 0.462657 6.20472 1.28285C5.38453 2.10304 4.92318 3.21508 4.92188 4.375V65.625C4.92332 66.7849 5.38472 67.8968 6.20488 68.717C7.02504 69.5372 8.137 69.9986 9.29688 70H34.3711C34.2452 69.649 34.1805 69.2791 34.1797 68.9062V67.8125ZM30.7076 2.1875L29.5302 4.375H20.2355L19.058 2.1875H30.7076Z" fill="#EE4C1F"/>
<path d="M51.1328 41.5625C50.7531 41.5633 50.3765 41.6305 50.0199 41.761C49.9687 41.2679 49.806 40.7929 49.5443 40.3719C49.2825 39.9508 48.9284 39.5948 48.5088 39.3308C48.0892 39.0667 47.6151 38.9014 47.1223 38.8475C46.6295 38.7936 46.1308 38.8524 45.6641 39.0195V38.8281C45.6656 38.3028 45.5406 37.7848 45.2996 37.3179C45.0586 36.8511 44.7088 36.4491 44.2797 36.1461C43.8505 35.843 43.3547 35.6477 42.8342 35.5767C42.3137 35.5058 41.7837 35.5612 41.2891 35.7383V29.5313C41.2947 29.0968 41.214 28.6656 41.0516 28.2626C40.8892 27.8596 40.6484 27.4929 40.3432 27.1837C40.038 26.8745 39.6744 26.629 39.2735 26.4615C38.8727 26.2939 38.4426 26.2076 38.0081 26.2076C37.5736 26.2076 37.1435 26.2939 36.7426 26.4615C36.3418 26.629 35.9782 26.8745 35.673 27.1837C35.3677 27.4929 35.127 27.8596 34.9646 28.2626C34.8022 28.6656 34.7215 29.0968 34.7271 29.5313V45.6619C33.7178 44.7009 32.7139 43.7342 31.7155 42.7618C31.0886 42.178 30.2643 41.8526 29.4077 41.8507C28.8512 41.8547 28.304 41.9937 27.8131 42.2558C27.3222 42.518 26.9024 42.8954 26.5896 43.3557C26.1544 44.0241 25.9447 44.8143 25.9914 45.6105C26.038 46.4067 26.3385 47.167 26.8488 47.7799L33.9041 55.9617C34.545 56.7666 35.1063 57.6318 35.5802 58.5452C36.3831 60.0885 36.9377 61.7488 37.2236 63.4648C36.9809 63.5187 36.7637 63.6537 36.608 63.8476C36.4523 64.0415 36.3674 64.2826 36.3672 64.5312V68.9062C36.3672 69.1963 36.4824 69.4745 36.6875 69.6796C36.8927 69.8848 37.1709 70 37.4609 70H51.6797C51.9698 70 52.248 69.8848 52.4531 69.6796C52.6582 69.4745 52.7734 69.1963 52.7734 68.9062V64.5312C52.7734 64.2412 52.6582 63.963 52.4531 63.7579C52.248 63.5527 51.9698 63.4375 51.6797 63.4375H51.2389C51.4536 62.2986 51.8593 61.2042 52.4388 60.2006C52.4766 60.1426 52.5115 60.0827 52.5432 60.0212C54.2008 57.1922 54.4141 53.6413 54.4141 50.8594V44.8438C54.4131 43.9738 54.067 43.1398 53.4519 42.5247C52.8368 41.9095 52.0027 41.5635 51.1328 41.5625ZM50.5859 67.8125H38.5547V65.625H50.5859V67.8125ZM52.2266 50.8594C52.2266 53.3728 52.0461 56.5627 50.6198 58.9859C50.6023 59.0089 50.587 59.0335 50.5723 59.0587C49.7914 60.4111 49.265 61.8953 49.0191 63.4375H39.4313C39.1269 61.3766 38.4808 59.381 37.5195 57.5329C36.9739 56.4827 36.3268 55.4885 35.5873 54.5645L28.5327 46.3843C28.3229 46.14 28.1962 45.8353 28.1708 45.5143C28.1453 45.1933 28.2224 44.8726 28.391 44.5982C28.5016 44.4286 28.6522 44.2887 28.8296 44.1911C29.007 44.0934 29.2057 44.0409 29.4082 44.0382C29.7054 44.0373 29.992 44.1484 30.211 44.3494C35.4665 49.4654 35.4665 49.4638 36.2447 49.1367C36.4431 49.0522 36.6124 48.9112 36.7314 48.7314C36.8505 48.5515 36.9142 48.3407 36.9146 48.125V29.5313C36.9114 29.3856 36.9372 29.2408 36.9907 29.1052C37.0442 28.9697 37.1242 28.8463 37.2261 28.7421C37.328 28.6379 37.4496 28.5552 37.5839 28.4987C37.7182 28.4422 37.8624 28.413 38.0081 28.413C38.1538 28.413 38.298 28.4422 38.4323 28.4987C38.5666 28.5552 38.6882 28.6379 38.7901 28.7421C38.8919 28.8463 38.972 28.9697 39.0255 29.1052C39.0789 29.2408 39.1048 29.3856 39.1016 29.5313V48.6719C39.1016 48.962 39.2168 49.2402 39.4219 49.4453C39.627 49.6504 39.9052 49.7656 40.1953 49.7656C40.4854 49.7656 40.7636 49.6504 40.9687 49.4453C41.1738 49.2402 41.2891 48.962 41.2891 48.6719V38.8281C41.2891 38.538 41.4043 38.2598 41.6094 38.0547C41.8145 37.8496 42.0927 37.7344 42.3828 37.7344C42.6729 37.7344 42.9511 37.8496 43.1562 38.0547C43.3613 38.2598 43.4766 38.538 43.4766 38.8281V48.6719C43.4766 48.962 43.5918 49.2402 43.7969 49.4453C44.002 49.6504 44.2802 49.7656 44.5703 49.7656C44.8604 49.7656 45.1386 49.6504 45.3437 49.4453C45.5488 49.2402 45.6641 48.962 45.6641 48.6719V42.1094C45.6641 41.8193 45.7793 41.5411 45.9844 41.336C46.1895 41.1309 46.4677 41.0156 46.7578 41.0156C47.0479 41.0156 47.3261 41.1309 47.5312 41.336C47.7363 41.5411 47.8516 41.8193 47.8516 42.1094V48.6719C47.8516 48.962 47.9668 49.2402 48.1719 49.4453C48.377 49.6504 48.6552 49.7656 48.9453 49.7656C49.2354 49.7656 49.5136 49.6504 49.7187 49.4453C49.9238 49.2402 50.0391 48.962 50.0391 48.6719V44.8438C50.0391 44.5537 50.1543 44.2755 50.3594 44.0704C50.5645 43.8652 50.8427 43.75 51.1328 43.75C51.4229 43.75 51.7011 43.8652 51.9062 44.0704C52.1113 44.2755 52.2266 44.5537 52.2266 44.8438V50.8594Z" fill="#EE4C1F"/>
</svg>
