<svg width="70" height="66" viewBox="0 0 70 66" fill="none" xmlns="http://www.w3.org/2000/svg">
<path fill-rule="evenodd" clip-rule="evenodd" d="M48.2594 0.136704C47.339 0.426787 47.155 0.671481 42.4495 7.86123C40.0598 11.5127 38.0245 14.5864 37.9265 14.6917C37.7751 14.8544 37.6631 14.8067 37.1794 14.3737C36.49 13.7562 35.4216 13.2448 34.5897 13.1338C34.0292 13.0589 33.9378 12.9913 33.5643 12.374C31.8832 9.59563 27.8347 9.13483 25.6298 11.4709C25.053 12.082 24.3404 13.3227 24.3373 13.7212C24.3357 13.9325 24.3541 13.9337 23.6354 13.6762C22.8203 13.3841 21.292 13.3842 20.4047 13.6762L19.6882 13.9121L19.2451 13.4729C17.4869 11.7304 14.4218 12.2767 13.3089 14.531C12.8998 15.3595 12.7842 16.8114 13.0849 17.3398C13.2135 17.5653 13.147 17.7031 12.641 18.2609C12.1092 18.847 11.4844 20.1024 11.4844 20.5846C11.4844 20.6961 11.1837 20.8245 10.6982 20.9201C9.00525 21.2536 7.41576 22.5513 6.88447 24.0338L6.64604 24.6992L4.45088 24.7583C2.06131 24.8228 1.60002 24.9355 0.903301 25.6253C0.198652 26.3228 0.00628906 26.9426 0.00382813 28.5234C-0.000957031 31.4886 0.871172 32.4435 3.58887 32.4496L4.92188 32.4526V43.0208V53.5889H3.54922C0.897285 53.5889 0 54.5481 0 57.3826C0 59.4418 0.388691 60.2649 1.66934 60.9178C2.1577 61.1667 2.64619 61.1763 14.7602 61.1763H27.3438L27.3468 62.6329C27.3511 64.7323 27.806 65.5676 29.139 65.9232C30.0229 66.1591 30.5271 65.9155 32.7916 64.1589C33.9456 63.2637 34.9442 62.5312 35.0108 62.5312C35.0772 62.5312 36.0711 63.2644 37.2191 64.1605C39.4729 65.9196 39.9711 66.1607 40.861 65.9232C42.194 65.5676 42.6489 64.7323 42.6532 62.6329L42.6562 61.1763H45.5745C48.7726 61.1763 48.8067 61.1681 49.017 60.3329C49.0923 60.0342 49.0312 59.8857 48.6963 59.5539L48.2828 59.144H45.4695H42.6562V57.3826V55.6213H55.0899H67.5236L67.7363 55.9225C67.8893 56.1387 67.9492 56.5543 67.9492 57.3978C67.9492 59.3273 68.845 59.1372 59.563 59.1775L51.6553 59.2118L51.3941 59.5316C51.0553 59.9464 51.0608 60.563 51.4062 60.9054C51.8234 61.3187 67.5216 61.3303 68.3307 60.9178C69.6113 60.2649 70 59.4418 70 57.3826C70 54.725 69.1962 53.7342 66.9238 53.5904L65.8301 53.5212L65.7951 42.9869L65.7601 32.4526L66.7521 32.4496C69.0966 32.4425 70.0007 31.3483 69.9962 28.5234C69.9918 25.6754 69.1336 24.874 65.9668 24.7602L64.1895 24.6962L64.1627 23.9571C64.1285 23.0117 63.8066 22.0559 63.2797 21.3351L62.864 20.7665L63.0999 20.0229C64.0794 16.937 60.7946 14.0396 57.9797 15.5066L57.5121 15.7504L56.9248 15.3061C56.042 14.6383 54.9899 14.297 53.8145 14.297H52.815L52.0764 13.5653C50.1457 11.6525 47.0292 12.2592 45.9936 14.7494C45.8002 15.2141 45.6258 15.4142 45.3223 15.5192C45.0967 15.5973 44.6827 15.8115 44.4023 15.9952C43.1204 16.8355 43.1468 16.7855 47.3915 10.3435C49.4695 7.18974 51.3152 4.34121 51.4931 4.01347C52.6712 1.84211 50.6263 -0.609436 48.2594 0.136704ZM49.734 2.6602C49.7602 2.89066 48.6176 4.73711 45.7613 9.08064L41.7519 15.1777L40.9562 15.2189C40.2842 15.2535 40.173 15.2274 40.2415 15.0504C40.4712 14.4574 48.7201 2.11201 48.9182 2.06486C49.2655 1.98234 49.6923 2.29383 49.734 2.6602ZM30.591 12.3409C31.3046 12.6933 32.1289 13.6718 32.1289 14.1665C32.1289 14.735 32.6562 15.1099 33.456 15.1099C35.0023 15.1099 36.1445 15.7906 36.5843 16.9744C37.0796 18.3072 37.6082 18.5085 38.7332 17.793C40.0593 16.9499 41.5257 17.1164 42.6854 18.2416C43.5842 19.1138 44.017 19.1353 44.7818 18.3455C46.1002 16.984 47.8436 16.9111 49.2375 18.1591C50.0903 18.9226 50.6484 18.805 51.3239 17.7194C53.0325 14.9739 57.4175 16.6363 56.7703 19.7843C56.5003 21.0973 57.0581 21.6691 58.3055 21.3579C60.2684 20.8681 62.0703 22.1551 62.0703 24.0468V24.7297H55.7996H49.529L49.4612 23.7914C49.1288 19.1872 42.1086 19.3372 42.0507 23.9498L42.041 24.728L32.9834 24.7289L23.9258 24.7297V24.0763C23.9258 20.2543 18.7379 18.9407 16.895 22.2963C16.6299 22.7789 16.4871 23.2702 16.4389 23.8644L16.3688 24.7297H12.6278C10.1704 24.7297 8.88672 24.6821 8.88672 24.5912C8.88672 24.5149 9.14129 24.1789 9.4526 23.8442C10.1333 23.1123 11.1182 22.7618 12.0885 22.906C12.9567 23.035 13.3208 22.6578 13.4426 21.503C13.6709 19.338 15.3353 18.13 17.307 18.6981C18.3832 19.0081 18.7067 18.8276 19.0971 17.6995C19.9516 15.2305 22.9119 14.6724 24.4043 16.6988C25.4171 18.0742 26.8404 17.5646 26.4127 15.9799C25.6741 13.2436 28.1147 11.1181 30.591 12.3409ZM17.2651 14.6147C18.059 14.9437 18.1143 15.1327 17.6397 15.8971C17.2374 16.545 17.1983 16.5709 16.7104 16.5084C16.4303 16.4725 15.9448 16.5014 15.6316 16.5725C14.9734 16.722 14.8271 16.5197 15.0462 15.7628C15.3394 14.7497 16.3405 14.2317 17.2651 14.6147ZM49.9957 14.5774C50.8238 14.8893 50.9176 15.1052 50.4383 15.5954L50.0105 16.0327L49.3069 15.7081C48.92 15.5297 48.4958 15.3829 48.3643 15.3823C47.8003 15.3791 48.3168 14.7082 49.0194 14.5312C49.4622 14.4197 49.594 14.426 49.9957 14.5774ZM30.2781 16.6722C26.4031 18.0933 27.504 23.8437 31.6504 23.841C35.5424 23.8384 36.7756 18.6057 33.3003 16.84C32.5806 16.4744 31.0495 16.3893 30.2781 16.6722ZM60.226 17.3374C60.9718 17.6461 61.4454 18.6478 61.1754 19.3453C61.1114 19.5103 60.9986 19.5118 60.3936 19.3564C60.0046 19.2564 59.5234 19.1746 59.324 19.1746C59.0222 19.1746 58.9486 19.101 58.8841 18.7343C58.8416 18.4921 58.7645 18.0965 58.7128 17.8553C58.572 17.1977 59.2927 16.951 60.226 17.3374ZM32.4961 18.7614C33.0485 19.0951 33.2682 19.503 33.2682 20.1943C33.2682 22.2234 30.2529 22.4198 29.9806 20.4086C29.7876 18.9817 31.2625 18.0159 32.4961 18.7614ZM21.0656 22.6575C21.554 22.9434 21.9056 23.647 21.8492 24.2257L21.8066 24.6619L20.2039 24.7001L18.6011 24.7382L18.5143 24.3953C18.1779 23.0671 19.836 21.9376 21.0656 22.6575ZM46.6256 22.6319C47.142 22.8965 47.4681 23.5287 47.415 24.162L47.373 24.6619L45.7825 24.7L44.1919 24.7379L44.1016 24.3815C43.7697 23.0711 45.348 21.9771 46.6256 22.6319ZM67.7363 27.1987C68.0221 27.6029 68.0358 29.7092 67.7552 30.0895C67.5646 30.3479 67.0983 30.3537 41.4416 30.4202C12.6573 30.4949 15.006 30.4148 14.8218 31.3276C14.7515 31.6754 14.8019 31.8234 15.086 32.1049L15.4368 32.4526H39.5739H63.7109V43.0208V53.5889H53.1928H42.6747L42.6312 51.3195C42.5931 49.3239 42.6173 49.0059 42.8315 48.6842C46.0554 43.8449 43.657 37.0989 37.9853 35.0523C36.4949 34.5146 33.5051 34.5146 32.0147 35.0523C26.5906 37.0096 24.2092 42.8973 26.7914 47.9664L27.3438 49.0504V51.3198V53.5889H17.1582H6.97266V43.0208V32.4526H9.52738C11.9621 32.4526 12.0969 32.4388 12.3985 32.158C12.8179 31.7674 12.8099 31.1795 12.3792 30.7529L12.0437 30.4202H7.32061C1.65744 30.4202 2.05078 30.5495 2.05078 28.6891C2.05078 27.832 2.11025 27.4156 2.26365 27.1987L2.47639 26.8975H35H67.5236L67.7363 27.1987ZM36.8505 36.8629C40.2783 37.7478 42.6281 41.2407 42.1323 44.7144C41.2873 50.6359 34.0216 52.936 29.7635 48.6299C24.8026 43.613 29.942 35.0797 36.8505 36.8629ZM34.2094 39.2457C30.5 39.8404 29.0961 44.3509 31.786 47.0307C33.5601 48.798 36.6927 48.7495 38.3522 46.9294C40.4595 44.6178 39.8404 41.0438 37.0922 39.6545C36.622 39.4167 36.2957 39.3331 35.2051 39.1707C35.0547 39.1483 34.6067 39.1821 34.2094 39.2457ZM36.2358 41.5331C38.5525 42.7044 37.6493 46.2725 35.0361 46.2725C33.4949 46.2725 32.4707 45.2718 32.4707 43.7659C32.4707 41.8177 34.4624 40.6365 36.2358 41.5331ZM12.3478 41.9378C11.7353 42.1823 11.5685 43.0393 12.0366 43.5371C12.3121 43.8302 12.3662 43.8337 16.675 43.8337H21.0349L21.3181 43.4767C21.7536 42.9281 21.5931 42.2355 20.9649 41.9517C20.5609 41.7694 12.8011 41.7568 12.3478 41.9378ZM48.3935 42.1918C47.9155 42.6655 47.8848 42.9895 48.2717 43.4767L48.555 43.8337H52.9201C57.1029 43.8337 57.2966 43.8223 57.5586 43.5627C57.9041 43.2203 57.9095 42.6037 57.5708 42.189L57.3096 41.8691L53.0543 41.8297L48.7988 41.7902L48.3935 42.1918ZM30.625 51.8575C33.2006 53.3051 37.2043 53.2219 39.7216 51.6688C40.0198 51.4848 40.3406 51.2893 40.4346 51.2343C40.5703 51.1547 40.6055 52.4464 40.6055 57.5101C40.6055 63.0534 40.5789 63.8861 40.4029 63.8861C40.2914 63.8861 39.1438 63.0618 37.8528 62.0545C36.5617 61.047 35.3667 60.1882 35.197 60.1461C34.7688 60.0396 34.576 60.1615 32.0482 62.1385C30.8191 63.0996 29.7192 63.8861 29.6041 63.8861C29.4187 63.8861 29.3945 63.1468 29.3945 57.5026V51.119L29.7021 51.3154C29.8714 51.4234 30.2866 51.6673 30.625 51.8575ZM27.3438 57.3826V59.144H14.9101H2.47639L2.26365 58.8428C1.96547 58.421 1.96547 56.3442 2.26365 55.9225L2.47639 55.6213H14.9101H27.3438V57.3826Z" fill="#EE4C1F"/>
</svg>
