<svg width="71" height="70" viewBox="0 0 71 70" fill="none" xmlns="http://www.w3.org/2000/svg">
<path fill-rule="evenodd" clip-rule="evenodd" d="M7.68388 1.11965C7.68388 2.25125 7.61816 2.37397 7.0114 2.37397C6.40561 2.37397 5.11258 3.23451 3.95782 4.40619L2.75948 5.62209L4.09445 6.941C5.49049 8.3201 6.19029 8.77944 7.1248 8.93011L7.68388 9.02033V10.1904V11.3605L9.28923 11.2998C10.5385 11.2527 11.0386 11.1742 11.5436 10.9462L12.1925 10.6533V10.9899C12.1925 11.6719 15.5735 11.3736 16.8177 10.5818C17.9121 9.88528 18.8872 8.27892 18.8872 7.17253V6.74762L20.0827 6.81387C20.7402 6.85037 21.4432 6.94775 21.6447 7.03039L22.0114 7.18079L21.7436 7.73943C21.5963 8.04671 21.4407 8.4756 21.3977 8.69267C21.3344 9.01124 21.2098 9.12032 20.7523 9.25819C19.2281 9.71711 18.0405 10.7305 17.3161 12.1901C17.0531 12.7202 16.8378 13.2598 16.8378 13.3892C16.8378 13.5469 16.6467 13.6812 16.2571 13.7971C14.4119 14.3461 12.7754 16.0314 12.4035 17.7654C12.3387 18.0672 12.2279 18.2131 12.0634 18.2131C11.9291 18.2131 11.389 18.4301 10.8632 18.6953C9.41533 19.4255 8.41004 20.6227 7.95481 22.1592C7.81941 22.6161 7.70861 22.7463 7.40311 22.8079C5.77071 23.1371 4.11399 24.7163 3.50218 26.5265L3.28617 27.1656H2.12526H0.964355L1.02693 33.6734C1.07489 38.6655 1.13965 40.502 1.30455 41.5585C2.44101 48.8365 5.23432 54.9037 9.91607 60.2636C10.4328 60.8552 10.8336 61.3546 10.8067 61.3735C10.78 61.3922 10.3276 61.6156 9.80157 61.8699C7.26088 63.098 5.49787 65.989 5.49787 68.9271V70H26.8276H48.1574L48.0649 68.7949C47.8212 65.616 46.3038 63.1811 43.7798 61.9179C43.2015 61.6286 42.7032 61.3768 42.6725 61.3583C42.6417 61.34 42.9498 60.9681 43.3574 60.5319C43.7648 60.0959 44.2624 59.5377 44.4632 59.2914C44.8118 58.8642 45.1193 58.7095 45.1193 58.9615C45.1193 59.0263 45.5958 59.5731 46.1781 60.1766C52.7289 66.9655 63.0621 67.3012 69.8485 60.9454L70.9644 59.9004L61.6099 50.454L52.2554 41.0076L52.3692 40.0435C52.4318 39.5132 52.4862 36.3988 52.4901 33.1225L52.4971 27.1656H51.3608H50.2243L49.9918 26.4217C49.5151 24.8972 48.1811 23.5442 46.5775 22.9589C45.7695 22.664 45.7591 22.6534 45.4532 21.8015C45.2834 21.3287 44.9476 20.6948 44.707 20.3931C44.19 19.7445 44.1995 19.6317 44.9197 17.9004C47.1726 12.4845 52.1928 8.37588 58.1021 7.11192C58.8469 6.95257 60.3256 6.86869 63.5638 6.80217C67.5319 6.72063 68.0596 6.68317 68.526 6.4504C71.0741 5.17859 71.0921 1.54896 68.5562 0.358548C67.67 -0.0573998 60.6956 -0.132877 58.1162 0.245609C50.2872 1.39442 43.3221 6.30867 39.7763 13.1859C39.3857 13.9434 39.0524 14.5812 39.0359 14.6033C39.0192 14.6252 38.7829 14.5107 38.5106 14.3489C38.2384 14.1869 37.73 13.9514 37.381 13.8255C36.8194 13.623 36.7267 13.5299 36.5766 13.0174C36.0911 11.3596 34.6528 9.8963 32.9476 9.3254C32.3855 9.13712 32.2688 9.03355 32.1291 8.59791C31.6246 7.02653 30.5827 5.80334 29.1385 5.08659C27.8939 4.469 25.69 4.43402 24.4661 5.01235L23.692 5.3783L22.7583 5.02654C22.0786 4.77063 21.4376 4.65232 20.4015 4.59186L18.9786 4.5088L18.8 3.62443C18.4852 2.06421 17.3612 0.765544 15.8657 0.233626C14.9424 -0.0948627 12.1925 -0.0489982 12.1925 0.294779C12.1925 0.552612 12.181 0.552612 11.5079 0.294779C10.9791 0.0921763 10.4661 0.0325387 9.25357 0.0325387H7.68388V1.11965ZM11.1677 2.63222C11.5968 2.88261 12.1864 3.78599 12.1903 4.19891C12.1966 4.87682 10.6373 4.15442 10.231 3.29126C9.73312 2.23362 10.0739 1.99397 11.1677 2.63222ZM15.7009 2.66541C16.0982 2.91222 16.7012 3.88364 16.7012 4.27686C16.7012 4.53277 15.9952 4.46693 15.5045 4.16516C14.5929 3.60501 14.0982 2.1014 14.8909 2.30097C15.0976 2.3529 15.4621 2.51693 15.7009 2.66541ZM67.9481 2.63029C68.325 3.09981 68.2854 3.76864 67.8567 4.17494L67.5044 4.5088L63.1089 4.58731C58.2791 4.67353 57.7293 4.74487 55.0946 5.62718C49.6878 7.43766 45.1145 11.6988 42.8433 17.0423C42.4026 18.0792 42.2019 18.4086 42.0317 18.3752C41.3521 18.2414 41.2043 18.0883 40.9555 17.26L40.7026 16.418L41.0272 15.6973C44.136 8.79403 50.4894 3.81973 57.7703 2.58883C59.5718 2.28417 59.7531 2.27535 63.8835 2.29078L67.687 2.3051L67.9481 2.63029ZM8.77784 5.12983L9.21162 5.68186L8.82347 6.15648C8.19007 6.93094 7.37852 6.92447 6.45083 6.13748C5.93302 5.69839 5.93971 5.51672 6.4884 5.09747C7.45489 4.35909 8.18037 4.36928 8.77784 5.12983ZM12.1396 7.229C11.9802 8.0496 11.0151 8.98507 10.3279 8.98507C9.51739 8.98507 10.3534 7.34593 11.3729 6.93604C12.0513 6.66333 12.236 6.73385 12.1396 7.229ZM16.6382 7.16013C16.4021 8.12563 15.5266 8.98507 14.7793 8.98507C14.0174 8.98507 14.8216 7.42278 15.8131 6.97653C16.5044 6.66554 16.746 6.71925 16.6382 7.16013ZM27.7816 6.93811C28.3791 7.13975 29.0389 7.63585 29.4559 8.19711C29.8798 8.76773 30.0354 9.26012 29.7922 9.26191C29.3604 9.26508 28.1124 9.99588 27.4335 10.6431C26.721 11.3225 26.6899 11.3368 26.5403 11.0549C26.3181 10.6366 24.9163 9.63144 24.2422 9.40708C23.5367 9.17238 23.5133 8.93975 24.1141 8.13499C24.9456 7.02102 26.5124 6.50976 27.7816 6.93811ZM23.8109 11.7054C24.8165 12.235 25.882 13.8057 25.2358 13.8057C24.8215 13.8057 23.5882 14.5344 22.9571 15.1518L22.3136 15.7817L21.6234 15.1309C20.9881 14.5319 19.7386 13.8102 19.3312 13.807C19.0253 13.8046 19.1507 13.2892 19.6054 12.6801C20.5841 11.3692 22.3814 10.9526 23.8109 11.7054ZM32.4616 11.5159C33.5084 11.9569 34.7811 13.57 34.2275 13.7543C33.4381 14.0172 32.4355 14.6092 31.8939 15.1324C31.1514 15.8496 31.3522 15.8496 30.6097 15.1324C30.0681 14.6092 29.0655 14.0172 28.2761 13.7543C27.7424 13.5768 28.9543 11.9815 29.9539 11.5458C30.5561 11.2831 31.8719 11.2675 32.4616 11.5159ZM19.5472 16.3219C20.5529 16.9929 21.2121 18.1282 20.6975 18.3029C19.9115 18.5695 19.1405 19.0401 18.5131 19.6361L17.7976 20.3158L17.2627 19.7602C16.6779 19.1528 15.7544 18.5606 15.1629 18.4139C14.6373 18.2834 14.6025 18.162 14.9138 17.5464C15.7228 15.9479 18.0606 15.3301 19.5472 16.3219ZM28.3195 16.2505C29.0169 16.6177 30.0249 17.7915 29.9187 18.1125C29.8947 18.1852 29.5951 18.3519 29.2528 18.4827C28.4902 18.7746 27.4753 19.4653 27.0973 19.95L26.8158 20.3107L26.0723 19.6256C25.6597 19.2455 24.9338 18.7673 24.4411 18.5508L23.5534 18.1609L23.8042 17.6705C24.6546 16.008 26.6609 15.377 28.3195 16.2505ZM37.0286 16.0853C37.6586 16.3501 38.3686 17.0238 38.6994 17.6705L38.9502 18.1609L38.0624 18.5508C37.5698 18.7673 36.8439 19.2455 36.4313 19.6256L35.6878 20.3107L35.4063 19.95C35.0283 19.4653 34.0134 18.7746 33.2508 18.4827C32.4612 18.1807 32.448 18.1212 32.9897 17.3102C33.831 16.0507 35.6408 15.5017 37.0286 16.0853ZM14.7853 20.6933C15.3564 20.9903 16.0398 21.6941 16.3392 22.2939L16.5546 22.725L15.7396 23.0246C15.192 23.2258 14.6631 23.5682 14.1276 24.068L13.3305 24.8119L12.6255 24.1447C12.2238 23.7646 11.5382 23.3097 11.0319 23.0872C10.0143 22.6403 10.0547 22.7152 10.4527 22.0138C11.3046 20.5125 13.2797 19.9106 14.7853 20.6933ZM23.6008 20.6156C24.3657 20.9378 25.709 22.4618 25.4206 22.6802C25.3966 22.6984 24.9706 22.902 24.4739 23.1325C23.9774 23.3632 23.2742 23.8386 22.9115 24.1891L22.2519 24.8262L21.7319 24.2807C21.1593 23.6799 20.2608 23.1051 19.6617 22.9565C19.1722 22.8349 19.0872 22.6105 19.3438 22.1164C20.1108 20.6395 22.0415 19.9589 23.6008 20.6156ZM32.8577 20.7954C33.5198 21.1567 34.0853 21.776 34.3192 22.396C34.439 22.714 34.4094 22.7541 33.9436 22.9032C33.2633 23.121 32.3105 23.7383 31.7428 24.3286L31.2776 24.8126L30.5587 24.1502C29.9222 23.5639 29.4628 23.2871 28.3481 22.8187L28.0404 22.6893L28.3352 22.0898C29.1234 20.487 31.2023 19.892 32.8577 20.7954ZM41.1405 20.4933C41.9154 20.7254 42.8198 21.4486 43.1569 22.106C43.416 22.6111 43.3332 22.8345 42.8419 22.9565C42.2544 23.1022 41.4057 23.6419 40.7946 24.2581L40.2454 24.8116L39.5406 24.1446C39.1392 23.7646 38.4535 23.3095 37.9475 23.0874C36.9757 22.6605 36.9398 22.555 37.4957 21.7594C38.3147 20.5871 39.7677 20.0825 41.1405 20.4933ZM10.4018 25.2715C11.0251 25.5949 11.9193 26.5955 11.9193 26.9697C11.9193 27.1332 11.412 27.1656 8.84519 27.1656C5.41835 27.1656 5.48707 27.189 6.16091 26.2512C7.14134 24.887 8.88441 24.4842 10.4018 25.2715ZM19.1791 25.1723C19.9356 25.5569 20.9366 26.6491 20.9366 27.0898C20.9366 27.1316 19.5225 27.1656 17.7942 27.1656C15.9669 27.1656 14.6518 27.1124 14.6518 27.0386C14.6518 26.8405 15.5006 25.7742 15.8893 25.484C16.7953 24.8075 18.1998 24.6744 19.1791 25.1723ZM27.8023 25.0207C28.7372 25.357 29.815 26.4125 29.8167 26.9934C29.8171 27.1261 29.1116 27.1656 26.7432 27.1656C23.394 27.1656 23.4695 27.1883 24.0216 26.3473C24.8277 25.1193 26.4724 24.5422 27.8023 25.0207ZM36.5678 24.9751C37.556 25.2518 38.8345 26.4358 38.8345 27.0744C38.8345 27.1245 37.4512 27.1656 35.7604 27.1656C32.4145 27.1656 32.4698 27.1809 32.9486 26.3896C33.6672 25.2013 35.2149 24.5965 36.5678 24.9751ZM46.1607 25.213C46.824 25.5568 47.8518 26.6784 47.8518 27.0586C47.8518 27.1174 46.4377 27.1656 44.7094 27.1656C42.9811 27.1656 41.567 27.1305 41.567 27.0876C41.567 26.702 42.523 25.5977 43.1374 25.2736C44.1237 24.7534 45.2311 24.7311 46.1607 25.213ZM50.3111 30.4711V31.573H26.7432H3.17523V30.4711V29.3693H26.7432H50.3111V30.4711ZM50.3111 36.3166C50.3111 37.6378 50.2607 38.7502 50.1992 38.7885C50.1377 38.8269 49.3858 38.1491 48.5287 37.2824L46.9699 35.7067L46.1648 36.4977C41.2021 41.3733 39.9289 49.3267 43.0896 55.708L43.6172 56.7733L42.8467 57.7051C42.4229 58.2178 41.5479 59.1796 40.9022 59.8423L39.7283 61.0475H26.7274H13.7264L12.5711 59.8235C6.44359 53.3325 3.52158 46.089 3.21909 36.6411L3.13192 33.9144H26.7214H50.3111V36.3166ZM47.8299 39.7457L48.5502 40.481L47.8662 41.4822C46.4771 43.515 45.8949 45.4826 45.8875 48.1696C45.8598 58.3705 57.0784 64.4902 65.3904 58.8084L66.1924 58.2601L66.945 59.0187C67.821 59.9018 67.83 59.8681 66.4695 60.7935C58.1929 66.4238 46.7039 61.9024 44.0584 51.9736C43.5618 50.1097 43.529 46.4291 43.9936 44.7108C44.5262 42.7413 45.4027 40.9161 46.4495 39.5958C47.0256 38.8693 46.965 38.8627 47.8299 39.7457ZM52.4922 44.4459C53.7277 45.6931 54.7107 46.7395 54.6767 46.7712C54.6427 46.803 53.17 47.3571 51.4041 48.0027L48.1934 49.1761L48.1506 48.1219C48.098 46.8275 48.3004 45.7068 48.8083 44.4809C49.2022 43.5297 49.9933 42.1783 50.1561 42.1783C50.2055 42.1783 51.2567 43.1987 52.4922 44.4459ZM57.3686 49.3747L58.2019 50.2356L56.7653 54.1953C55.8877 56.6143 55.2594 58.1551 55.1508 58.1551C55.0529 58.1551 54.4004 57.8626 53.7008 57.5049C51.8071 56.537 50.2138 54.9038 49.232 52.9245C48.8384 52.1308 48.5665 51.4615 48.6281 51.437C49.0015 51.2888 56.4042 48.5412 56.4632 48.5289C56.5029 48.5207 56.9104 48.9014 57.3686 49.3747ZM62.3161 54.3493L64.5492 56.6037L64.0895 56.9573C63.3547 57.5221 61.6554 58.2773 60.6223 58.4979C59.4087 58.757 57.497 58.7797 57.5837 58.5339C58.5589 55.7673 59.9366 52.0949 59.9995 52.0949C60.0454 52.0949 61.0878 53.1095 62.3161 54.3493ZM41.4147 63.3972C43.0878 63.786 44.8215 65.2561 45.3793 66.7592C45.5368 67.1838 45.6658 67.5908 45.6658 67.6638C45.6658 67.7481 38.7722 67.7963 26.734 67.7963H7.80206L7.89278 67.4864C8.48136 65.4753 10.062 63.9141 11.9876 63.4421C12.8731 63.225 40.4926 63.1829 41.4147 63.3972Z" fill="#EE4C1F"/>
</svg>
