<svg width="71" height="70" viewBox="0 0 71 46" fill="none" xmlns="http://www.w3.org/2000/svg">
<path fill-rule="evenodd" clip-rule="evenodd" d="M49.1529 0.066859C47.045 0.605897 45.788 2.20503 45.775 4.36379L45.7678 5.55429L45.2527 5.71969C43.5517 6.26601 42.3824 7.95079 42.3831 9.85438L42.3836 11.0446L41.868 11.2101C40.1666 11.7566 38.9973 13.4411 38.998 15.345L38.9985 16.5352L38.4829 16.7007C36.7818 17.2472 35.6122 18.9317 35.6129 20.835L35.6133 22.0249L34.8778 22.3216C34.0061 22.6732 33.1338 23.4562 32.7072 24.2699L32.3997 24.8566L31.7715 24.1726C31.4261 23.7963 30.5048 22.7474 29.7242 21.8414C23.0174 14.0573 15.8216 9.8983 7.40409 8.94102C3.75015 8.52552 2.73419 8.66882 1.61555 9.75747C0.723293 10.6258 0.5625 11.14 0.5625 13.1251C0.5625 15.1087 0.723434 15.6237 1.61555 16.4957C2.46183 17.3228 2.93546 17.469 5.12055 17.5776C11.7195 17.9055 17.7204 21.278 22.7212 27.4693C23.148 27.9977 24.3443 29.5729 25.3796 30.9695C32.2388 40.2232 36.4723 44.2169 40.9723 45.6792C41.9528 45.9978 42.0063 46 48.8003 46C54.0636 46 55.8687 45.9561 56.6284 45.8096C64.5411 44.2843 70.1106 38.0012 70.4825 30.1803L70.5625 28.4988H69.1197C68.0201 28.4988 67.6946 28.458 67.7509 28.3272C68.8477 25.7793 67.9475 23.3421 65.5256 22.3019L64.8085 21.9941L64.8088 20.8196C64.8092 18.9337 63.8993 17.5667 62.1405 16.8114L61.4234 16.5035L61.4237 15.329C61.4241 13.4432 60.5142 12.0761 58.7554 11.3208L58.0383 11.0129L58.0386 9.83846C58.039 7.95258 57.1291 6.58556 55.3705 5.83033L54.6538 5.52244L54.6511 4.34801C54.6457 1.92762 52.9524 0.153199 50.5143 0.0126399C49.9984 -0.0170093 49.3857 0.00728613 49.1529 0.066859ZM51.4468 2.51072C52.7214 3.43698 52.7845 5.34414 51.5602 5.94357C51.3222 6.06011 50.9241 6.34328 50.6753 6.57307L50.2228 6.99076L49.6682 6.50306C49.3632 6.23498 48.9786 5.97377 48.8136 5.92284C48.1731 5.72504 47.7763 4.40278 48.1045 3.55983C48.5941 2.30208 50.3855 1.7397 51.4468 2.51072ZM48.0617 8.0013C49.3363 8.92757 49.3994 10.8347 48.1751 11.4342C47.9371 11.5507 47.539 11.8339 47.2901 12.0637L46.8377 12.4813L46.2831 11.9936C45.9781 11.7256 45.5935 11.4644 45.4285 11.4134C44.788 11.2156 44.3912 9.89336 44.7194 9.05042C45.209 7.79266 47.0004 7.23029 48.0617 8.0013ZM54.8319 8.0013C56.1065 8.92757 56.1696 10.8347 54.9453 11.4342C54.7073 11.5507 54.3092 11.8339 54.0604 12.0637L53.6079 12.4813L53.0533 11.9936C52.7484 11.7256 52.3637 11.4644 52.1987 11.4134C51.5582 11.2156 51.1614 9.89336 51.4897 9.05042C51.9792 7.79266 53.7707 7.23029 54.8319 8.0013ZM6.73878 11.0741C14.908 11.9401 21.2647 15.5904 27.999 23.2827C31.3444 27.1041 33.0081 28.5671 35.1888 29.6057C37.4663 30.6902 36.2125 30.6163 53.1391 30.6622L68.268 30.7032L68.2035 31.008C68.1681 31.1756 68.0977 31.6215 68.0472 31.999C67.5101 36.0085 64.2514 40.3225 60.2956 42.2602C57.3063 43.7246 56.2542 43.8712 48.7242 43.8718C41.2902 43.8725 40.8738 43.785 37.891 41.5938C34.7569 39.2915 32.5627 36.7898 25.6772 27.6695C19.659 19.6979 13.1603 15.8151 5.08515 15.3662C2.86621 15.243 2.81924 15.1964 2.81924 13.1251C2.81924 10.8145 3.0672 10.6848 6.73878 11.0741ZM44.6766 13.4919C45.9512 14.4182 46.0142 16.3253 44.79 16.9247C44.552 17.0413 44.1538 17.3245 43.905 17.5542L43.4526 17.9719L42.898 17.4842C42.593 17.2162 42.2084 16.9549 42.0434 16.904C41.4029 16.7062 41.0061 15.3839 41.3343 14.541C41.8239 13.2832 43.6153 12.7209 44.6766 13.4919ZM51.4468 13.4919C52.7214 14.4182 52.7845 16.3253 51.5602 16.9247C51.3222 17.0413 50.9241 17.3245 50.6753 17.5542L50.2228 17.9719L49.6682 17.4842C49.3632 17.2162 48.9786 16.9549 48.8136 16.904C48.1731 16.7062 47.7763 15.3839 48.1045 14.541C48.5941 13.2832 50.3855 12.7209 51.4468 13.4919ZM58.217 13.4919C59.4916 14.4182 59.5547 16.3253 58.3304 16.9247C58.0925 17.0413 57.6943 17.3245 57.4455 17.5542L56.993 17.9719L56.4384 17.4842C56.1335 17.2162 55.7488 16.9549 55.5838 16.904C54.9433 16.7062 54.5466 15.3839 54.8748 14.541C55.3643 13.2832 57.1558 12.7209 58.217 13.4919ZM41.2915 18.9825C42.5661 19.9087 42.6291 21.8159 41.4048 22.4153C41.1669 22.5319 40.7687 22.815 40.5199 23.0448L40.0674 23.4625L39.5129 22.9748C39.2079 22.7067 38.8233 22.4455 38.6583 22.3946C38.0178 22.1968 37.621 20.8745 37.9492 20.0316C38.4388 18.7738 40.2302 18.2115 41.2915 18.9825ZM48.0617 18.9825C49.3363 19.9087 49.3994 21.8159 48.1751 22.4153C47.9371 22.5319 47.539 22.815 47.2901 23.0448L46.8377 23.4625L46.2831 22.9748C45.9781 22.7067 45.5935 22.4455 45.4285 22.3946C44.788 22.1968 44.3912 20.8745 44.7194 20.0316C45.209 18.7738 47.0004 18.2115 48.0617 18.9825ZM54.8319 18.9825C56.1065 19.9087 56.1696 21.8159 54.9453 22.4153C54.7073 22.5319 54.3092 22.815 54.0604 23.0448L53.6079 23.4625L53.0533 22.9748C52.7484 22.7067 52.3637 22.4455 52.1987 22.3946C51.5582 22.1968 51.1614 20.8745 51.4897 20.0316C51.9792 18.7738 53.7707 18.2115 54.8319 18.9825ZM61.6021 18.9825C62.8767 19.9087 62.9398 21.8159 61.7155 22.4153C61.4776 22.5319 61.0794 22.815 60.8306 23.0448L60.3781 23.4625L59.8235 22.9748C59.5186 22.7067 59.1339 22.4455 58.9689 22.3946C58.3284 22.1968 57.9317 20.8745 58.2599 20.0316C58.7495 18.7738 60.5409 18.2115 61.6021 18.9825ZM37.563 24.2935C38.9649 24.8636 39.3543 26.6575 38.31 27.735C37.8635 28.1958 37.8237 28.2089 37.2931 28.0666C35.919 27.6984 34.4136 26.7412 34.4136 26.2358C34.4136 24.7413 36.1025 23.6996 37.563 24.2935ZM44.3333 24.2935C45.7824 24.8828 46.1357 26.7318 45.0087 27.8286C43.4241 29.3708 40.8273 27.9895 41.2442 25.8261C41.4934 24.5339 43.0387 23.7671 44.3333 24.2935ZM51.1035 24.2935C52.5526 24.8828 52.9059 26.7318 51.7789 27.8286C50.1943 29.3708 47.5975 27.9895 48.0144 25.8261C48.2636 24.5339 49.809 23.7671 51.1035 24.2935ZM57.8737 24.2935C59.3228 24.8828 59.6761 26.7318 58.5492 27.8286C56.9645 29.3708 54.3677 27.9895 54.7846 25.8261C55.0339 24.5339 56.5792 23.7671 57.8737 24.2935ZM64.6439 24.2935C66.093 24.8828 66.4464 26.7318 65.3194 27.8286C63.7347 29.3708 61.1379 27.9895 61.5549 25.8261C61.8041 24.5339 63.3494 23.7671 64.6439 24.2935ZM62.3946 34.4983C60.575 37.5584 57.1221 39.4799 53.4424 39.4799H52.4675V40.5985V41.7169L54.0543 41.6357C57.403 41.4642 60.156 40.2837 62.4226 38.0474C63.3629 37.1195 64.8796 34.9748 64.8796 34.5727C64.8796 34.4368 63.2401 33.5775 62.981 33.5775C62.9595 33.5775 62.6958 33.992 62.3946 34.4983ZM47.9541 40.578V41.6762H49.0824H50.2108V40.578V39.4799H49.0824H47.9541V40.578Z" fill="#EE4C1F"/>
</svg>
