<svg width="156" height="144" viewBox="0 0 156 144" fill="none" xmlns="http://www.w3.org/2000/svg">
<path d="M77.4674 95.2062L77.0243 95.0954C72.4274 93.7108 68.1074 91.5508 64.1751 88.7816C52.5443 80.4739 45.6212 67.0154 45.6212 52.7262V38.7693H47.0612C50.2735 38.7693 52.8766 36.1662 52.8766 32.9539V31.4585H102.058V32.8985C102.058 36.1108 104.661 38.7139 107.873 38.7139H109.313V52.6708C109.313 66.9046 102.39 80.4185 90.7597 88.7262C86.8274 91.5508 82.5073 93.6554 77.9104 95.04L77.4674 95.2062ZM48.5012 41.4831V52.6708C48.5012 66.0185 54.9812 78.5908 65.8366 86.3446C69.3812 88.8923 73.3135 90.8308 77.412 92.16C81.5658 90.8862 85.4427 88.8923 88.9873 86.3446C99.8427 78.5908 106.323 66.0185 106.323 52.6708V41.4831C102.667 40.8739 99.7873 37.9939 99.1781 34.3385H55.5904C55.0366 37.9939 52.1566 40.8739 48.5012 41.4831Z" fill="#EE4C1F"/>
<path d="M77.4674 86.7877L77.1905 86.6769C74.2551 85.5692 71.4305 84.0738 68.8274 82.1907C59.3013 75.3784 53.5967 64.3569 53.5967 52.6708V45.4154H54.3167C57.1967 45.4154 59.5782 43.0338 59.5782 40.1538V39.4338H95.3013V40.1538C95.3013 43.0338 97.6828 45.4154 100.563 45.4154H101.283V52.6708C101.283 64.3569 95.5782 75.3784 86.0521 82.1907C83.449 84.0738 80.6244 85.5692 77.689 86.6769L77.4674 86.7877ZM55.0367 46.8554V52.7261C55.0367 63.9692 60.5198 74.5477 69.6582 81.0831C72.0951 82.8 74.6982 84.24 77.4674 85.2923C80.2367 84.24 82.8397 82.8554 85.2767 81.0831C94.4151 74.5477 99.8982 63.9138 99.8982 52.7261V46.8554C96.7967 46.5231 94.3043 44.0308 93.972 40.9292H61.0736C60.6305 44.0308 58.1936 46.5231 55.0367 46.8554Z" fill="#EE4C1F"/>
<path d="M99.0121 11.6308C98.7352 11.9077 98.4583 12.1846 98.1814 12.4615C97.9598 11.7415 97.2952 11.2431 96.5198 11.2431C95.5783 11.2431 94.7475 12.0185 94.7475 13.0154C94.7475 14.0123 95.5229 14.7877 96.5198 14.7877C96.5752 14.7877 96.1875 15.5077 95.9106 15.9508C94.9691 17.3908 93.9168 18.2769 92.4214 18.2769C90.3722 18.2769 88.766 16.6154 88.766 14.6215C88.766 14.0123 88.8768 13.0708 89.3198 12.24C89.486 11.8523 89.8183 11.6308 90.206 11.52C90.9814 11.2431 91.5906 10.4677 91.5906 9.58154C91.5906 8.30769 90.4275 7.31077 89.1537 7.58769C88.3783 7.75385 87.7137 8.36307 87.5475 9.13846C87.4368 9.63692 87.5475 10.1354 87.7137 10.5231C87.8798 10.9108 87.9906 11.2985 87.8798 11.6862C87.326 13.9015 85.5537 15.6185 83.6152 15.6185C80.0706 15.5631 79.0183 12.7938 78.9075 10.5231C79.406 10.7446 79.9599 10.8554 80.5691 10.7446C81.6214 10.5231 82.4521 9.63692 82.6183 8.58461C82.8398 7.03384 81.7322 5.64923 80.1814 5.53846C80.1814 5.37231 80.1814 5.20616 80.1814 5.04C80.1814 3.04616 79.2952 1.21846 77.9106 0C76.526 1.21846 75.6398 3.04616 75.6398 5.04C75.6398 5.20616 75.6398 5.37231 75.6398 5.53846C74.1445 5.64923 72.9814 7.03384 73.2029 8.58461C73.3691 9.63692 74.1999 10.5231 75.2522 10.7446C75.8614 10.8554 76.4152 10.8 76.9137 10.5231C76.8029 12.7938 75.7506 15.5631 72.206 15.6185C70.2122 15.6738 68.4952 13.9569 67.9414 11.6862C67.8306 11.2985 67.886 10.8554 68.1075 10.5231C68.3291 10.1354 68.3845 9.63692 68.2737 9.13846C68.1075 8.36307 67.4429 7.69846 66.6675 7.58769C65.3383 7.31077 64.2306 8.30769 64.2306 9.58154C64.2306 10.4677 64.7845 11.2431 65.6152 11.52C66.0029 11.6308 66.3352 11.9077 66.5014 12.24C66.9445 13.0708 67.0552 14.0677 67.0552 14.6215C67.0552 16.6708 65.3937 18.2769 63.3999 18.2769C61.8491 18.2769 60.7968 17.3354 59.9106 15.9508C59.6337 15.5077 59.3014 14.7877 59.3014 14.7877C60.2983 14.7877 61.0737 13.9569 61.0737 13.0154C61.0737 12.0738 60.2429 11.2431 59.3014 11.2431C58.526 11.2431 57.8614 11.7415 57.6399 12.4615C57.3629 12.1846 57.1414 11.9077 56.8091 11.6308C56.0337 10.9661 55.0922 10.4123 54.0399 10.3569L62.6245 26.7508H77.7999H77.9106H93.2522L101.837 10.3569C100.784 10.4123 99.8429 10.9661 99.0121 11.6308Z" fill="#EE4C1F"/>
<path d="M31.8859 138.517H0.31665V139.957H31.8859V138.517Z" fill="#EE4C1F"/>
<path d="M148.969 138.517H117.4V139.957H148.969V138.517Z" fill="#EE4C1F"/>
<path d="M77.1906 99.6924C75.5844 99.8031 73.9783 99.637 72.4275 99.36C70.8767 99.0831 69.326 98.64 67.7752 98.197C64.729 97.2554 61.7937 95.9816 58.9137 94.6524C53.1537 91.9939 47.6152 88.837 42.1875 85.68L40.1383 84.517C38.3106 83.4647 36.3167 82.8001 34.1567 83.077C33.4921 83.1324 32.8829 83.2985 32.3844 83.5201C31.8306 83.797 31.3321 84.1293 30.889 84.5724C30.0029 85.4585 29.3937 86.7324 29.2829 88.0616C29.1721 89.3908 29.7814 90.8308 30.889 91.7724C31.9967 92.7139 33.6029 93.1016 34.9875 92.6031C36.4275 92.1047 37.0367 90.4985 36.9813 89.1139C36.926 88.3939 36.8706 87.397 35.929 86.1231C36.0952 85.8462 36.8152 85.9016 37.1475 85.9016C37.8675 86.0124 38.5875 86.5108 39.0306 87.1201C39.7506 88.0616 39.9721 89.3908 39.5844 90.4985C38.9198 92.437 35.8737 93.8216 32.7167 93.3785C31.886 93.2677 31.0552 92.9354 30.3352 92.437C28.8952 91.4954 27.8429 89.9447 27.566 88.117C27.289 86.2893 27.7875 84.4062 28.9506 82.8554C29.5044 82.0801 30.2798 81.4708 31.1106 80.9724C34.3783 79.1447 38.366 80.3077 41.4121 82.0801L43.4614 83.2985C48.889 86.5662 54.206 89.8893 59.7444 92.88C62.5137 94.3754 65.2829 95.76 68.2183 96.9785C71.0983 98.1416 74.089 99.1939 77.246 99.4154L77.1906 99.6924Z" fill="#EE4C1F"/>
<path d="M35.8183 96.8677C33.7137 97.3662 31.4983 97.0892 29.3383 96.48C25.0183 95.3169 20.9198 93.1016 16.5444 91.2185C15.4367 90.7754 14.329 90.3323 13.166 89.9446C10.8952 89.2246 8.51367 88.5046 6.13213 88.5046C3.58444 88.56 0.981361 89.7785 0.205977 92.3816C-0.181715 93.7108 -0.0155596 95.2062 0.649056 96.48C1.25829 97.6431 2.42136 98.5293 3.69521 98.8616C5.19059 99.2493 7.18444 99.0277 8.01521 97.5877C8.29213 97.1446 8.4029 96.5908 8.4029 96.0369C8.4029 95.6493 8.29213 95.0954 7.84905 94.6523C6.35367 96.8123 3.08597 97.5323 1.14751 95.5939C0.759821 95.2062 0.482902 94.7077 0.372133 94.2092C0.205979 93.6554 0.261363 93.0462 0.427516 92.4923C0.649055 91.7723 1.14751 91.1077 1.70136 90.6093C2.31059 90.0554 2.97521 89.8339 3.80598 89.6677C5.68905 89.3908 7.35059 89.9446 9.01212 90.72C11.1167 91.6616 13.1106 92.8246 15.2152 93.877C17.3198 94.9293 19.4798 95.9262 21.6952 96.8677C23.9106 97.7539 26.2367 98.5292 28.729 98.9723C29.9475 99.1385 31.2214 99.2492 32.4952 99.1939C32.8275 99.1939 33.1598 99.1385 33.4367 99.0831C33.769 99.0277 34.046 99.0277 34.3783 98.9169L35.3198 98.6954L36.206 98.3631C38.6429 97.3662 40.3598 95.3169 41.246 93.1569C39.806 94.9846 37.9229 96.4246 35.8183 96.8677Z" fill="#EE4C1F"/>
<path d="M20.0889 88.5598C18.4828 87.9506 16.8766 87.2306 15.3259 86.6214C13.7751 86.0122 12.1689 85.4029 10.5628 85.0152C8.95664 84.6275 7.35049 84.406 5.74434 84.5721C4.13818 84.6829 2.58741 85.2368 1.14741 86.1783C1.09203 86.2337 1.03665 86.1783 0.981262 86.1229C0.981262 86.0675 0.981262 86.0121 0.981262 85.9568C2.03357 84.5168 3.75049 83.5752 5.57818 83.1875C7.40587 82.8552 9.28895 83.0214 11.0059 83.5198C12.7228 83.9629 14.3289 84.6829 15.8797 85.5137C17.4305 86.3445 18.8705 87.286 20.2551 88.3383C20.3105 88.3937 20.3105 88.4491 20.2551 88.5045C20.1997 88.5598 20.1443 88.6152 20.0889 88.5598Z" fill="#EE4C1F"/>
<path d="M39.1412 57.2124C36.4827 52.2831 35.8181 47.2431 35.8181 47.2431C35.7627 47.1324 34.4335 50.5108 34.2673 53.3908C34.1012 55.1631 34.1012 56.9354 34.2673 58.7631C34.4335 60.5354 34.7104 62.3077 35.2089 64.08C35.4304 64.9662 35.7073 65.797 36.0396 66.6277C36.4273 67.4585 36.8704 68.2339 37.4796 68.9539C37.8119 69.3416 38.0889 69.7293 38.4212 70.117C37.4242 67.0154 36.5935 63.0831 36.8704 58.8739C36.8704 58.8739 39.9165 72.8862 44.2919 78.0923C46.6181 80.8616 48.0027 82.2462 50.3288 83.7416C48.3904 81.8031 46.4519 79.3108 44.7904 76.7631C41.6889 72 45.6765 69.2308 39.1412 57.2124Z" fill="#EE4C1F"/>
<path d="M16.5445 72.7199C11.3383 70.6707 6.18754 70.6707 6.18754 70.6707C6.07677 70.6707 9.28908 68.8984 12.1137 68.3445C13.8306 67.9568 15.6583 67.7353 17.4306 67.6799C19.2029 67.6245 21.0306 67.6799 22.8029 67.9014C23.6891 68.0122 24.5752 68.123 25.4614 68.3999C26.3475 68.6768 27.1783 69.0645 27.9537 69.5076C28.3968 69.7845 28.8398 70.006 29.2275 70.283C26.0706 69.7291 22.0275 69.3968 17.8737 70.1722C17.8737 70.1722 32.1629 71.3907 37.8675 75.1014C40.9137 77.0399 42.4644 78.2583 44.2368 80.363C42.0768 78.7014 39.3629 77.0953 36.5937 75.766C31.5537 73.4399 29.3383 77.7045 16.5445 72.7199Z" fill="#EE4C1F"/>
<path d="M77.9105 99.6924C79.5166 99.8031 81.1228 99.637 82.6736 99.36C84.2243 99.0831 85.7751 98.64 87.3259 98.197C90.372 97.2554 93.3074 95.9816 96.1874 94.6524C101.947 91.9939 107.486 88.837 112.914 85.68L114.963 84.517C116.79 83.4647 118.784 82.8001 120.944 83.077C121.609 83.1324 122.218 83.2985 122.717 83.5201C123.27 83.797 123.769 84.1293 124.212 84.5724C125.098 85.4585 125.707 86.7324 125.818 88.0616C125.929 89.3908 125.32 90.8308 124.212 91.7724C123.104 92.7139 121.498 93.1016 120.114 92.6031C118.674 92.1047 118.064 90.4985 118.12 89.1139C118.175 88.3939 118.23 87.397 119.172 86.1231C119.006 85.8462 118.286 85.9016 117.954 85.9016C117.234 86.0124 116.514 86.5108 116.07 87.1201C115.35 88.0616 115.129 89.3908 115.517 90.4985C116.181 92.437 119.227 93.8216 122.384 93.3785C123.215 93.2677 124.046 92.9354 124.766 92.437C126.206 91.4954 127.258 89.9447 127.535 88.117C127.812 86.2893 127.314 84.4062 126.15 82.8554C125.597 82.0801 124.821 81.4708 123.99 80.9724C120.723 79.1447 116.735 80.3077 113.689 82.0801L111.64 83.2985C106.212 86.5662 100.895 89.8893 95.3566 92.88C92.5874 94.3754 89.8182 95.76 86.8828 96.9785C84.0028 98.1416 81.012 99.1939 77.8551 99.4154L77.9105 99.6924Z" fill="#EE4C1F"/>
<path d="M119.283 96.8677C121.387 97.3662 123.603 97.0892 125.763 96.48C130.083 95.3169 134.181 93.1016 138.556 91.2185C139.664 90.7754 140.772 90.3323 141.935 89.9446C144.206 89.2246 146.587 88.5046 148.969 88.5046C151.516 88.56 154.12 89.7785 154.895 92.3816C155.283 93.7108 155.116 95.2062 154.452 96.48C153.843 97.6431 152.68 98.5293 151.406 98.8616C149.91 99.2493 147.917 99.0277 147.086 97.5877C146.809 97.1446 146.698 96.5908 146.698 96.0369C146.698 95.6493 146.809 95.0954 147.252 94.6523C148.747 96.8123 152.015 97.5323 153.953 95.5939C154.341 95.2062 154.618 94.7077 154.729 94.2092C154.895 93.6554 154.84 93.0462 154.673 92.4923C154.452 91.7723 153.953 91.1077 153.4 90.6093C152.79 90.0554 152.126 89.8339 151.295 89.6677C149.412 89.3908 147.75 89.9446 146.089 90.72C143.984 91.6616 141.99 92.8246 139.886 93.877C137.781 94.9293 135.621 95.9262 133.406 96.8677C131.19 97.7539 128.864 98.5292 126.372 98.9723C125.153 99.1385 123.88 99.2492 122.606 99.1939C122.273 99.1939 121.941 99.1385 121.664 99.0831C121.332 99.0277 121.055 99.0277 120.723 98.9169L119.781 98.6954L118.895 98.3631C116.458 97.3662 114.741 95.3169 113.855 93.1569C115.295 94.9846 117.178 96.4246 119.283 96.8677Z" fill="#EE4C1F"/>
<path d="M134.957 88.5598C136.563 87.9506 138.169 87.2306 139.72 86.6214C141.271 86.0122 142.877 85.4029 144.483 85.0152C146.089 84.6275 147.695 84.406 149.301 84.5721C150.908 84.6829 152.458 85.2368 153.898 86.1783C153.954 86.2337 154.009 86.1783 154.064 86.1229C154.064 86.0675 154.064 86.0121 154.064 85.9568C153.012 84.5168 151.295 83.5752 149.468 83.1875C147.64 82.8552 145.757 83.0214 144.04 83.5198C142.323 83.9629 140.717 84.6829 139.166 85.5137C137.615 86.3445 136.175 87.286 134.791 88.3383C134.735 88.3937 134.735 88.4491 134.791 88.5045C134.846 88.5598 134.957 88.6152 134.957 88.5598Z" fill="#EE4C1F"/>
<path d="M115.96 57.2124C118.618 52.2831 119.283 47.2431 119.283 47.2431C119.338 47.1324 120.667 50.5108 120.833 53.3908C121 55.1631 121 56.9354 120.833 58.7631C120.667 60.5354 120.39 62.3077 119.892 64.08C119.67 64.9662 119.393 65.797 119.061 66.6277C118.673 67.4585 118.23 68.2339 117.621 68.9539C117.289 69.3416 117.012 69.7293 116.68 70.117C117.677 67.0154 118.507 63.0831 118.23 58.8739C118.23 58.8739 115.184 72.8862 110.809 78.0923C108.483 80.8616 107.098 82.2462 104.772 83.7416C106.71 81.8031 108.649 79.3108 110.31 76.7631C113.357 72 109.424 69.2308 115.96 57.2124Z" fill="#EE4C1F"/>
<path d="M138.501 72.7199C143.707 70.6707 148.858 70.6707 148.858 70.6707C148.969 70.6707 145.757 68.8984 142.932 68.3445C141.215 67.9568 139.387 67.7353 137.615 67.6799C135.843 67.6245 134.015 67.6799 132.243 67.9014C131.357 68.0122 130.471 68.123 129.584 68.3999C128.698 68.6768 127.867 69.0645 127.092 69.5076C126.649 69.7845 126.206 70.006 125.818 70.283C128.975 69.7291 133.018 69.3968 137.172 70.1722C137.172 70.1722 122.883 71.3907 117.178 75.1014C114.132 77.0399 112.581 78.2583 110.809 80.363C112.969 78.7014 115.683 77.0953 118.452 75.766C123.547 73.4399 125.763 77.7045 138.501 72.7199Z" fill="#EE4C1F"/>
<path d="M68.6615 97.2554C70.4338 98.0308 73.6461 99.1385 77.7999 99.0831C81.7322 99.0277 84.7784 97.9754 86.5507 97.2554V98.4738C84.4461 99.1385 81.3999 100.135 77.6891 100.191C73.8676 100.191 70.7107 99.1385 68.6061 98.4738C68.6061 98.4185 68.6061 98.4184 68.6615 97.2554Z" fill="#EE4C1F"/>
<path d="M17.8173 124.964C15.3361 124.964 13.3976 124.228 12.0019 122.754C10.6062 121.281 9.90839 119.188 9.90839 116.474C9.90839 114.69 10.2108 113.163 10.8156 111.891C11.4359 110.604 12.2966 109.635 13.3976 108.984C14.5142 108.317 15.8013 107.983 17.259 107.983C18.143 107.983 19.0347 108.239 19.9341 108.751C20.2753 108.937 20.6164 109.185 20.9576 109.495C21.2212 109.092 21.4926 108.774 21.7718 108.542C22.0509 108.34 22.206 108.232 22.237 108.216H22.8185V112.636H21.8881C21.6865 111.891 21.3841 111.217 20.9809 110.612C20.6087 110.023 20.1435 109.534 19.5852 109.146C19.0424 108.759 18.4144 108.565 17.701 108.565C16.631 108.565 15.7393 109.185 15.0259 110.426C14.3281 111.666 13.9792 113.682 13.9792 116.474C13.9792 119.312 14.3591 121.343 15.119 122.568C15.8944 123.778 16.9489 124.383 18.2825 124.383C19.0114 124.383 19.7015 124.181 20.3528 123.778C21.0196 123.359 21.5547 122.809 21.9579 122.126C22.3766 121.444 22.5859 120.723 22.5859 119.963H23.1675C23.1675 120.847 22.9271 121.677 22.4464 122.452C21.9811 123.212 21.3376 123.825 20.5156 124.29C19.7092 124.739 18.8098 124.964 17.8173 124.964Z" fill="#EE4C1F"/>
<path d="M25.1538 124.615V124.266L26.5495 123.918V109.03L25.1538 108.681V108.332H40.6227V108.681L39.227 109.03V123.918L40.6227 124.266V124.615H33.9932V124.266L35.3888 123.918V108.914H30.3876V123.918L31.7833 124.266V124.615H25.1538Z" fill="#EE4C1F"/>
<path d="M42.9407 124.266L44.3364 123.918V109.03L42.9407 108.681V108.332H49.4539C52.0282 108.332 53.8736 108.759 54.9901 109.612C56.1067 110.449 56.665 111.69 56.665 113.334C56.665 114.977 56.1067 116.226 54.9901 117.079C53.8736 117.916 52.0282 118.335 49.4539 118.335H48.1745V123.918L49.5702 124.266V124.615H42.9407V124.266ZM49.4539 117.753C50.4309 117.753 51.214 117.381 51.8033 116.637C52.4081 115.892 52.7105 114.791 52.7105 113.334C52.7105 111.891 52.4081 110.798 51.8033 110.054C51.214 109.294 50.4309 108.914 49.4539 108.914H48.1745V117.753H49.4539Z" fill="#EE4C1F"/>
<path d="M55.3738 124.266L57.2347 123.569L63.6316 108.1H64.3295L70.959 123.918L72.1221 124.266V124.615H69.3307C68.5243 124.615 67.8652 124.437 67.3535 124.08C66.8417 123.708 66.4618 123.227 66.2136 122.638L65.0273 119.847H59.4678L57.9325 123.569L59.6772 124.266V124.615H55.3738V124.266ZM59.7004 119.265H64.7947L62.2359 113.147L59.7004 119.265Z" fill="#EE4C1F"/>
<path d="M72.8126 124.266L74.2083 123.918V109.03L72.8126 108.681V108.332H79.0933C81.4504 108.332 83.1795 108.712 84.2806 109.472C85.3971 110.217 85.9554 111.193 85.9554 112.403C85.9554 113.241 85.715 113.915 85.2343 114.427C84.7536 114.939 84.141 115.319 83.3967 115.567C82.6058 115.846 81.7528 115.993 80.8379 116.009V116.125C81.9699 116.171 82.9547 116.342 83.7921 116.637C84.645 116.916 85.3506 117.35 85.9089 117.939C86.4827 118.529 86.7696 119.281 86.7696 120.196C86.7696 121.576 86.2035 122.661 85.0715 123.452C83.9394 124.228 82.1018 124.615 79.5585 124.615H72.8126V124.266ZM79.0933 115.776C79.605 115.776 80.078 115.636 80.5122 115.357C80.9619 115.063 81.3186 114.659 81.5823 114.148C81.8614 113.62 82.001 113.039 82.001 112.403C82.001 111.721 81.8614 111.116 81.5823 110.589C81.3186 110.061 80.9619 109.65 80.5122 109.356C80.078 109.061 79.605 108.914 79.0933 108.914H78.0465V115.776H79.0933ZM79.5585 124.034C80.52 124.034 81.3031 123.693 81.9079 123.01C82.5127 122.328 82.8151 121.39 82.8151 120.196C82.8151 119.002 82.5127 118.063 81.9079 117.381C81.3031 116.699 80.52 116.358 79.5585 116.358H78.0465V124.034H79.5585Z" fill="#EE4C1F"/>
<path d="M87.3493 124.266L88.5124 123.918L90.6059 117.753C91.0401 116.435 92.2032 115.776 94.0951 115.776H94.6534C94.6069 115.776 94.4906 115.698 94.3045 115.543C94.1184 115.373 93.9168 115.117 93.6997 114.776C93.4826 114.419 93.3042 113.977 93.1647 113.45L92.3505 110.426C92.2265 109.976 92.0481 109.612 91.8155 109.333C91.5829 109.038 91.3348 108.86 91.0711 108.798V112.054L90.7687 112.124C90.5206 112.155 90.3113 112.17 90.1407 112.17C89.6134 112.17 89.1714 111.992 88.8148 111.635C88.4581 111.263 88.2797 110.783 88.2797 110.193C88.2797 109.588 88.4969 109.092 88.9311 108.705C89.3653 108.301 89.9236 108.1 90.6059 108.1C91.1952 108.1 91.6992 108.309 92.1179 108.728C92.5521 109.146 92.8623 109.713 93.0484 110.426L93.8625 113.45C94.2502 114.923 95.0256 115.66 96.1887 115.66H97.2354V109.03L95.8397 108.681V108.332H102.469V108.681L101.074 109.03V115.66H102.12C103.283 115.66 104.059 114.923 104.447 113.45L105.261 110.426C105.447 109.713 105.749 109.146 106.168 108.728C106.602 108.309 107.114 108.1 107.703 108.1C108.385 108.1 108.944 108.301 109.378 108.705C109.812 109.092 110.029 109.588 110.029 110.193C110.029 110.783 109.851 111.263 109.494 111.635C109.138 111.992 108.696 112.17 108.168 112.17C107.951 112.17 107.734 112.155 107.517 112.124L107.238 112.054V108.798C106.974 108.86 106.726 109.038 106.494 109.333C106.261 109.612 106.083 109.976 105.959 110.426L105.144 113.45C104.912 114.303 104.602 114.923 104.214 115.311C104.043 115.497 103.849 115.652 103.632 115.776H104.214C106.106 115.776 107.269 116.435 107.703 117.753L109.797 123.918L110.96 124.266V124.615H108.168C107.346 124.615 106.711 124.445 106.261 124.104C105.811 123.762 105.478 123.274 105.261 122.638L103.051 116.241H101.074V123.918L102.469 124.266V124.615H95.8397V124.266L97.2354 123.918V116.241H95.2582L93.0484 122.638C92.8313 123.274 92.4978 123.762 92.0481 124.104C91.5984 124.445 90.9626 124.615 90.1407 124.615H87.3493V124.266Z" fill="#EE4C1F"/>
<path d="M112.248 124.615V124.266L113.644 123.918V109.03L112.248 108.681V108.332H118.878V108.681L117.482 109.03V116.241H122.483V109.03L121.088 108.681V108.332H127.717V108.681L126.321 109.03V123.918L127.717 124.266V124.615H121.088V124.266L122.483 123.918V116.823H117.482V123.918L118.878 124.266V124.615H112.248Z" fill="#EE4C1F"/>
<path d="M128.988 124.266L130.151 123.918L132.245 119.265C132.648 118.366 133.362 117.753 134.385 117.428C134.804 117.288 135.292 117.203 135.85 117.172V117.055C134.874 117.04 133.982 116.869 133.175 116.544C132.4 116.265 131.756 115.823 131.245 115.218C130.748 114.613 130.5 113.83 130.5 112.868C130.5 111.426 131.074 110.31 132.222 109.519C133.385 108.728 135.292 108.332 137.944 108.332H144.108V108.681L142.713 109.03V123.918L144.108 124.266V124.615H137.246V124.266L138.874 123.918V117.404H137.246L134.92 122.638C134.331 123.956 133.4 124.615 132.129 124.615H128.988V124.266ZM138.874 116.823V108.914H137.944C136.858 108.914 136.006 109.255 135.385 109.937C134.765 110.62 134.455 111.597 134.455 112.868C134.455 114.14 134.765 115.117 135.385 115.799C136.006 116.482 136.858 116.823 137.944 116.823H138.874Z" fill="#EE4C1F"/>
<path d="M64.2459 144V143.834L64.9105 143.668V136.579L64.2459 136.412V136.246H67.4028V136.412L66.7382 136.579V143.668L67.4028 143.834V144H64.2459Z" fill="#EE4C1F"/>
<path d="M68.5079 143.834L69.1725 143.668V136.579L68.5079 136.412V136.246H71.6649V136.412L71.0002 136.579V139.735H71.5541C72.1079 139.735 72.4772 139.385 72.6618 138.683L73.0495 137.243C73.1381 136.903 73.2821 136.634 73.4815 136.435C73.6882 136.235 73.9319 136.135 74.2125 136.135C74.5375 136.135 74.8033 136.231 75.0101 136.423C75.2168 136.608 75.3202 136.844 75.3202 137.132C75.3202 137.413 75.2353 137.642 75.0655 137.819C74.8956 137.989 74.6852 138.074 74.4341 138.074C74.3307 138.074 74.2273 138.067 74.1239 138.052L73.991 138.019V136.468C73.8655 136.497 73.7473 136.582 73.6365 136.723C73.5258 136.855 73.4408 137.029 73.3818 137.243L72.9941 138.683C72.8833 139.089 72.7356 139.385 72.551 139.569C72.4698 139.658 72.3775 139.732 72.2741 139.791H72.551C73.4519 139.791 74.0058 140.105 74.2125 140.732L75.2095 143.668L75.7633 143.834V144H74.4341C74.0427 144 73.7399 143.919 73.5258 143.756C73.3116 143.594 73.1528 143.361 73.0495 143.059L71.9972 140.012H71.0002V143.668L71.6649 143.834V144H68.5079V143.834Z" fill="#EE4C1F"/>
<path d="M76.3721 143.834L77.0367 143.668V136.579L76.3721 136.412V136.246H79.4736C80.6995 136.246 81.5783 136.449 82.11 136.855C82.6416 137.254 82.9075 137.845 82.9075 138.628C82.9075 139.411 82.6416 140.005 82.11 140.411C81.5783 140.81 80.6995 141.009 79.4736 141.009H78.8644V143.668L79.529 143.834V144H76.3721V143.834ZM79.4736 140.732C79.9389 140.732 80.3118 140.555 80.5924 140.201C80.8804 139.846 81.0244 139.322 81.0244 138.628C81.0244 137.941 80.8804 137.42 80.5924 137.066C80.3118 136.704 79.9389 136.523 79.4736 136.523H78.8644V140.732H79.4736Z" fill="#EE4C1F"/>
<path d="M82.2926 143.834L83.1788 143.502L86.2249 136.135H86.5572L89.7142 143.668L90.268 143.834V144H88.9388C88.5548 144 88.2409 143.915 87.9972 143.745C87.7536 143.568 87.5726 143.339 87.4545 143.059L86.8896 141.729H84.2422L83.5111 143.502L84.3419 143.834V144H82.2926V143.834ZM84.3529 141.452H86.7788L85.5603 138.539L84.3529 141.452Z" fill="#EE4C1F"/>
<mask id="mask0_0_33" style="mask-type:alpha" maskUnits="userSpaceOnUse" x="60" y="38" width="38" height="46">
<rect x="60.3693" y="44.6694" width="29.3538" height="39.9871" transform="rotate(-11.5957 60.3693 44.6694)" fill="#D9D9D9"/>
</mask>
<g mask="url(#mask0_0_33)">
<path fill-rule="evenodd" clip-rule="evenodd" d="M118.52 -0.575256C115.917 0.495468 113.668 2.30781 111.073 5.42651C109.229 7.64178 108.867 7.88223 106.4 8.5365L104.984 8.91205L105.187 8.48167C105.299 8.24485 105.467 7.96078 105.561 7.85022C105.872 7.4825 105.704 7.46403 104.205 7.70014C101.972 8.05175 100.717 7.82389 98.7077 6.7024C97.5435 6.05253 97.292 5.99721 96.783 6.27886C96.3105 6.54048 95.6064 7.57266 95.1648 8.65104C94.8361 9.45398 94.7575 9.4881 94.4006 8.98221C94.0896 8.54158 93.7788 8.51125 93.4935 8.8938C93.0424 9.49842 92.378 9.43723 91.5467 8.7144C91.3066 8.5058 91.3038 8.50652 90.8394 8.89189C90.1471 9.46628 89.7759 9.49235 89.0804 9.0153C88.494 8.61319 88.4809 8.61134 88.0032 8.85953C87.258 9.24645 86.7793 9.24112 86.3786 8.84145C85.9989 8.46281 85.6734 8.46474 85.2171 8.84819C84.5592 9.40116 83.6133 9.28031 83.1195 8.58039C82.7611 8.07222 82.5265 8.11789 82.0108 8.79586C81.1796 9.88842 80.3885 9.93477 79.5976 8.93752C79.0752 8.27892 78.9342 8.27471 78.5361 8.90576C77.7485 10.1546 76.4843 10.2703 75.5703 9.17724C75.0845 8.59619 74.8005 8.70572 73.9907 9.7864C73.0008 11.1075 72.4239 11.247 70.9175 10.5292C70.4009 10.283 70.3035 10.3886 69.4772 12.0894C68.8178 13.4468 68.7145 13.5326 67.0032 14.1444C65.3329 14.7415 64.8923 14.9598 64.4575 15.4053C62.816 17.087 62.3197 17.5498 61.5038 18.1601C59.8143 19.4238 57.684 20.5168 56.3953 20.7813C56.1039 20.8411 55.876 20.9409 55.8888 21.0031C55.9289 21.1985 56.8733 21.6179 57.6374 21.7795C58.2979 21.9193 58.3965 21.9863 58.6292 22.4538C58.7714 22.7393 58.9641 22.9987 59.0573 23.0304C59.168 23.068 59.1798 23.0404 59.0915 22.9511C58.862 22.7193 58.5761 22.0165 58.7008 21.991C58.7652 21.9777 58.8273 22.0121 58.8387 22.0674C58.85 22.1227 58.9733 22.2575 59.1126 22.3671C59.3572 22.5597 59.3592 22.5582 59.1719 22.3235C58.9307 22.0213 58.9141 21.9472 59.0802 21.9131C59.1523 21.8983 59.2263 21.9594 59.2446 22.0488C59.263 22.1382 59.3891 22.3016 59.5248 22.412C59.7558 22.5997 59.7589 22.5924 59.573 22.2974C59.3114 21.8825 59.3908 21.8852 59.8431 22.3067C60.1766 22.6173 60.1804 22.5538 59.8566 22.0875C59.764 21.954 60.0045 21.8723 61.2657 21.609C62.1023 21.4343 62.8371 21.2462 62.899 21.1906C62.9606 21.1351 63.1874 21.1722 63.4028 21.2732C63.6183 21.3741 64.0171 21.449 64.2892 21.4397C64.5614 21.4303 65.0738 21.4868 65.428 21.5654C65.9344 21.6778 66.3381 21.656 67.3192 21.4639C68.0053 21.3296 69.1207 21.181 69.7979 21.1336L71.0293 21.0476L71.6893 21.8408C72.8554 23.2422 74.4513 24.2643 76.2255 24.7465C77.3435 25.0504 77.3467 25.0396 76.5631 23.6426L76.4051 23.3613L76.9177 23.5877C77.7564 23.9585 79.8944 24.3732 80.4159 24.2662C80.7005 24.2078 79.7993 22.6284 78.4836 20.8801L78.0008 20.2385L78.4896 20.349C79.0101 20.4665 78.9854 20.4796 79.7316 19.6902C79.8299 19.5862 80.0456 19.632 80.4322 19.839C81.0158 20.1516 81.2436 20.0976 81.5396 19.577C81.7311 19.24 82.0849 19.2204 82.356 19.5318C82.6669 19.8888 83.0458 19.8011 83.3703 19.2967L83.6302 18.8929L84.063 19.2193C84.5987 19.6235 84.7397 19.5986 85.0106 19.0518C85.2792 18.5099 85.4263 18.4797 85.8866 18.8721C86.3496 19.2669 86.5753 19.2205 86.8454 18.6753C87.1092 18.143 87.1207 18.1407 87.7216 18.4955C88.3306 18.8554 88.4494 18.8311 88.6331 18.3093C88.7851 17.8771 89.0809 17.6941 89.1424 17.994C89.212 18.3331 89.6098 18.4168 89.8875 18.1508C90.1333 17.9152 90.1648 17.9331 90.918 18.7325C92.0932 19.9797 94.1378 21.1174 94.5455 20.7509C94.609 20.6939 94.92 20.6097 95.2368 20.5636C96.1899 20.4253 96.2925 19.9522 95.6742 18.5465C95.4968 18.1428 95.4578 17.8413 95.5155 17.3128C95.5881 16.6451 95.5787 16.608 95.3078 16.4922C95.0359 16.3761 95.0371 16.3651 95.3365 16.2308C96.2686 15.8126 99.049 14.6146 99.9613 14.238L101.014 13.8037L101.805 14.3073C103.106 15.1352 104.491 15.3682 106.544 15.105C107.709 14.9555 107.874 14.8255 107.167 14.6131C106.602 14.4432 106.078 13.7921 105.669 12.753C105.382 12.0248 105.297 11.9121 105.068 11.9591C104.656 12.0434 103.525 11.7449 103.639 11.5821C103.916 11.1857 105.175 10.742 107.633 10.1744L110.194 9.58316L111.069 9.92202C112.735 10.5671 114.814 10.9948 115.549 10.8438C116.328 10.6841 116.214 10.0995 115.03 8.17945C114.241 6.89986 114.22 6.74615 114.703 5.80776C115.469 4.32266 118.749 1.43992 121.94 -0.551847C123.748 -1.68101 123.659 -1.59282 122.961 -1.56226C122.005 -1.52025 119.422 -0.946146 118.52 -0.575256ZM122.465 -1.26527C122.441 -1.23079 121.829 -0.809322 121.106 -0.328586C117.508 2.06486 115.235 4.15099 114.413 5.81655C113.91 6.83495 113.912 6.85136 114.82 8.33745C115.218 8.98861 115.602 9.73445 115.672 9.99496L115.801 10.4685L115.244 10.5588C114.639 10.6568 112.84 10.3027 111.521 9.82584C110.217 9.35483 110.858 9.26162 112.268 9.71715C114.253 10.3585 114.259 10.2744 112.278 9.58262C111.32 9.24836 111.013 9.05643 111.33 8.99129C111.401 8.97674 111.904 9.1141 112.449 9.29639C112.993 9.47877 113.355 9.56481 113.253 9.4874C113.15 9.41015 112.734 9.24049 112.327 9.11038C111.128 8.72703 111.297 8.53759 112.607 8.79569C113.692 9.00937 113.708 8.90421 112.629 8.65936C112.157 8.5524 111.764 8.42862 111.754 8.38428C111.714 8.18703 111.907 8.13443 112.635 8.14503C113.654 8.15969 113.705 8.05995 112.712 7.99384C111.752 7.92998 111.765 7.67997 112.733 7.57741L113.418 7.50488L112.834 7.48813C112.134 7.46804 112.08 7.36694 112.613 7.07729C112.959 6.88943 112.97 6.86738 112.695 6.91235C112.385 6.963 112.382 6.95648 112.563 6.66725C112.665 6.50386 112.901 6.33116 113.086 6.28347C113.402 6.20207 113.403 6.19726 113.109 6.20409C112.686 6.21381 112.889 5.83101 113.373 5.70683C113.689 5.6255 113.691 5.61978 113.4 5.62656C112.974 5.63642 113.184 5.24917 113.666 5.13751C113.959 5.06954 113.969 5.05195 113.736 5.01599C113.373 4.9601 113.646 4.69351 114.126 4.63423L114.459 4.59308L114.108 4.53024C113.661 4.44994 113.879 4.20968 114.551 4.04372L115.006 3.93134L114.53 3.94088L114.054 3.95053L114.612 3.67525C115.372 3.30066 115.496 3.20161 114.968 3.39189C114.371 3.60719 114.579 3.32274 115.233 3.02991C115.602 2.86515 115.645 2.82022 115.401 2.85786C114.874 2.93858 115.376 2.46974 115.967 2.32912L116.43 2.21863L116.019 2.2105L115.608 2.20236L116.05 2.02787C116.293 1.93189 116.635 1.80177 116.81 1.73858C117.045 1.65376 117.007 1.64339 116.665 1.69902C116.089 1.79285 116.332 1.49898 116.939 1.36833C117.241 1.30331 117.28 1.26541 117.11 1.20378C116.951 1.14613 117.089 1.07648 117.605 0.955232C117.999 0.862703 118.154 0.79696 117.949 0.809319C117.469 0.838112 117.558 0.594064 118.064 0.490207C118.276 0.446694 118.437 0.347894 118.421 0.270509C118.402 0.177101 118.581 0.11561 118.956 0.0870631C119.324 0.0590547 119.447 0.0179611 119.308 -0.0307371C119.149 -0.0867254 119.186 -0.124736 119.455 -0.181517C119.653 -0.2232 119.805 -0.30553 119.793 -0.364282C119.781 -0.423159 119.938 -0.480025 120.143 -0.490654C120.417 -0.504929 120.459 -0.532244 120.302 -0.595249C120.137 -0.661762 120.172 -0.709764 120.462 -0.813089C120.967 -0.992727 122.52 -1.34332 122.465 -1.26527ZM118.412 -0.105389C115.545 1.5819 113.909 3.41528 112.185 6.87446C110.966 9.32117 111.195 9.14842 108.406 9.72071C105.894 10.2363 104.631 10.6402 103.611 11.2551L102.951 11.6534L103.364 11.8693C103.591 11.988 104.088 12.1234 104.468 12.1701C105.112 12.2493 105.172 12.2883 105.344 12.7394C105.63 13.4931 106.125 14.2828 106.499 14.5822L106.839 14.855L106.048 14.9244C104.362 15.0726 102.482 14.6574 101.775 13.9802C101.312 13.5373 101.565 13.4571 102.236 13.8338C102.586 14.0308 103.142 14.2623 103.469 14.3482C103.797 14.4341 103.937 14.4557 103.781 14.396C102.924 14.0676 101.946 13.5247 101.864 13.3316C101.785 13.1484 101.869 13.1563 102.351 13.3776C103.017 13.6843 103.945 14.0015 104.089 13.972C104.143 13.961 103.788 13.8008 103.3 13.616C101.785 13.0425 101.552 12.6712 102.939 13.0403C103.395 13.1617 103.865 13.2367 103.983 13.207C104.101 13.1773 104.008 13.1289 103.776 13.0996C103.031 13.0053 102.209 12.6648 102.325 12.4988C102.397 12.3963 102.545 12.3863 102.778 12.468C102.969 12.5349 103.28 12.5948 103.469 12.601C103.658 12.6072 103.505 12.5278 103.128 12.4243L102.444 12.2363L101.948 12.7771C101.598 13.1585 101.181 13.4339 100.532 13.7122C100.026 13.9291 98.4275 14.622 96.9792 15.2517C94.8653 16.1709 94.0843 16.453 93.019 16.6828L91.6919 16.9689L91.9694 17.3003C92.3933 17.8067 93.1528 18.3799 93.6788 18.5902C94.0688 18.7462 94.0362 18.7085 93.4935 18.3762C92.9114 18.0197 91.9892 17.2243 91.9529 17.0474C91.911 16.8433 92.3714 16.9536 92.747 17.2378C92.9876 17.4199 93.4322 17.688 93.735 17.8338C94.1889 18.0522 94.1541 18.0131 93.5368 17.6111C93.1249 17.3429 92.7797 17.0834 92.7697 17.0346C92.7362 16.8714 93.2461 16.8416 93.3519 17.0006C93.4092 17.0867 93.6788 17.2449 93.9508 17.3521L94.4455 17.547L93.9005 17.1844L93.3554 16.8217L93.701 16.7508C93.891 16.7118 94.0943 16.7281 94.1526 16.787C94.2108 16.8458 94.4011 16.9317 94.5754 16.9779C94.8901 17.0612 94.8902 17.0603 94.5879 16.8466C94.2887 16.6349 94.2878 16.6306 94.534 16.584C95.1041 16.4764 95.3208 16.7174 95.2226 17.3499C95.1515 17.8081 95.1893 18.0617 95.4068 18.5832C95.9613 19.913 95.9529 20.172 95.3513 20.2955C94.7119 20.4267 94.1081 20.1241 92.5978 18.9152C92.0335 18.4634 91.5489 18.0985 91.521 18.1042C91.4481 18.1192 92.0272 18.62 93.2336 19.5854C94.3802 20.503 94.4639 20.6558 93.6719 20.3868C92.8682 20.1136 91.6314 19.174 90.8213 18.2208L90.086 17.3555L89.9019 17.6884L89.7179 18.0212L89.4045 17.7942C88.9837 17.4895 88.626 17.5869 88.4375 18.0574L88.2823 18.4452L88.1374 18.1727C88.0331 17.9764 87.9726 17.9511 87.9208 18.0826C87.8643 18.226 87.7834 18.2286 87.5424 18.0948C87.16 17.8827 86.8045 18.0573 86.6513 18.5328C86.5451 18.8629 86.5223 18.8745 86.3229 18.7027C86.2051 18.6011 86.1166 18.5568 86.1263 18.604C86.136 18.6512 86.0198 18.6134 85.868 18.5199C85.6049 18.3579 85.6189 18.3414 86.1707 18.1649C86.489 18.0631 84.6853 18.3649 82.1625 18.8357L77.5755 19.6918L77.0897 19.4069C76.4722 19.0447 75.5903 18.8275 74.9067 18.8692C74.3979 18.9004 74.4046 18.9048 75.0519 18.9666C75.8938 19.0469 76.7688 19.3659 77.1634 19.7365C77.7827 20.318 80.0076 23.3959 80.0865 23.7803C80.185 24.2605 77.5948 23.7505 76.4574 23.0656C75.519 22.5006 75.4876 22.5775 76.2135 23.6635C76.9146 24.7123 76.9131 24.7236 76.1023 24.4681C74.4918 23.9604 72.955 22.9417 71.9187 21.6948C71.293 20.9419 71.4511 20.8903 72.13 21.6258C72.4388 21.9602 73.0469 22.4651 73.4815 22.7477L74.2718 23.2617L73.6062 22.7622C72.696 22.0791 71.3648 20.6206 72.0276 21.0326C72.1242 21.0927 72.2647 21.1042 72.3401 21.0583C72.4154 21.0123 72.6881 21.184 72.9461 21.44C73.2041 21.6959 73.5636 21.9866 73.745 22.086C73.9262 22.1853 73.7634 21.9859 73.3828 21.6428C73.0022 21.2997 72.7202 20.9789 72.7559 20.93C72.7916 20.8811 72.9462 20.9601 73.0993 21.1056C73.2524 21.2512 73.5773 21.5049 73.8212 21.6694C74.2312 21.9462 74.2237 21.9309 73.7208 21.4674C73.4216 21.1917 73.2092 20.9197 73.2487 20.8631C73.2883 20.8064 73.3451 20.7794 73.3749 20.8029C73.4046 20.8266 73.89 21.2318 74.4536 21.7034C75.5612 22.6306 76.0037 22.8663 75.0235 22.0069C74.1432 21.2351 74.2642 21.2104 75.3521 21.9397C75.8806 22.2941 76.1754 22.4629 76.0072 22.3149C75.4287 21.806 73.9923 20.86 74.2182 21.1369C74.3704 21.3232 74.3864 21.3805 74.2669 21.3116C74.1693 21.2551 74.0374 21.087 73.9737 20.9379C73.9102 20.7886 73.764 20.5932 73.6489 20.5037C73.4724 20.3665 73.474 20.3523 73.6595 20.414C73.7804 20.4543 73.9632 20.4822 74.0657 20.476C74.1681 20.4698 74.4686 20.5864 74.7334 20.735C74.9981 20.8835 75.384 21.0809 75.5908 21.1735C75.7976 21.2662 75.4851 21.0642 74.8964 20.7246C73.8277 20.1083 73.4843 19.7532 73.9026 19.6974C74.0228 19.6814 74.0929 19.6028 74.0583 19.5229C74.0119 19.4153 74.0888 19.3911 74.3555 19.4296C74.5533 19.4582 74.7844 19.4644 74.8691 19.4433C75.2418 19.3505 73.1455 19.1605 72.7112 19.2478C72.0456 19.3814 72.0316 19.5462 72.6384 20.1009C73.2634 20.672 73.4198 20.6165 70.5851 20.8286L68.4594 20.9876L69.0793 20.1344C69.653 19.3448 70.0908 18.3312 70.0159 17.9661C69.9986 17.8818 69.8956 18.1199 69.7869 18.4953C69.2239 20.4407 67.4272 21.6971 65.7148 21.3426C64.9876 21.192 63.9792 20.6609 64.0182 20.4491C64.0378 20.3425 63.8211 20.4149 63.3657 20.6669C61.8429 21.5094 58.5214 21.8889 57.108 21.3817L56.3917 21.1246L57.4541 20.7348C59.6965 19.9121 62.1575 18.243 63.953 16.3274C65.0356 15.1723 65.2975 15.0044 66.8193 14.4888C67.4289 14.2823 68.5213 13.7965 69.2466 13.4094C71.7329 12.0825 74.6967 11.133 78.4463 10.462C80.1387 10.1591 80.5614 10.0592 79.8295 10.1349C78.5856 10.2636 78.5733 10.2592 78.7698 9.75445C78.9105 9.39317 78.8978 9.40044 78.6048 9.84901L78.2874 10.3348L76.3197 10.7386C75.2374 10.9607 74.3436 11.1004 74.3334 11.0491C74.3231 10.9977 74.3949 10.7487 74.4929 10.4955C74.7722 9.77374 74.6762 9.8183 74.2333 10.6158C73.8296 11.3427 73.8199 11.3502 72.9041 11.626C72.3966 11.7788 71.589 12.0672 71.1093 12.2669C70.0637 12.702 70.0707 12.7044 70.2895 11.9749C70.5119 11.2334 70.2891 11.4228 69.9948 12.2255C69.8719 12.5609 69.6871 12.8871 69.5843 12.9504C69.3114 13.1181 69.3741 12.914 69.9639 11.7153L70.493 10.6398L70.7976 10.9015C70.9652 11.0455 71.1519 11.1186 71.2125 11.0641C71.2732 11.0096 71.4194 11.0133 71.5374 11.0724C71.8512 11.2295 73.0561 11.2986 73.1183 11.1631C73.1476 11.0994 73.3535 10.8856 73.5759 10.688C73.7982 10.4905 74.1668 10.054 74.3947 9.71787C74.8741 9.01125 74.9395 8.977 75.1316 9.33199C75.3883 9.80628 76.5818 10.2965 77.1807 10.1736C77.8267 10.041 78.457 9.60324 78.7252 9.10099C78.9412 8.69629 78.9612 8.70165 79.4983 9.30996C80.2808 10.1961 81.5368 10.0366 82.2233 8.96416C82.4548 8.60223 82.4872 8.58781 82.6926 8.75407C82.8965 8.91896 82.9034 8.91494 82.7836 8.70032C82.7122 8.57259 82.8867 8.71153 83.1714 9.00907C83.6735 9.53383 83.7092 9.5471 84.3621 9.45053C84.7818 9.38849 85.1684 9.24821 85.3882 9.07819C85.8222 8.74267 85.8758 8.73 85.9213 8.95197C86.0203 9.43453 87.5866 9.52698 88.1446 9.08332C88.3216 8.9424 88.3997 8.941 88.4903 9.07709C88.5547 9.17378 88.6894 9.23597 88.7898 9.21537C88.8902 9.19477 88.9835 9.23231 88.9972 9.29889C89.0472 9.54272 89.9244 9.65954 90.4242 9.48902C90.7509 9.3776 90.8944 9.37158 90.8553 9.47112C90.8204 9.55943 90.8514 9.5708 90.9315 9.49885C91.0057 9.4321 91.0252 9.33582 90.9747 9.28482C90.698 9.0053 91.226 9.01527 91.839 9.30111C92.4578 9.58978 92.6165 9.61042 93.0829 9.4632C93.5244 9.32393 93.6109 9.33038 93.5795 9.50058C93.5537 9.64089 93.5872 9.66573 93.6842 9.57837C93.7627 9.50776 93.7818 9.38206 93.7266 9.29901C93.4723 8.91692 93.907 8.83639 94.2304 9.20573C94.6091 9.63828 94.5971 9.63687 97.5277 9.60456C103.947 9.53392 108.309 8.71833 109.76 7.31736C109.979 7.10548 110.702 6.28174 111.365 5.4868C113.533 2.88803 115.437 1.25471 117.592 0.144987C118.793 -0.473678 119.301 -0.628728 118.412 -0.105389ZM82.2176 9.52438L82.0161 9.95017L82.3725 9.96117C82.5685 9.96729 82.7584 9.93014 82.7944 9.87862C82.8304 9.82709 82.7616 9.8051 82.6415 9.82974C82.3908 9.88118 82.3314 9.72561 82.4551 9.34168C82.5859 8.93557 82.4448 9.04413 82.2176 9.52438ZM98.7015 7.00513C100.562 8.03978 102.414 8.35526 104.336 7.96505L105.23 7.78364L104.962 8.35358C104.67 8.9761 104.529 9.08518 104.444 8.75383C104.412 8.6253 104.376 8.60652 104.355 8.7074C104.304 8.95741 104.088 8.95845 104.032 8.70898C103.986 8.5027 103.979 8.50404 103.894 8.73722C103.754 9.12481 103.139 9.19608 103.169 8.8214C103.189 8.5659 103.178 8.55923 103.093 8.77226C102.939 9.15484 102.46 9.20225 102.482 8.83278L102.5 8.53789L102.404 8.85399C102.29 9.23297 101.884 9.28448 101.864 8.9226C101.852 8.68641 101.842 8.68663 101.713 8.92587C101.469 9.37864 101.116 9.33926 101.1 8.85756C101.087 8.44128 101.086 8.44111 101.013 8.81072C100.962 9.06549 100.844 9.20125 100.637 9.24385C100.295 9.31407 100.274 9.28355 100.385 8.86633C100.462 8.57396 100.461 8.57443 100.305 8.89125C100.182 9.141 99.5503 9.47743 99.5161 9.31111C99.5125 9.29359 99.5273 9.08669 99.5488 8.85135C99.5983 8.31308 99.4824 8.31213 99.4011 8.85021C99.3623 9.10605 99.2504 9.26946 99.0912 9.30213C98.8128 9.35925 98.7377 9.16833 98.8326 8.64429C98.8686 8.44559 98.8502 8.33338 98.7903 8.38709C98.732 8.43957 98.6797 8.65753 98.6743 8.87132C98.6666 9.17605 98.5939 9.27473 98.3384 9.32714C97.9643 9.40392 97.9421 9.1672 98.2443 8.31933C98.347 8.03109 98.353 7.91335 98.2592 8.02426C98.1732 8.1259 98.0424 8.45474 97.9684 8.75509C97.7284 9.72868 97.3027 9.48699 97.5034 8.49116C97.5955 8.03463 97.5909 8.01538 97.4515 8.27943C97.3674 8.43909 97.2968 8.73018 97.2947 8.92646C97.2923 9.1628 97.2081 9.3002 97.0453 9.3336C96.7111 9.40218 96.6645 9.07013 96.8977 8.28343C97.003 7.92824 97.0267 7.71149 96.9504 7.8017C96.874 7.89194 96.7425 8.26945 96.6582 8.6404C96.5483 9.12324 96.4312 9.33016 96.2462 9.36814C95.9087 9.43738 95.9068 9.38949 96.2121 8.51187C96.5522 7.53406 96.434 7.57538 96.0608 8.56479C95.7782 9.31453 95.5722 9.52132 95.3408 9.28752C95.1218 9.0662 96.092 7.21763 96.7187 6.66214C97.1815 6.25186 97.4216 6.29344 98.7015 7.00513ZM81.2048 10.0866C81.374 10.0828 81.6097 10.0333 81.7286 9.97655C81.8475 9.91979 81.7091 9.92282 81.421 9.98335C81.133 10.0439 81.0357 10.0904 81.2048 10.0866ZM85.4802 9.27962C85.2735 9.67464 85.2656 9.80907 85.4507 9.77107C85.5548 9.74972 85.6394 9.58675 85.6388 9.40888C85.6376 9.04229 85.6143 9.02337 85.4802 9.27962ZM72.8996 12.176C73.0015 12.1925 73.1137 12.1648 73.1487 12.1147C73.1838 12.0645 73.1004 12.051 72.9634 12.0847C72.8119 12.122 72.7869 12.1578 72.8996 12.176ZM72.1299 12.4606C72.2272 12.4767 72.3746 12.4464 72.4576 12.3934C72.5407 12.3405 72.4611 12.3274 72.2809 12.3644C72.1007 12.4014 72.0328 12.4447 72.1299 12.4606ZM71.64 12.6933C71.7418 12.7098 71.854 12.6822 71.8891 12.632C71.9241 12.5818 71.8408 12.5684 71.7038 12.6021C71.5523 12.6394 71.5273 12.6752 71.64 12.6933ZM76.3581 11.7252C76.46 11.7417 76.5722 11.714 76.6072 11.6639C76.6423 11.6137 76.5589 11.6003 76.4219 11.6339C76.2704 11.6712 76.2454 11.7071 76.3581 11.7252ZM87.9901 9.37804C87.9586 9.45776 88.0155 9.46784 88.1234 9.40155C88.3335 9.27238 88.3567 9.17479 88.1683 9.21346C88.1004 9.22739 88.0202 9.30144 87.9901 9.37804ZM90.5052 10.1168C90.6071 10.1333 90.7193 10.1056 90.7543 10.0554C90.7894 10.0053 90.706 9.99181 90.569 10.0255C90.4175 10.0628 90.3925 10.0986 90.5052 10.1168ZM91.1772 10.1056C91.2745 10.1216 91.4219 10.0914 91.5049 10.0384C91.588 9.98546 91.5084 9.97241 91.3282 10.0094C91.148 10.0464 91.0801 10.0897 91.1772 10.1056ZM91.9891 10.0685C92.0863 10.0845 92.2338 10.0542 92.3167 10.0012C92.3998 9.94832 92.3203 9.93527 92.1401 9.97224C91.9598 10.0092 91.892 10.0525 91.9891 10.0685ZM75.5047 13.9801C75.4666 14.1837 75.4393 14.4617 75.4443 14.5979C75.4514 14.7951 75.3578 14.755 74.9846 14.401C74.4021 13.8487 74.313 13.8651 74.243 14.5382C74.1915 15.0321 74.2232 15.1139 74.6356 15.5512C75.2132 16.1635 75.3641 16.2062 75.3735 15.7598C75.3919 14.8793 75.4444 14.8473 75.9645 15.3988C76.5015 15.9682 76.5948 15.9278 76.6344 15.1085C76.6592 14.5976 76.6213 14.516 76.155 14.0742C75.5576 13.508 75.5925 13.513 75.5047 13.9801ZM76.9501 13.6623C76.8286 14.2957 76.8904 14.5384 77.2948 15.0129C77.9283 15.7564 78.1334 15.7877 78.1356 15.1413C78.1382 14.3421 78.3385 14.3451 79.1584 15.1573L79.8909 15.8828L79.9279 15.1372C79.9729 14.2294 80.146 14.1682 80.7573 14.8439C81.2929 15.436 81.6355 15.7316 81.7568 15.7067C81.803 15.6973 81.8211 15.5917 81.7969 15.472C81.7106 15.044 81.839 14.2509 81.9921 14.2668C82.0779 14.2757 82.4261 14.5696 82.7661 14.9197C83.4977 15.6735 83.6335 15.6653 83.6535 14.8657C83.6727 14.1029 83.7632 14.0937 84.4334 14.7858C85.146 15.5217 85.2981 15.5192 85.29 14.7717C85.2812 13.9597 85.4379 13.9172 86.048 14.5659C86.7289 15.29 86.7653 15.275 86.7937 14.2571C86.8069 13.783 87.0595 13.8445 87.5816 14.4488C88.1061 15.0555 88.2142 15.0445 88.1971 14.3852C88.1793 13.7036 88.4179 13.6829 89.0191 14.3137L89.5091 14.828L89.5216 14.2753C89.5284 13.9712 89.6026 13.7085 89.6866 13.6913C89.7707 13.674 89.8678 13.494 89.9025 13.291L89.9658 12.922L90.0364 13.3156C90.0752 13.5319 90.0575 13.6923 89.997 13.672C89.8172 13.6114 89.9008 13.777 90.2192 14.1122C90.6103 14.5238 90.7124 14.4851 90.7085 13.9269C90.7064 13.6213 90.7676 13.4759 90.8905 13.4941C90.9925 13.509 91.0816 13.4215 91.0886 13.2994C91.0957 13.1773 91.1132 13.2206 91.1274 13.3956C91.1501 13.673 91.4735 14.1013 91.6352 14.0681C91.7466 14.0452 91.4187 12.973 91.24 12.7758C91.0719 12.59 91.0503 12.6034 90.9642 12.9466C90.8752 13.3011 90.6757 13.4855 90.6287 13.2566C90.6166 13.1974 90.4475 13.0215 90.2529 12.8655L89.8992 12.582L89.7643 13.0226L89.6294 13.463L89.1454 13.0236C88.6469 12.5712 88.329 12.6983 88.4525 13.3004C88.5367 13.7107 88.3491 13.6855 87.8586 13.2209C87.254 12.648 87.1582 12.6523 87.0776 13.2558C87.016 13.7171 86.8062 13.9301 86.7385 13.6001C86.7192 13.506 86.5882 13.3727 86.4473 13.3039C86.219 13.1924 86.2088 13.2034 86.354 13.4043C86.5428 13.6655 86.6817 14.4491 86.5683 14.6116C86.5256 14.6726 86.4175 14.334 86.328 13.8593C86.1982 13.1709 86.1083 12.9645 85.8839 12.8401C85.617 12.6919 85.6005 12.7147 85.5585 13.2921C85.5096 13.9643 85.4036 14.0754 85.2008 13.6673C84.9919 13.2469 83.9699 12.5544 83.9247 12.8025C83.9044 12.9134 83.8488 13.2452 83.8009 13.5398C83.7438 13.892 83.6923 13.9858 83.6506 13.8136C83.5871 13.5507 82.4285 12.468 82.2468 12.5015C82.1934 12.5114 82.1146 12.8761 82.0717 13.312C81.9953 14.0855 81.8436 14.3725 81.7506 13.9192C81.7251 13.7949 81.4156 13.4494 81.0629 13.1513L80.4213 12.6093L80.3124 13.155C80.2525 13.4552 80.2261 13.8114 80.2539 13.9466C80.2818 14.0824 80.2163 14.2106 80.1078 14.2329C79.9996 14.2551 79.8953 14.1956 79.8758 14.1007C79.8563 14.0058 79.6973 13.8199 79.5224 13.6878C79.1577 13.412 79.1331 13.5943 79.4944 13.8954C79.66 14.0333 79.7411 14.2562 79.7575 14.618C79.7959 15.4659 79.612 15.5074 79.4583 14.6855C79.1516 13.0442 78.6675 12.5139 78.566 13.7079C78.5198 14.2508 78.2042 14.6072 78.1225 14.2088C78.1038 14.1177 77.8493 13.8692 77.5569 13.6565L77.0254 13.2698L76.9501 13.6623ZM73.0337 14.775C72.9827 15.264 73.0124 15.3321 73.4607 15.7553L73.9426 16.2099L73.9996 15.6214C74.0533 15.0667 74.0321 15.0095 73.6309 14.6291C73.1049 14.1303 73.1007 14.1312 73.0337 14.775ZM71.8623 14.9301C71.7609 15.4798 71.8155 15.6199 72.327 16.1233C72.779 16.5681 72.7879 16.5703 72.8167 16.2468C72.8742 15.6013 72.7211 15.1692 72.325 14.859L71.9322 14.5513L71.8623 14.9301ZM66.2023 16.3832C65.5935 16.9182 65.4133 17.0077 64.5983 17.1801C63.8081 17.3473 63.7436 17.378 64.1344 17.4007C64.3987 17.4162 64.5639 17.4896 64.5296 17.5767C64.4896 17.678 64.5484 17.6644 64.712 17.5344C64.8447 17.4288 65.098 17.3128 65.2748 17.2765C65.4516 17.2402 65.86 16.9496 66.1823 16.6308C66.5046 16.3118 66.8879 15.9747 67.0341 15.8817C67.2031 15.7741 67.2249 15.7248 67.094 15.7464C66.9808 15.7652 66.5795 16.0517 66.2023 16.3832ZM70.7027 15.4832C70.7376 15.9555 71.4859 16.7787 71.8184 16.7105C72.1326 16.646 71.6939 15.4907 71.257 15.2318C70.6937 14.8981 70.6606 14.9131 70.7027 15.4832ZM75.8099 14.523C75.875 14.8814 75.8592 15.0194 75.7653 14.9156C75.6431 14.7806 75.5676 13.9995 75.6747 13.9776C75.6939 13.9736 75.7548 14.2191 75.8099 14.523ZM77.2689 14.1359C77.3079 14.3949 77.4056 14.7097 77.4861 14.8356C77.5667 14.9614 77.5042 14.9269 77.3473 14.7587C77.1611 14.5591 77.0654 14.3204 77.0718 14.0709C77.0853 13.5404 77.1841 13.573 77.2689 14.1359ZM78.91 13.8773C78.9361 14.1883 79.0502 14.5387 79.1699 14.6763C79.2873 14.8112 79.3594 14.956 79.3299 14.9982C79.1559 15.2472 78.6718 14.3319 78.722 13.8491C78.7912 13.1847 78.8523 13.1938 78.91 13.8773ZM80.647 13.5773C80.6739 14.0008 80.7777 14.3186 80.9835 14.6085C81.3592 15.1375 81.2956 15.1584 80.8238 14.6611C80.4045 14.2194 80.3839 14.1563 80.4396 13.4852C80.4964 12.7995 80.6007 12.8456 80.647 13.5773ZM74.63 14.8268C74.6847 15.0935 74.6799 15.2949 74.6194 15.2743C74.4235 15.2078 74.3348 14.3819 74.5196 14.344C74.5256 14.3428 74.5752 14.56 74.63 14.8268ZM77.9163 14.5455C77.9651 14.7889 77.9645 15.0837 77.915 15.2006C77.8531 15.3469 77.8134 15.23 77.7876 14.8255C77.7652 14.4746 77.6637 14.1302 77.5356 13.9711C77.3321 13.7182 77.3341 13.7147 77.5743 13.9037C77.7136 14.0134 77.8675 14.3022 77.9163 14.5455ZM83.4697 13.9232C83.4603 14.0365 83.4625 14.3785 83.4745 14.6834C83.505 15.4538 83.3408 15.277 83.1975 14.3852C83.1144 13.8681 82.9824 13.5337 82.7606 13.2784L82.443 12.9124L82.4709 13.4891C82.4896 13.8759 82.5808 14.1643 82.7473 14.3644C83.172 14.8746 83.0821 15.0116 82.6383 14.5306C82.2305 14.0887 82.0899 13.383 82.3024 12.8441C82.3777 12.6529 83.49 13.681 83.4697 13.9232ZM73.3435 15.0291C73.363 15.1979 73.3331 15.3205 73.2772 15.3014C73.1781 15.2678 73.1617 14.7521 73.2591 14.7321C73.286 14.7266 73.3239 14.8603 73.3435 15.0291ZM76.4205 14.9832C76.4299 15.6395 76.3956 15.6202 76.1845 14.85C76.0269 14.2756 76.0303 14.1939 76.2053 14.3449C76.3363 14.4582 76.4164 14.6956 76.4205 14.9832ZM81.6023 14.1204C81.5962 14.2641 81.5888 14.6151 81.5862 14.9004C81.5817 15.3903 81.5667 15.3683 81.3163 14.5027C81.1704 13.9987 80.9796 13.4845 80.8922 13.36C80.8048 13.2356 80.9314 13.297 81.1736 13.4965C81.4385 13.7148 81.6091 13.9632 81.6023 14.1204ZM69.5755 16.1963C70.3331 17.0712 70.4807 18.4506 69.9112 19.3347C69.7659 19.5604 69.7067 19.7326 69.7797 19.7177C69.9943 19.6736 70.3459 19.053 70.4628 18.5119C70.6789 17.5123 70.1413 16.1789 69.3656 15.7907C69.1982 15.7069 69.2672 15.8404 69.5755 16.1963ZM73.821 15.3453C73.8452 15.6826 73.8343 15.6758 73.6837 15.26C73.5899 15.0009 73.5787 14.8446 73.6575 14.8936C73.7331 14.9406 73.8066 15.1439 73.821 15.3453ZM75.1567 15.1994L75.2112 15.6907L75.028 15.1194C74.9274 14.8053 74.9029 14.5842 74.9737 14.6282C75.0444 14.6722 75.1268 14.9292 75.1567 15.1994ZM71.0971 15.7543C71.1658 15.916 71.1654 16.0292 71.0963 16.0057C70.9747 15.9644 70.8206 15.4913 70.9219 15.4706C70.9496 15.4649 71.0284 15.5925 71.0971 15.7543ZM71.6636 16.0119C71.7282 16.3268 71.6576 16.2697 71.3626 15.7685C71.1464 15.4012 71.147 15.3826 71.369 15.5654C71.5033 15.676 71.6359 15.8769 71.6636 16.0119ZM72.6414 15.5894C72.6383 15.768 72.5988 15.7435 72.4897 15.495C72.3943 15.2783 72.3959 15.193 72.4939 15.2539C72.5773 15.3058 72.6438 15.4568 72.6414 15.5894ZM72.1664 15.5455C72.2338 15.6469 72.222 15.7013 72.1389 15.673C72.059 15.6459 71.9829 15.5712 71.9697 15.5068C71.933 15.3282 72.0351 15.3483 72.1664 15.5455ZM84.2489 13.6097C84.308 13.9357 84.4279 14.3335 84.5153 14.4935C84.621 14.6871 84.5551 14.6522 84.3187 14.3891C84.0237 14.0612 83.9698 13.9124 84.002 13.5156C84.0543 12.8743 84.1201 12.8994 84.2489 13.6097ZM85.0192 13.8885C85.0575 14.0676 85.0836 14.4117 85.0772 14.6533C85.0665 15.0473 85.0405 15.0108 84.8244 14.3006C84.6919 13.8651 84.515 13.4063 84.4312 13.281C84.3109 13.101 84.3492 13.1067 84.6142 13.3082C84.7986 13.4484 84.9808 13.7095 85.0192 13.8885ZM85.8931 13.5312C85.9337 13.7899 86.0339 14.1042 86.1161 14.2298C86.2404 14.42 86.2178 14.4179 85.9805 14.2173C85.7758 14.0441 85.6949 13.8517 85.6928 13.5321C85.6886 12.9431 85.8009 12.9427 85.8931 13.5312ZM62.9835 18.0758C62.9625 18.1901 62.986 18.3087 63.0356 18.3396C63.2041 18.4443 63.7611 18.1011 63.7231 17.9161C63.6721 17.6676 63.0334 17.8056 62.9835 18.0758ZM87.4927 13.7531C87.6629 14.2425 87.6592 14.271 87.4552 14.0385C87.3304 13.8964 87.2281 13.6384 87.2274 13.4649C87.2261 13.0551 87.2645 13.097 87.4927 13.7531ZM88.01 13.8164C88.0536 14.0346 88.0504 14.3086 88.0026 14.4252C87.9424 14.5725 87.8847 14.4402 87.8133 13.991C87.7036 13.3021 87.8764 13.1487 88.01 13.8164ZM88.7525 13.6564C88.7338 13.7493 88.6897 13.6855 88.6546 13.5147C88.6196 13.3439 88.635 13.268 88.6888 13.3459C88.7428 13.4239 88.7715 13.5636 88.7525 13.6564ZM89.3529 13.695C89.4003 13.9261 89.399 14.1512 89.3499 14.1953C89.3008 14.2394 89.2125 14.0338 89.1537 13.7384C89.0948 13.4429 89.0962 13.2178 89.1567 13.2381C89.2173 13.2583 89.3055 13.464 89.3529 13.695ZM92.1455 13.0295C92.3829 13.8523 92.9175 14.4268 92.7681 13.6986C92.7392 13.558 92.6768 13.4778 92.6291 13.5205C92.5815 13.5633 92.5104 13.4413 92.4711 13.2494C92.4317 13.0575 92.449 12.9174 92.5096 12.9379C92.5702 12.9584 92.6351 13.0505 92.654 13.1426C92.6758 13.2488 92.7793 13.2666 92.9372 13.1913C93.074 13.1259 93.1762 13.0248 93.1642 12.9667C93.1523 12.9084 93.0672 12.9071 92.9751 12.9637C92.8832 13.0202 92.6597 12.9478 92.4786 12.8027C92.0382 12.4496 91.9881 12.4837 92.1455 13.0295ZM90.5452 13.5151C90.5856 13.712 90.5798 13.9079 90.5321 13.9503C90.4844 13.9928 90.3988 13.8139 90.3418 13.5526C90.2846 13.2914 90.2906 13.0955 90.3549 13.1174C90.4192 13.1393 90.5048 13.3182 90.5452 13.5151ZM93.2132 12.9498C93.3661 13.4595 93.5272 13.6799 93.7181 13.6407C93.8591 13.6118 93.644 12.7618 93.4457 12.564C93.1837 12.3027 93.0737 12.4851 93.2132 12.9498ZM69.9432 17.5591C69.9792 17.7025 70.0163 17.7255 70.0378 17.618C70.0572 17.5205 70.0305 17.4143 69.9786 17.382C69.9266 17.3497 69.9107 17.4293 69.9432 17.5591ZM94.5698 12.4951C94.5965 12.6253 94.4696 12.7098 94.1493 12.7756C93.897 12.8273 93.6998 12.9144 93.711 12.9689C93.7222 13.0236 93.928 13.0047 94.1684 12.927C94.5229 12.8124 94.6471 12.8337 94.8265 13.0397L95.0475 13.2936L95.0984 12.9967C95.1564 12.6584 96.1247 12.3673 96.4727 12.5836C96.6188 12.6744 96.6538 12.6672 96.63 12.5513C96.6085 12.4467 96.9793 12.3193 97.8739 12.1238C98.5749 11.9706 99.5823 11.7135 100.113 11.5523C100.677 11.3808 100.17 11.4732 98.8909 11.7748C96.8513 12.256 96.6893 12.2772 96.4681 12.0929C96.2514 11.9124 96.2344 11.9142 96.2714 12.1136C96.3258 12.4074 95.0924 12.6899 94.9155 12.4242C94.8531 12.3302 94.7411 12.2658 94.6667 12.2811C94.5924 12.2963 94.5488 12.3926 94.5698 12.4951ZM102.903 10.6767C103.001 10.6927 103.148 10.6624 103.231 10.6094C103.314 10.5565 103.235 10.5435 103.054 10.5804C102.874 10.6174 102.806 10.6607 102.903 10.6767ZM91.6202 13.4193C91.6684 13.6468 91.7088 13.6799 91.7662 13.5392C91.8098 13.4322 91.9189 13.3695 92.0087 13.4C92.1058 13.433 92.1529 13.3628 92.1249 13.2263C92.0949 13.08 91.9831 13.0167 91.8158 13.051C91.6221 13.0908 91.571 13.1868 91.6202 13.4193ZM101.488 11.1021C101.657 11.0984 101.922 11.044 102.078 10.9811C102.234 10.9181 102.097 10.9212 101.772 10.9877C101.448 11.0543 101.32 11.1058 101.488 11.1021ZM60.5982 19.66C60.5677 19.7374 60.6312 19.7827 60.7393 19.7605C60.8474 19.7383 60.9609 19.6568 60.9914 19.5793C61.0219 19.5018 60.9584 19.4566 60.8503 19.4788C60.7422 19.501 60.6288 19.5825 60.5982 19.66ZM64.1514 21.002C64.3099 21.1118 64.3981 21.2102 64.3472 21.2207C64.2113 21.2486 63.4058 21.0291 63.3917 20.9603C63.3584 20.7977 63.8994 20.8273 64.1514 21.002ZM96.6579 14.8086C96.7598 14.8251 96.872 14.7975 96.907 14.7473C96.9421 14.6971 96.8587 14.6837 96.7217 14.7174C96.5702 14.7547 96.5452 14.7905 96.6579 14.8086ZM96.1592 15.0404C96.261 15.0569 96.3732 15.0292 96.4083 14.9791C96.4433 14.9289 96.36 14.9155 96.2229 14.9492C96.0715 14.9864 96.0464 15.0223 96.1592 15.0404ZM74.1775 19.689C74.1793 19.7419 74.2005 19.8322 74.2241 19.8895C74.2479 19.9468 74.1696 19.9792 74.0503 19.9616C73.6752 19.9062 73.8285 20.0128 74.5614 20.3167C75.4095 20.6685 75.64 20.7478 75.6268 20.6833C75.6213 20.6566 75.3104 20.507 74.9356 20.3507C74.1198 20.0103 74.1235 19.8684 74.9426 20.0758C75.2672 20.1579 75.5271 20.1973 75.5201 20.1631C75.5131 20.129 75.248 20.0353 74.9311 19.9551C74.2101 19.7725 74.155 19.6558 74.8475 19.778C75.1322 19.8282 75.3837 19.843 75.4061 19.8107C75.4432 19.7577 74.3865 19.549 74.2367 19.5798C74.2021 19.5869 74.1755 19.6361 74.1775 19.689ZM82.3106 18.1461C82.5505 18.1256 82.934 18.0469 83.1625 17.9713C83.3911 17.8958 83.1948 17.9125 82.7263 18.0086C82.2578 18.1048 82.0708 18.1667 82.3106 18.1461ZM74.829 21.1218C75.3499 21.4636 76.0474 21.8676 76.379 22.0196C77.0728 22.3376 76.8439 22.1897 75.1195 21.2062C73.9022 20.5118 73.8975 20.5104 74.829 21.1218ZM91.2812 17.1021C91.3642 17.5067 93.0315 19.1512 93.5306 19.3208C93.6357 19.3566 93.3816 19.1093 92.9659 18.7713C92.0953 18.0636 91.6476 17.5566 91.5732 17.1939C91.5445 17.0538 91.462 16.9514 91.3899 16.9662C91.3178 16.981 91.2689 17.0421 91.2812 17.1021ZM79.2726 19.7646C79.1304 20.0149 78.3635 20.1567 78.2428 19.9551C78.1821 19.8534 78.3383 19.7737 78.7733 19.6844C79.2894 19.5785 79.3709 19.5916 79.2726 19.7646ZM81.3096 19.4224C81.1811 19.6275 81.0678 19.691 80.9425 19.6283C80.843 19.5784 80.7369 19.5726 80.7069 19.6155C80.677 19.6583 80.5605 19.6235 80.4479 19.5381C80.2695 19.4027 80.3234 19.3664 80.8695 19.2543C81.4869 19.1276 81.493 19.13 81.3096 19.4224ZM83.1796 19.0943C83.0263 19.3433 82.9197 19.415 82.833 19.3272C82.7641 19.2576 82.6368 19.2153 82.5501 19.2331C82.4633 19.2509 82.3534 19.2007 82.3059 19.1214C82.2453 19.0203 82.3958 18.9411 82.8102 18.8561L83.401 18.7349L83.1796 19.0943ZM84.8486 18.7614C84.7655 18.9565 84.6723 19.1212 84.6414 19.1276C84.6106 19.1339 84.3975 19.032 84.1683 18.901L83.7511 18.663L84.3753 18.5349L84.9995 18.4069L84.8486 18.7614ZM72.3281 21.208C72.3488 21.3515 73.1412 22.073 73.8632 22.6057C74.5532 23.1149 74.3784 22.8942 73.504 22.1522C73.0719 21.7858 72.6264 21.3935 72.5137 21.2807C72.4011 21.1679 72.3175 21.1352 72.3281 21.208ZM75.7757 20.7435C75.7828 20.7777 75.9187 20.8411 76.0779 20.8847C76.2371 20.9283 76.3615 20.9359 76.3545 20.9017C76.3475 20.8676 76.2116 20.8041 76.0524 20.7605C75.8932 20.7169 75.7687 20.7093 75.7757 20.7435ZM76.0329 21.3312C76.0382 21.3569 76.1614 21.4336 76.3069 21.5015C76.5464 21.6133 76.5501 21.608 76.3468 21.4444C76.133 21.2726 76.0119 21.229 76.0329 21.3312ZM76.7351 22.7562C76.9394 22.8923 77.1361 22.9975 77.1722 22.9902C77.2082 22.9828 77.0705 22.8654 76.8661 22.7293C76.6617 22.5933 76.465 22.488 76.429 22.4954C76.393 22.5028 76.5307 22.6202 76.7351 22.7562ZM74.3984 23.3494C74.4036 23.3751 74.5269 23.4518 74.6723 23.5197C74.9119 23.6314 74.9156 23.6261 74.7122 23.4625C74.4985 23.2908 74.3774 23.2471 74.3984 23.3494ZM94.1397 24.3766C92.7459 25.0526 91.547 26.0553 90.1748 27.693C89.0671 29.0148 88.6699 29.296 87.4065 29.653L86.351 29.9511L86.5778 29.5275L86.8044 29.1038L85.7912 29.2207C84.5774 29.3609 83.7482 29.2184 82.8505 28.7153C81.5862 28.0067 81.1792 28.126 80.5596 29.3871C80.3764 29.7601 80.2107 30.0967 80.1917 30.1352C80.1725 30.1737 80.0176 30.089 79.8475 29.9469C79.5999 29.7403 79.5116 29.7264 79.4056 29.8777C79.195 30.1781 78.747 30.2017 78.3444 29.9337C77.9999 29.7043 77.9536 29.7044 77.7108 29.9342C77.3476 30.2781 77.1498 30.2936 76.7264 30.0117C76.4135 29.8034 76.2824 29.795 75.8218 29.9536C75.3572 30.1135 75.2456 30.1053 75.0108 29.8944C74.7583 29.6675 74.7075 29.6678 74.3145 29.8995C73.8185 30.1918 73.5035 30.1458 72.9944 29.7066L72.659 29.4175L72.3518 29.8365C71.9113 30.4374 71.4249 30.5031 70.9694 30.0231C70.5438 29.5745 70.3918 29.5844 70.0634 30.0818C69.9122 30.3108 69.6724 30.4834 69.4386 30.5314C69.068 30.6074 68.8703 30.5188 68.2669 30.0061L67.9706 29.7542L67.4958 30.3739C66.8534 31.2126 66.6266 31.3128 65.9569 31.0537C65.2243 30.7701 65.229 30.7675 64.7784 31.7131C64.2967 32.7238 64.2988 32.7221 62.9683 33.2148C62.0099 33.5698 61.8091 33.6989 61.2021 34.3514C59.9949 35.6486 58.0481 36.8813 56.8025 37.1369C56.3096 37.2381 56.3096 37.2381 56.6129 37.4484C56.7798 37.5642 57.1544 37.7192 57.4454 37.7929C57.7365 37.8668 58.022 38.0203 58.0801 38.1344C58.1802 38.331 58.1841 38.3301 58.1553 38.1169C58.1303 37.9311 58.176 37.9059 58.4175 37.9719C58.5782 38.016 58.7508 38.0151 58.801 37.97C59.0899 37.7102 60.883 37.4625 61.6123 37.5816C62.1342 37.6667 62.8594 37.646 63.8196 37.5184C65.62 37.2791 65.6946 37.2879 66.0053 37.7759C66.4578 38.4868 68.7996 39.8529 69.3663 39.7366C69.4548 39.7185 69.2964 39.3361 69.0423 38.9541C68.9333 38.7903 68.9914 38.7906 69.3717 38.9552C69.6256 39.0653 70.1687 39.1922 70.5788 39.2372L71.3244 39.3192L71.3062 39.032C71.2962 38.8741 70.9822 38.3177 70.6086 37.7955C69.8596 36.7487 69.8186 36.6731 70.0925 36.8434C70.3469 37.0016 70.6292 36.9286 70.846 36.6489C71.0074 36.4408 71.0628 36.4363 71.382 36.6047C71.7136 36.7796 71.7574 36.7745 72.0151 36.5305C72.2675 36.2915 72.316 36.2814 72.5609 36.4174C72.9041 36.6078 73.0136 36.5816 73.1644 36.273C73.2805 36.0358 73.3016 36.0314 73.5824 36.1873C73.9537 36.3933 74.0598 36.3712 74.2139 36.056C74.3296 35.8193 74.3591 35.817 74.7053 36.0175L75.0736 36.2309L75.3026 35.9032C75.5185 35.5943 75.5482 35.5845 75.8189 35.7348C76.1812 35.9358 76.2859 35.913 76.4525 35.5967C76.5763 35.3618 76.5993 35.3562 76.7592 35.5217C76.8544 35.6201 77.0306 35.6558 77.151 35.6009C77.309 35.5287 77.5526 35.6816 78.028 36.151C78.8627 36.9753 79.5596 37.2456 80.3514 37.0523L80.9367 36.9094L80.7455 35.9778C80.6404 35.4655 80.5905 34.9595 80.6347 34.8534C80.6862 34.7299 80.644 34.6365 80.517 34.5935C80.2271 34.4949 80.2616 34.4757 82.2077 33.6536L83.992 32.8998L84.3254 33.184C84.8435 33.6257 86.099 33.8637 87.1442 33.7184C88.0275 33.5956 88.036 33.5912 87.7049 33.4266C87.319 33.2349 86.8041 32.5569 86.7151 32.1232C86.6675 31.8911 86.5252 31.8068 86.0543 31.7313C85.2627 31.6045 85.4709 31.423 86.9775 30.9266C88.3348 30.4793 89.522 30.336 90.0586 30.5544C90.5934 30.7723 91.9446 31.1025 92.4254 31.1328C93.3054 31.1883 93.3296 30.8086 92.5263 29.5445L92.0065 28.7265L92.2464 28.1702C92.6501 27.234 94.9571 25.1832 96.8738 24.0566C97.209 23.8597 97.5298 23.6404 97.5865 23.5693C97.7651 23.3456 94.8649 24.025 94.1397 24.3766ZM102.396 26.0089C102.405 26.0504 103.058 26.2498 103.849 26.4523C107.671 27.4309 111.283 29.1046 112.97 30.6781L113.565 31.2327L113.021 31.7609C111.82 32.9259 110.675 35.1755 111.136 35.4622C111.362 35.6023 113.579 35.1381 114.357 34.7878C115.174 34.4199 116.098 33.7425 116.745 33.0365L117.276 32.4573L118.082 32.6473C118.989 32.8611 120.743 33.5522 120.775 33.7085C120.859 34.1194 119.501 35.4038 118.838 35.5398C118.487 35.6118 118.473 35.6498 118.531 36.347C118.565 36.7495 118.507 37.4106 118.402 37.8161C118.174 38.7032 118.188 38.7157 119.209 38.5027C120.592 38.2138 121.629 37.159 122.231 35.4284C122.378 35.0053 122.551 34.6485 122.615 34.6353C123.063 34.5435 125.176 36.7844 125.836 38.0518C127.512 41.2664 127.037 46.4169 125.068 46.3769C124.849 46.3724 124.545 46.3639 124.392 46.3579C123.977 46.3418 123.558 46.897 123.429 47.6327C123.222 48.8117 122.878 49.0925 121.882 48.896C120.683 48.6599 120.363 48.8503 120.201 49.8946C120.025 51.0309 119.562 51.3802 118.415 51.2418C117.64 51.1484 117.374 51.3627 117.096 52.306C116.75 53.4773 116.662 53.552 115.725 53.4694C114.844 53.3918 114.854 53.3833 114.653 54.4131C114.435 55.531 114.313 55.6437 113.086 55.8505L112.054 56.0246L111.882 57.0168C111.787 57.5625 111.659 58.0813 111.597 58.1697C111.499 58.3108 110.567 58.5303 109.853 58.5807C109.658 58.5944 109.585 58.7657 109.514 59.3712C109.439 60.0105 109.31 60.2898 108.771 60.986C107.908 62.0993 107.245 63.6454 107.102 64.8785C106.876 66.8234 105.95 69.0405 104.135 71.9791C103.646 72.77 103.253 73.4478 103.26 73.4853C103.297 73.6646 105.323 73.0636 106.118 72.6374C106.264 72.5595 106.416 72.6309 106.62 72.8722C106.781 73.0629 106.94 73.1803 106.973 73.1331C107.006 73.0858 106.949 72.983 106.846 72.9047C106.404 72.5695 106.716 72.2938 107.22 72.5738C107.484 72.72 107.583 72.747 107.441 72.6337C106.907 72.2088 106.89 72.1315 107.356 72.252C107.599 72.315 107.874 72.3484 107.967 72.3266C108.06 72.3046 107.912 72.2438 107.638 72.1912L107.141 72.0957L108.319 71.1827C108.967 70.6805 109.805 69.9686 110.18 69.6005C110.665 69.1248 111.099 68.8358 111.682 68.6015C112.766 68.1656 113.768 67.5984 114.764 66.8565L115.578 66.2495L116.569 66.6066C119.812 67.7745 123.824 67.7793 127.239 66.6193C128.017 66.3552 128.016 66.4356 127.248 65.6832C126.03 64.4913 123.877 63.4468 121.662 62.9739C120.737 62.7763 120.355 62.5408 120.81 62.4476C120.879 62.4334 121.416 62.0228 122.003 61.5352C126.126 58.111 129.485 52.2686 130.505 46.7481C130.69 45.7459 131.049 45.2035 131.602 45.0889C132.278 44.9486 132.739 43.6531 132.546 42.4352C132.259 40.6206 131.956 40.1387 131.422 40.6446C131.034 41.0118 131.104 41.1052 130.595 39.5321C129.888 37.3473 128.812 35.6168 127.212 34.0911L126.304 33.2256L126.434 32.5223C126.58 31.7274 126.401 30.1047 126.057 29.1114L125.827 28.4474L125.036 28.9148C123.373 29.8976 121.722 29.8951 120.102 28.9074C119.168 28.3379 119.005 28.4681 119.473 29.4084C119.621 29.7058 119.729 29.9685 119.711 29.9922C119.563 30.1953 117.688 29.5499 116.53 28.8972C112.666 26.7199 109.192 25.6797 105.608 25.6269C104.662 25.6131 102.371 25.8855 102.396 26.0089ZM104.585 26.0294C104.632 26.0733 104.854 26.1056 105.078 26.1011C105.89 26.085 106.337 26.1992 106.154 26.3759C106.009 26.517 106.012 26.5299 106.18 26.4774C106.696 26.3159 107.035 26.3155 106.863 26.4767C106.732 26.599 106.791 26.6173 107.109 26.5535C107.575 26.4601 107.847 26.6104 107.505 26.7729C107.385 26.8304 107.474 26.8456 107.704 26.8067C108.218 26.7197 108.56 26.7632 108.592 26.9199C108.606 26.9849 108.54 27.0122 108.447 26.9806C108.342 26.9448 108.324 26.9702 108.401 27.0471C108.468 27.1154 108.642 27.1471 108.787 27.1174C108.931 27.0877 109.192 27.1035 109.366 27.1524L109.683 27.2412L109.373 27.3969C109.064 27.5526 109.064 27.5526 109.435 27.4891C109.64 27.4543 109.948 27.4644 110.12 27.5114C110.425 27.5951 110.427 27.6004 110.193 27.7462C109.981 27.8781 109.992 27.8884 110.291 27.8353C110.476 27.8021 110.757 27.8304 110.915 27.898C111.183 28.0124 111.175 28.0229 110.802 28.0491C110.563 28.0658 110.669 28.1032 111.062 28.1412C111.783 28.2109 111.99 28.3952 111.397 28.4391C111.193 28.4542 111.321 28.4952 111.682 28.5301C112.424 28.602 112.693 28.7688 112.246 28.8802C112.032 28.9339 112.09 28.9616 112.452 28.9778C113.052 29.0048 113.721 29.37 113.171 29.3706C112.995 29.3708 113.125 29.4327 113.46 29.5082C114.158 29.6655 114.266 29.783 113.723 29.7941C113.488 29.7988 113.557 29.833 113.91 29.8862C114.652 29.998 114.93 30.1725 114.384 30.1828C114.031 30.1894 114.053 30.2073 114.548 30.3153C115.541 30.5317 115.87 30.9439 115.007 30.8894C114.321 30.846 114.363 30.9626 115.065 31.0479L115.669 31.1214L115.085 31.2724L114.502 31.4235L115.238 31.3539L115.975 31.2842L115.616 31.5281C115.418 31.6623 114.971 31.8801 114.622 32.0122L113.989 32.2522L114.699 32.052C115.089 31.942 115.549 31.784 115.719 31.7011C115.942 31.5927 116 31.5966 115.925 31.7148C115.867 31.8052 115.371 32.0853 114.823 32.3373C114.275 32.5892 113.946 32.7744 114.091 32.7487C114.236 32.723 114.691 32.5484 115.104 32.3606C116.718 31.6254 116.696 31.8871 115.058 32.9028C114.468 33.2685 114.185 33.4896 114.428 33.3941C114.671 33.2988 115.236 32.9825 115.684 32.6914C116.131 32.4002 116.505 32.2006 116.515 32.2479C116.541 32.3749 115.393 33.3615 114.831 33.6951C114.563 33.8541 114.446 33.9675 114.57 33.9471C114.694 33.9265 115.258 33.5535 115.824 33.1179C116.97 32.2358 117.163 32.171 116.57 32.8675C115.468 34.1623 113.202 35.2425 111.627 35.2242L111.25 35.2198L111.427 34.6011C111.633 33.8809 112.804 32.1682 113.433 31.6683C113.957 31.2511 113.964 31.2956 113.285 30.6499C111.579 29.0273 107.736 27.1788 104.268 26.3129C103.852 26.209 103.506 26.091 103.497 26.0504C103.476 25.9493 104.479 25.9299 104.585 26.0294ZM108.074 26.0592C110.857 26.4837 113.814 27.5667 116.379 29.0998L117.195 29.5872L116.867 29.8132L116.539 30.0391L116.92 29.8971C117.197 29.7937 117.683 29.8391 118.71 30.064C119.486 30.234 120.137 30.3489 120.158 30.3194C120.178 30.2898 120.053 30.0117 119.879 29.7011C119.428 28.8937 119.446 28.8603 120.126 29.2369C121.641 30.0759 123.37 30.0911 124.879 29.2784C125.298 29.0524 125.68 28.8915 125.727 28.9208C126.089 29.1455 126.382 32.479 126.08 32.9342C125.903 33.2014 125.723 32.5567 125.79 31.8952C125.829 31.5151 125.83 31.0898 125.793 30.9502C125.727 30.7041 125.725 30.7044 125.717 30.9569C125.692 31.8158 125.538 32.4949 125.39 32.4031C125.281 32.335 125.241 32.1161 125.264 31.7129C125.282 31.3882 125.264 30.9949 125.224 30.839C125.159 30.5901 125.149 30.5874 125.14 30.8164C125.092 32.1802 124.851 32.5156 124.737 31.3789L124.677 30.782L124.63 31.2813C124.56 32.044 124.178 31.7872 124.089 30.9174L124.023 30.269L123.996 30.8329C123.961 31.5555 123.577 31.4647 123.52 30.7202L123.483 30.2503L123.399 30.696C123.306 31.186 123.126 31.1786 123.018 30.6802C122.958 30.408 122.935 30.3959 122.861 30.5991C122.739 30.9337 122.375 30.842 122.276 30.4518C122.223 30.2434 122.188 30.209 122.178 30.3563C122.157 30.6663 121.973 30.6839 121.725 30.3994C121.572 30.2233 121.503 30.2103 121.449 30.3473C121.399 30.4746 121.651 30.6288 122.285 30.8581C124.138 31.5277 126.782 33.7154 127.003 34.7617C127.055 35.0051 127.264 35.424 127.468 35.6924C127.745 36.0587 127.893 36.45 128.059 37.2584C128.215 38.0175 128.4 38.5289 128.687 38.989C129.227 39.8552 129.233 39.9395 128.776 40.3341C128.41 40.6504 128.39 40.7273 128.466 41.543C128.568 42.6227 128.431 42.9712 127.78 43.287C127.129 43.6036 127.165 43.6589 127.138 42.3107C127.111 40.9688 126.66 39.1129 126.089 37.9999C125.366 36.5903 123.146 34.2475 121.982 33.6658L121.616 33.4829L121.948 33.7375C122.678 34.2969 122.716 34.3946 122.062 34.0245C120.871 33.3507 119.552 32.8177 118.09 32.419C116.642 32.0241 116.284 31.7842 115.916 30.9617C115.423 29.8598 110.29 27.0976 107.158 26.2489C105.625 25.8335 106.037 25.7482 108.074 26.0592ZM120.532 30.0653C120.505 30.2056 120.52 30.3434 120.565 30.3715C120.708 30.4602 120.775 30.2529 120.676 30.0273C120.586 29.8206 120.579 29.8224 120.532 30.0653ZM120.968 30.1837C120.959 30.328 121.011 30.4664 121.084 30.4913C121.157 30.5161 121.187 30.3934 121.151 30.2186C121.073 29.838 120.992 29.8226 120.968 30.1837ZM125.717 30.4499C125.753 30.5934 125.79 30.6164 125.811 30.5088C125.831 30.4114 125.804 30.3052 125.752 30.2729C125.7 30.2405 125.684 30.3202 125.717 30.4499ZM113.649 33.7158C113.751 33.7323 113.863 33.7046 113.898 33.6544C113.933 33.6043 113.85 33.5908 113.713 33.6245C113.561 33.6618 113.536 33.6976 113.649 33.7158ZM124.308 32.6147C124.917 33.0184 125.621 33.5105 125.871 33.7082L126.327 34.0679L126.006 33.7036C125.583 33.2242 124.274 32.306 123.675 32.0688C123.387 31.955 123.638 32.1706 124.308 32.6147ZM114.013 34.1588C114.115 34.1753 114.227 34.1477 114.262 34.0975C114.297 34.0473 114.214 34.0339 114.077 34.0676C113.925 34.1049 113.9 34.1407 114.013 34.1588ZM123.436 33.3665C123.73 33.5555 124 33.704 124.036 33.6966C124.072 33.6892 123.861 33.5286 123.567 33.3396C123.274 33.1507 123.004 33.0022 122.968 33.0096C122.932 33.017 123.143 33.1776 123.436 33.3665ZM121.076 33.8462C121.083 33.878 120.946 34.1392 120.772 34.4266C120.597 34.7139 120.516 34.9366 120.59 34.9214C120.664 34.9061 120.866 34.6464 121.038 34.344C121.21 34.0418 121.331 33.915 121.306 34.0625C121.266 34.3006 121.282 34.3064 121.447 34.1148C121.55 33.9961 121.641 33.9374 121.651 33.9845C121.69 34.1738 121.119 35.1147 120.741 35.485C120.519 35.7019 120.405 35.8654 120.488 35.8483C120.571 35.8313 120.921 35.4537 121.265 35.0093L121.891 34.2013L121.663 34.8308C121.537 35.1769 121.194 35.6987 120.9 35.9904C120.606 36.2821 120.427 36.5082 120.501 36.4929C120.74 36.4439 121.593 35.4306 121.811 34.9375C121.927 34.6748 122.033 34.5134 122.046 34.5787C122.06 34.6441 122.006 34.8238 121.928 34.9782C121.758 35.3118 121.767 35.5072 121.944 35.3474C122.196 35.1216 121.863 35.8764 121.387 36.6135C120.826 37.4814 119.944 38.1575 119.16 38.3201C118.854 38.3837 118.598 38.4088 118.591 38.3761C118.585 38.3434 118.641 37.8701 118.717 37.3244C118.793 36.7786 118.833 36.2233 118.805 36.0903C118.758 35.8594 119.116 35.648 120.062 35.3489C120.19 35.3085 120.351 35.1908 120.418 35.0875C120.517 34.9373 120.488 34.9403 120.278 35.1025C120.125 35.2203 120.222 34.9957 120.509 34.5663C121.03 33.7885 121.057 33.7541 121.076 33.8462ZM70.2158 45.163C72.9133 45.9013 75.5069 47.1186 76.7103 48.211L77.1897 48.6461L76.9159 48.9534C75.9868 49.9964 75.7342 50.3704 75.5191 51.0219C75.2029 51.9795 75.3029 52.0274 76.8128 51.6411C78.1442 51.3005 78.8792 50.8836 79.6163 50.0508C80.1047 49.499 80.1777 49.5022 81.8563 50.1496L82.7227 50.4838L82.4265 50.9316C82.0833 51.4502 81.6039 51.8526 81.2398 51.9273C80.9686 51.9829 80.8738 52.2356 80.9591 52.6751C80.9879 52.8234 80.9438 53.2164 80.8611 53.5483C80.6967 54.2088 80.8026 54.3411 81.4003 54.2224C82.4212 54.0193 83.4245 52.9977 83.7857 51.7934C83.9565 51.2241 83.9637 51.2182 84.2744 51.3896C86.4211 52.573 87.7846 56.1133 87.0603 58.6238C86.7219 59.7964 86.3919 60.1461 85.6902 60.0751C85.0736 60.0127 84.8884 60.204 84.5924 61.2087C84.3813 61.9252 84.1019 62.0788 83.257 61.9424C82.5473 61.8277 82.2962 62.0118 82.2247 62.699C82.1375 63.5359 81.8646 63.787 81.0735 63.7586C80.2306 63.7284 80.1098 63.8126 79.8583 64.6064L79.6505 65.2623L78.9246 65.3809L78.1987 65.4993L78.0045 66.2169L77.8103 66.9344L76.9466 67.1495C76.1228 67.3548 76.0799 67.383 76.0137 67.7616C75.9758 67.98 75.9127 68.3406 75.8736 68.5631C75.7953 69.0102 75.5154 69.1909 74.7554 69.2847C74.2842 69.3428 74.2522 69.3746 74.1791 69.8562C74.1365 70.1366 73.8236 70.7833 73.4835 71.2933C72.7543 72.3872 72.4658 73.1452 72.3055 74.3887C72.1631 75.4922 71.4031 77.2669 70.283 79.1113C69.558 80.3055 69.4955 80.4642 69.7466 80.4744C69.9733 80.4837 71.1619 80.1103 71.6635 79.8724C71.7185 79.8462 71.8792 79.9177 72.0206 80.0311C72.2494 80.2145 72.2632 80.2139 72.1456 80.0247C71.9801 79.7586 72.2333 79.5095 72.5743 79.6029C72.948 79.7051 73.0644 79.6481 72.7532 79.5152C72.5061 79.4097 72.5385 79.3577 73.1187 78.9276C73.4689 78.6682 74.11 78.1187 74.5436 77.7063C74.9772 77.2942 75.4644 76.9297 75.6264 76.8965C76.0504 76.8095 77.5146 76.0146 78.176 75.5124L78.7419 75.0827L79.5833 75.368C81.6846 76.0806 83.6477 76.1849 86.0303 75.7108C88.163 75.2864 88.2272 75.2195 87.281 74.4093C86.4077 73.6618 84.9672 72.9842 83.5644 72.6612C82.3864 72.39 82.387 72.3909 83.0235 71.9569C85.9823 69.9393 88.7643 65.4718 89.8216 61.0395C90.2007 59.4505 90.175 59.5016 90.7625 59.1637C91.5219 58.727 91.6994 58.0778 91.4251 56.7413C91.1921 55.6056 91.1076 55.4945 90.6956 55.7825C90.4095 55.9825 90.4062 55.9785 90.1315 55.1102C89.5819 53.3728 88.4392 51.5701 87.2617 50.5825C86.8508 50.2378 86.8479 50.229 86.9317 49.5674C87.0128 48.9276 86.6829 46.8031 86.4831 46.6789C86.4343 46.6486 86.0821 46.8046 85.7006 47.0255C84.5629 47.6844 83.2559 47.6583 82.1872 46.9554C81.5539 46.5389 81.4386 46.6013 81.6677 47.2366L81.8607 47.772L81.1722 47.6242C80.7935 47.543 79.9477 47.1812 79.2925 46.8202C75.8922 44.9466 72.6584 44.1697 69.964 44.579L68.7538 44.7629L70.2158 45.163ZM120.961 34.6688C120.823 34.8842 120.555 35.201 120.365 35.3725C120.175 35.5442 120.084 35.6716 120.164 35.6555C120.334 35.6213 121.192 34.7507 121.283 34.5203C121.412 34.1941 121.203 34.2904 120.961 34.6688ZM124.323 34.026C124.481 34.1359 124.64 34.2197 124.677 34.2123C124.713 34.2049 124.612 34.109 124.454 33.9991C124.295 33.8892 124.136 33.8054 124.1 33.8128C124.064 33.8202 124.164 33.9161 124.323 34.026ZM125.145 34.731C125.407 34.9798 125.646 35.1784 125.676 35.1721C125.771 35.1527 125.114 34.4997 124.886 34.386C124.767 34.3268 124.884 34.4822 125.145 34.731ZM121.508 35.8785C121.397 36.1123 121.067 36.5329 120.774 36.8133C120.48 37.0937 120.301 37.3107 120.375 37.2956C120.709 37.2269 121.984 35.6246 121.797 35.5081C121.749 35.4782 121.619 35.6448 121.508 35.8785ZM128.559 36.0044C129.431 37.2211 130.073 38.5468 130.47 39.9487C130.964 41.6966 130.686 45.3815 129.824 48.4951C129.314 50.3349 128.354 52.823 128.152 52.8255C128.08 52.8265 127.64 53.457 127.175 54.2268C125.795 56.5117 124.145 58.4505 122.082 60.213C120.975 61.159 120.911 61.3345 121.995 60.4535C124.228 58.6381 126.32 56.1416 127.591 53.7736C128.168 52.6986 128.327 52.7651 127.775 53.8507C126.163 57.0216 123.791 59.9038 121.135 61.9179C120.15 62.6654 119.987 62.7458 119.09 62.9299C117.417 63.2731 116.231 64.1135 115.78 65.2748C115.657 65.5911 115.481 65.8406 115.388 65.829C115.296 65.8176 115.264 65.874 115.317 65.9545C115.449 66.1515 113.536 67.5014 112.302 68.0825C111.026 68.6836 110.853 68.7043 111.26 68.2068C111.774 67.5777 111.38 67.9467 110.345 69.0622C108.607 70.9365 105.58 72.9107 104.179 73.0844L103.681 73.1463L104.382 72.0317C106.079 69.33 107.052 67.0174 107.324 65.0349C107.568 63.2527 108.574 61.2768 109.753 60.2649C110.025 60.0315 110.308 59.7227 110.381 59.579C110.496 59.3554 110.493 59.3455 110.363 59.5105C110.115 59.8265 110.007 59.7724 109.906 59.2807L109.81 58.815L110.666 58.6826C111.461 58.5596 111.572 58.5051 112.223 57.9202C112.609 57.5737 112.948 57.231 112.977 57.1588C113.005 57.0865 112.899 57.1505 112.74 57.3007C112.393 57.6292 112.3 57.5282 112.254 56.7738L112.223 56.2488L113.224 56.0879C114.157 55.938 114.266 55.8905 114.822 55.393C115.424 54.8534 115.568 54.6599 115.195 54.8887C115.034 54.988 115.002 54.9606 115.041 54.7546C115.067 54.6122 115.091 54.3306 115.092 54.1288C115.094 53.8281 115.148 53.7659 115.387 53.7837C116.263 53.8489 116.676 53.7423 117.334 53.2809C117.937 52.8579 118.266 52.5031 117.777 52.8042C117.605 52.9099 117.577 52.8575 117.572 52.4215C117.562 51.6011 117.72 51.4726 118.618 51.5711L119.379 51.6546L120.293 51.0365C120.796 50.6965 121.232 50.3581 121.261 50.2846C121.29 50.211 121.205 50.237 121.072 50.3426C120.733 50.6123 120.737 50.6152 120.64 50.0095C120.494 49.0945 120.628 48.9871 121.651 49.1984C122.54 49.3822 122.918 49.2655 123.594 48.5967C124.302 47.8967 124.358 47.8262 124.057 48.0112C123.867 48.1281 123.836 48.108 123.876 47.8934C123.903 47.751 123.926 47.469 123.927 47.2668C123.931 46.7979 124.126 46.6834 124.853 46.7249C125.608 46.7679 125.913 46.581 126.79 45.5354C127.166 45.088 127.372 44.7834 127.247 44.8588C127.051 44.9779 127.024 44.9488 127.042 44.6347C127.072 44.1075 127.212 43.9292 127.82 43.6454C128.12 43.5055 128.461 43.2474 128.578 43.0718C128.811 42.7235 129.144 41.5214 128.963 41.6843C128.604 42.0071 128.698 40.8857 129.063 40.4875C129.448 40.0684 129.451 40.0481 129.259 39.1786C129.138 38.6305 129.054 38.4178 129.037 38.6179C128.989 39.1937 128.51 38.1267 128.251 36.8647C128.064 35.9525 127.952 35.6648 127.674 35.3802C127.484 35.186 127.307 34.9152 127.281 34.7782C127.199 34.3584 127.778 34.9141 128.559 36.0044ZM126.145 35.785C126.365 36.0588 126.563 36.2569 126.585 36.2251C126.633 36.1568 125.896 35.2565 125.807 35.2747C125.774 35.2816 125.926 35.5112 126.145 35.785ZM126.67 36.4569C126.684 36.5252 126.769 36.6532 126.86 36.7414C126.951 36.8295 127.014 36.8458 127 36.7774C126.986 36.7091 126.9 36.5811 126.809 36.493C126.718 36.4048 126.656 36.3886 126.67 36.4569ZM127.301 37.5032C127.337 37.6466 127.374 37.6697 127.395 37.5621C127.415 37.4646 127.388 37.3584 127.336 37.3261C127.284 37.2938 127.268 37.3734 127.301 37.5032ZM127.534 37.9731C127.57 38.1165 127.607 38.1396 127.628 38.032C127.648 37.9346 127.621 37.8284 127.569 37.796C127.517 37.7637 127.501 37.8434 127.534 37.9731ZM127.788 38.4928C127.823 38.6635 127.867 38.7274 127.886 38.6345C127.904 38.5417 127.876 38.4019 127.822 38.3239C127.768 38.2461 127.753 38.322 127.788 38.4928ZM128.127 39.5341C128.163 39.6775 128.2 39.7006 128.222 39.593C128.241 39.4956 128.214 39.3893 128.162 39.357C128.11 39.3247 128.095 39.4043 128.127 39.5341ZM132.12 41.3973C132.372 42.1227 132.418 43.2888 132.224 44.0115C132.101 44.4727 131.847 44.7185 131.073 45.1253C130.662 45.3414 130.648 44.9817 131.056 44.7097C131.317 44.5361 131.326 44.5126 131.102 44.5985C130.7 44.7522 130.702 44.5158 131.104 44.279C131.289 44.1706 131.546 44.0025 131.676 43.9053C131.919 43.7246 131.72 43.7937 131.071 44.116C130.952 44.1752 130.841 44.1622 130.826 44.0872C130.811 44.0122 130.895 43.8987 131.013 43.8351C131.547 43.5485 131.706 43.3837 131.295 43.5432C130.715 43.7685 130.738 43.5255 131.325 43.2204C131.594 43.0809 131.842 42.8952 131.876 42.8079C131.915 42.7095 131.887 42.6958 131.802 42.7723C131.727 42.8399 131.5 42.9787 131.298 43.0808C130.754 43.3557 130.746 42.9945 131.289 42.6937C131.524 42.5635 131.743 42.3919 131.774 42.3123C131.81 42.2215 131.741 42.239 131.59 42.3596C131.457 42.4651 131.256 42.5704 131.143 42.5936C130.799 42.6642 130.87 42.4243 131.258 42.201C131.704 41.9451 131.721 41.841 131.288 42.0143C130.866 42.1838 130.836 41.9398 131.238 41.6026C131.498 41.3848 131.506 41.3595 131.279 41.4695C130.866 41.6696 130.894 41.4115 131.326 41.0335C131.809 40.6113 131.856 40.6326 132.12 41.3973ZM129.777 44.2979C129.791 44.3662 129.861 44.41 129.933 44.3952C130.005 44.3804 130.053 44.3124 130.039 44.2441C130.025 44.1758 129.954 44.132 129.882 44.1468C129.81 44.1615 129.763 44.2295 129.777 44.2979ZM129.29 46.4765C129.346 46.6276 129.476 46.7595 129.578 46.7699C129.705 46.7826 129.732 46.7006 129.662 46.5141C129.606 46.363 129.477 46.231 129.374 46.2207C129.248 46.2079 129.221 46.2899 129.29 46.4765ZM129.005 47.638C128.981 47.769 128.864 47.8465 128.7 47.8399C128.48 47.831 128.452 47.8855 128.539 48.1538C128.597 48.3324 128.61 48.5726 128.57 48.6878C128.51 48.8564 128.523 48.8605 128.637 48.7093C128.741 48.5717 128.833 48.5484 128.981 48.6222C129.141 48.7024 129.166 48.6416 129.101 48.3271C129.056 48.1093 129.059 47.8104 129.106 47.663C129.154 47.5155 129.159 47.4018 129.118 47.4101C129.077 47.4185 129.026 47.521 129.005 47.638ZM128.918 48.0985C128.932 48.1668 128.917 48.2281 128.885 48.2346C128.853 48.2411 128.78 48.198 128.721 48.1389C128.662 48.0797 128.677 48.0184 128.753 48.0028C128.83 47.9871 128.904 48.0302 128.918 48.0985ZM120.552 50.5918C120.566 50.6601 120.515 50.7288 120.438 50.7445C120.362 50.7601 120.325 50.7096 120.355 50.6321C120.386 50.5547 120.437 50.486 120.468 50.4794C120.5 50.4729 120.538 50.5235 120.552 50.5918ZM128.309 49.2499C128.223 49.4644 128.141 49.506 127.923 49.4464C127.517 49.3352 127.361 49.6125 127.631 49.9672C127.905 50.3279 127.688 50.6419 127.247 50.5213C126.707 50.3734 126.63 50.4705 126.836 51.0414C127.068 51.6848 126.618 52.4463 126.092 52.3023C125.56 52.1569 125.319 52.5035 125.671 52.9072C125.815 53.0731 125.782 53.1847 125.494 53.5066C125.142 53.8994 125.137 53.901 124.773 53.7302C124.283 53.5004 124.141 53.6658 124.343 54.2321C124.562 54.8458 124.317 55.0832 123.727 54.8278C123.12 54.5646 122.86 54.7804 123.071 55.3718L123.238 55.8402L122.747 55.6844C122.124 55.4865 121.958 55.637 122.143 56.2298C122.287 56.6924 122.285 56.6955 121.977 56.5237C121.451 56.2311 120.999 56.154 120.872 56.3355C120.739 56.5257 120.856 57.216 121.075 57.5389C121.221 57.753 121.213 57.7537 120.934 57.5518C120.3 57.092 119.811 57.0036 119.653 57.3202C119.576 57.4744 119.569 57.7679 119.637 57.9725L119.76 58.3446L119.253 58.1483C118.491 57.8535 118.248 58.0034 118.388 58.6835C118.445 58.961 118.442 58.9624 117.938 58.8896C117.48 58.8234 117.365 58.9987 117.483 59.5868L117.56 59.9752L116.972 59.8336C115.543 59.4899 116.255 61.1022 117.736 61.5646L118.189 61.7056L118.058 61.0679L117.927 60.4301L118.565 60.7615C119.294 61.1406 119.322 61.1269 119.28 60.4098L119.248 59.8815L119.75 60.1375C120.373 60.455 120.44 60.3654 120.255 59.4625L120.108 58.7452L120.729 59.0512C121.47 59.4155 121.532 59.3608 121.354 58.4957C121.197 57.7313 121.263 57.6801 121.884 58.0849C122.134 58.2473 122.408 58.3657 122.495 58.3479C122.699 58.3061 122.693 57.5196 122.485 57.1015L122.324 56.7768L122.913 57.0695C123.608 57.4145 123.772 57.2374 123.489 56.4459C123.302 55.9217 123.382 55.8432 123.806 56.1372C124.296 56.4766 124.461 56.3298 124.326 55.6734C124.166 54.8945 124.486 54.5244 125.042 54.8461L125.394 55.05L125.413 54.7039C125.424 54.5135 125.386 54.2703 125.328 54.1635C125.264 54.044 125.35 53.8268 125.552 53.5982C125.863 53.2461 125.899 53.234 126.248 53.3628C126.677 53.521 126.793 53.3156 126.57 52.7916C126.48 52.5781 126.538 52.3767 126.792 52.0242C127.131 51.556 127.145 51.5492 127.523 51.6884L127.908 51.8304L127.781 51.2102C127.635 50.501 127.813 50.128 128.169 50.3978C128.422 50.5901 128.576 50.1451 128.365 49.8287C128.303 49.7344 128.319 49.498 128.402 49.3036C128.485 49.1093 128.522 48.9563 128.485 48.964C128.448 48.9716 128.369 49.1002 128.309 49.2499ZM120.005 51.9229C118.486 53.0043 116.857 54.283 115.418 55.5232C114.321 56.4679 112.424 58.2389 112.437 58.3049C112.444 58.3394 112.566 58.2581 112.708 58.1242C114.367 56.5535 117.809 53.7084 119.977 52.1159C121.021 51.3485 121.817 50.7333 121.745 50.7491C121.673 50.7648 120.89 51.293 120.005 51.9229ZM128.176 49.8115C128.19 49.8759 128.141 49.9405 128.069 49.9553C127.997 49.9701 127.92 49.895 127.899 49.7886C127.877 49.6821 127.925 49.6173 128.006 49.6448C128.086 49.6722 128.163 49.7472 128.176 49.8115ZM117.44 53.0094C117.327 53.1718 117.214 53.0001 117.264 52.7412C117.311 52.4983 117.318 52.4965 117.408 52.7032C117.46 52.8227 117.475 52.9604 117.44 53.0094ZM127.494 50.8839C127.753 51.1409 127.546 51.3373 127.268 51.0979C127.139 50.9865 127.023 50.8452 127.01 50.7844C126.976 50.6182 127.292 50.683 127.494 50.8839ZM126.243 52.6008C126.403 52.8411 126.255 53.0191 126.058 52.8238C125.848 52.6162 125.825 52.487 125.991 52.4528C126.066 52.4376 126.179 52.5041 126.243 52.6008ZM125.106 54.1497C125.166 54.4432 124.804 54.3227 124.689 54.0106C124.596 53.7613 124.614 53.7405 124.826 53.8466C124.959 53.9135 125.085 54.0499 125.106 54.1497ZM123.832 55.067C124.011 55.1909 124.061 55.3071 123.998 55.4536C123.922 55.6329 123.874 55.6341 123.665 55.4618C123.191 55.07 123.337 54.724 123.832 55.067ZM123.234 56.3439C123.286 56.5977 123.255 56.6287 123.015 56.563C122.702 56.4772 122.438 56.1042 122.528 55.8745C122.621 55.6393 123.164 56.0002 123.234 56.3439ZM121.814 56.6308C121.982 56.7235 122.131 56.9581 122.182 57.2075L122.269 57.6278L121.943 57.4407C121.749 57.3297 121.644 57.183 121.685 57.0802C121.727 56.9729 121.706 56.9497 121.628 57.0194C121.463 57.1675 121.295 56.9889 121.345 56.7186C121.395 56.4493 121.464 56.4363 121.814 56.6308ZM120.971 58.0787C121.098 58.5055 121.09 58.5275 120.852 58.3796C120.711 58.2918 120.541 58.231 120.476 58.2444C120.317 58.2771 120.055 57.7365 120.133 57.5378C120.258 57.2225 120.823 57.588 120.971 58.0787ZM109.788 59.9543C109.684 60.1026 109.666 60.0914 109.7 59.8998C109.725 59.7672 109.784 59.6832 109.832 59.7132C109.88 59.7431 109.86 59.8516 109.788 59.9543ZM119.534 58.47C119.771 58.6318 119.867 58.8064 119.879 59.0993L119.895 59.5045L119.532 59.3126C119.333 59.207 119.191 59.0668 119.217 59.001C119.243 58.9352 119.202 58.8943 119.125 58.9099C118.973 58.9412 118.851 58.5432 118.963 58.3822C119.079 58.2172 119.189 58.2342 119.534 58.47ZM118.51 59.3462C118.749 59.5049 118.876 59.7033 118.896 59.9466L118.926 60.3099L118.497 60.0478C118.252 59.8982 118.04 59.6504 118.003 59.4696C117.922 59.075 118.055 59.0427 118.51 59.3462ZM117.323 60.1584C117.542 60.2646 117.663 60.4281 117.674 60.6291L117.689 60.9369L117.264 60.6933C116.568 60.2953 116.621 59.8174 117.323 60.1584ZM110.43 62.2518C110.219 62.3634 109.99 62.5522 109.922 62.6712C109.82 62.8514 109.863 62.8402 110.177 62.6045C110.725 62.1925 111.82 62.0842 112.577 62.3671C114.451 63.0678 114.642 65.6701 112.912 66.9409C112.497 67.2459 112.485 67.27 112.815 67.1333C114.767 66.3245 114.957 62.9545 113.107 61.9635C112.499 61.6379 112.126 61.6301 112.584 61.9526L112.888 62.1668L112.422 62.0483C111.831 61.8977 110.927 61.9902 110.43 62.2518ZM110.652 62.6688C110.629 62.8081 110.596 62.969 110.577 63.0262C110.559 63.0835 110.599 63.1189 110.667 63.1049C110.798 63.0781 110.877 62.5303 110.761 62.458C110.723 62.4345 110.674 62.5295 110.652 62.6688ZM111.356 63.0314C111.286 63.1542 111.268 63.2793 111.317 63.3094C111.365 63.3395 111.447 63.234 111.498 63.075C111.607 62.7357 111.536 62.714 111.356 63.0314ZM111.971 63.355C111.762 63.5509 111.969 63.5084 112.299 63.2878C112.457 63.1819 112.472 63.1387 112.341 63.1608C112.232 63.1792 112.066 63.2666 111.971 63.355ZM112.781 63.7963C112.915 63.8016 113.092 63.7632 113.174 63.711C113.255 63.6588 113.146 63.6544 112.93 63.7013C112.714 63.7482 112.647 63.7909 112.781 63.7963ZM121.495 63.1758C123.831 63.7258 125.737 64.6063 126.86 65.6546C127.636 66.3779 127.595 66.4122 125.585 66.7327C123.029 67.1401 120.875 67.0714 118.594 66.5093C117.117 66.1455 117.146 66.0617 118.637 66.3855C119.846 66.6482 121.881 66.8893 122.237 66.8124C122.347 66.7885 121.785 66.6991 120.988 66.6134C119.63 66.4674 117.393 65.9745 116.74 65.6773C116.58 65.6044 117.092 65.6819 117.877 65.8492C119.239 66.1396 122.007 66.4811 122.335 66.3993C122.42 66.378 121.733 66.2682 120.809 66.1552C119.227 65.962 116.35 65.3919 116.324 65.2665C116.318 65.235 116.996 65.322 117.832 65.4596C119.486 65.7317 122.581 66.0017 122.78 65.8909C122.848 65.853 122.474 65.8041 121.95 65.7824C120.774 65.7334 117.385 65.2814 116.696 65.0815C116.416 65.0004 116.313 64.9477 116.467 64.9642C116.621 64.9808 117.466 65.0743 118.346 65.1718C120.07 65.3631 121.55 65.4461 121.614 65.3553C121.635 65.3242 121.141 65.2671 120.514 65.2286C119.027 65.1369 116.754 64.8508 116.557 64.7304C116.472 64.6784 116.686 64.6716 117.032 64.7152C117.941 64.8298 121.055 64.987 121.298 64.9306C121.411 64.9042 120.569 64.8198 119.426 64.7429C116.109 64.5198 115.719 64.3972 118.643 64.4968C119.654 64.5311 120.754 64.539 121.087 64.5144C121.42 64.4897 120.657 64.4309 119.392 64.3839C118.126 64.3367 117.035 64.2597 116.966 64.2124C116.898 64.1653 116.952 64.1405 117.087 64.1576C117.571 64.2186 120.742 64.1659 120.869 64.0947C120.941 64.0548 120.29 64.0295 119.422 64.0385C118.554 64.0476 117.864 64.0266 117.888 63.9919C117.913 63.9572 118.435 63.9165 119.049 63.9014C119.663 63.8863 120.262 63.8486 120.378 63.8176C120.59 63.761 120.381 63.7539 118.504 63.7533C117.959 63.7531 117.532 63.7017 117.557 63.6391C117.581 63.5766 117.987 63.5247 118.457 63.5239C118.927 63.5231 119.459 63.4884 119.638 63.4469C119.818 63.4056 119.57 63.3708 119.087 63.3699C117.839 63.3675 117.858 63.2779 119.151 63.0695C120.146 62.9092 120.415 62.9213 121.495 63.1758ZM113.321 64.5915C113.523 64.6705 113.744 64.7853 113.812 64.8468C113.895 64.9218 113.926 64.9097 113.907 64.8098C113.876 64.6495 113.3 64.3768 113.085 64.4209C113.013 64.4357 113.119 64.5124 113.321 64.5915ZM108.338 65.963C108.078 66.5738 108.608 67.0696 108.925 66.5121C109.07 66.2564 108.885 65.6459 108.655 65.623C108.564 65.614 108.422 65.767 108.338 65.963ZM120.15 63.4452C120.248 63.4612 120.395 63.431 120.478 63.378C120.561 63.3251 120.481 63.312 120.301 63.349C120.121 63.386 120.053 63.4293 120.15 63.4452ZM120.776 63.8345C120.874 63.8505 121.021 63.8203 121.104 63.7673C121.187 63.7144 121.108 63.7013 120.927 63.7383C120.747 63.7753 120.679 63.8186 120.776 63.8345ZM113.326 65.5907C113.485 65.6589 113.638 65.6826 113.666 65.6433C113.724 65.5602 113.341 65.4089 113.159 65.4432C113.091 65.4562 113.166 65.5224 113.326 65.5907ZM121.246 64.1265C121.343 64.1425 121.491 64.1122 121.574 64.0592C121.657 64.0063 121.577 63.9933 121.397 64.0302C121.217 64.0672 121.149 64.1105 121.246 64.1265ZM112.901 66.1794C112.975 66.2917 113.063 66.3456 113.095 66.2991C113.128 66.2527 113.067 66.1607 112.96 66.0947C112.806 65.9996 112.794 66.0169 112.901 66.1794ZM112.372 66.6383C112.386 66.7067 112.456 66.7505 112.528 66.7357C112.6 66.7209 112.648 66.6529 112.634 66.5846C112.62 66.5162 112.549 66.4724 112.477 66.4872C112.405 66.502 112.358 66.57 112.372 66.6383ZM117.312 66.0868C117.319 66.1209 117.195 66.1133 117.035 66.0698C116.876 66.0262 116.74 65.9627 116.733 65.9285C116.726 65.8944 116.851 65.902 117.01 65.9455C117.169 65.9891 117.305 66.0526 117.312 66.0868ZM121.695 64.9431C121.797 64.9596 121.909 64.9319 121.945 64.8817C121.98 64.8316 121.896 64.8181 121.759 64.8518C121.608 64.8891 121.583 64.9249 121.695 64.9431ZM106.506 68.6879C106.332 68.9946 106.55 69.0945 106.754 68.8018C106.853 68.6605 106.862 68.5444 106.776 68.5152C106.697 68.4882 106.575 68.566 106.506 68.6879ZM121.928 65.413C122.03 65.4295 122.142 65.4019 122.178 65.3517C122.213 65.3015 122.129 65.2881 121.992 65.3218C121.841 65.3591 121.816 65.3949 121.928 65.413ZM123.308 66.8127C123.41 66.8292 123.522 66.8015 123.557 66.7513C123.592 66.7011 123.509 66.6877 123.372 66.7214C123.221 66.7587 123.196 66.7945 123.308 66.8127ZM72.3164 79.7635C72.3428 79.8925 72.6304 80.028 72.6892 79.9392C72.7083 79.9104 72.6266 79.8316 72.5076 79.7643C72.3887 79.6968 72.3026 79.6964 72.3164 79.7635Z" fill="#EE4C1F"/>
</g>
</svg>
