<svg width="71" height="70" viewBox="0 0 71 70" fill="none" xmlns="http://www.w3.org/2000/svg">
<path fill-rule="evenodd" clip-rule="evenodd" d="M24.4043 0.150175C7.88104 1.8796 -3.28614 18.1879 0.966612 34.3783C2.93394 41.8685 8.23787 48.3362 15.2689 51.8192L16.4358 52.3973L16.4328 55.6808L16.4299 58.9643L15.9884 59.1693C15.1393 59.5636 15.1393 60.6883 15.9884 61.0826L16.4299 61.2875L16.4328 64.5376C16.4365 68.5481 16.5904 69.0531 18.0092 69.7071C18.7872 70.0657 66.4453 70.111 67.3008 69.7539C68.8008 69.128 68.967 68.6129 68.9744 64.5674L68.9803 61.2875L69.4218 61.0826C70.2709 60.6883 70.2709 59.5636 69.4218 59.1693L68.9803 58.9643L68.9774 55.5075L68.9744 52.0506L68.6385 51.7152C68.3642 51.4411 68.1663 51.3797 67.5568 51.3797H66.811L66.7201 50.72C66.5208 49.2727 65.2176 47.6867 63.9045 47.2938L63.3757 47.1356L63.4576 46.2607C63.6375 44.3367 62.4473 42.4677 60.628 41.8176L60.1488 41.6464L60.1468 40.4659C60.1408 36.9763 56.235 34.8217 53.4745 36.7851C52.9433 37.1628 52.9397 37.1217 53.3889 35.7841C55.646 29.0627 55.0248 21.3549 51.7016 14.8485C46.5886 4.83774 35.6894 -1.03098 24.4043 0.150175ZM31.8964 2.58819C45.8121 5.1511 54.8574 18.6191 51.9994 32.5206C51.573 34.5941 50.9339 36.3853 50.6604 36.2728C50.5366 36.2218 50.027 36.1484 49.5277 36.1097L48.6201 36.0394L49.0246 34.9319C55.1242 18.2385 40.1434 1.12757 22.6256 4.77939C6.07243 8.23005 -1.13397 27.9522 9.26839 41.3352C11.6486 44.3976 15.8506 47.5404 19.0066 48.6189L19.4568 48.7728L19.1961 49.2904C19.0529 49.5751 18.8601 50.0411 18.7679 50.3259C18.5601 50.9674 18.6148 50.9796 16.0938 49.7332C3.66879 43.5904 -1.35986 28.3585 4.95202 15.9848C8.92306 8.20012 16.007 3.36578 25.0554 2.26553C26.2902 2.11534 30.3755 2.30803 31.8964 2.58819ZM30.8341 6.76984C35.3476 7.53718 39.4948 9.77239 42.6011 13.1121C43.5241 14.1046 45.031 16.0906 45.031 16.3146C45.031 16.3587 44.4599 16.3948 43.7619 16.3948H42.4927L41.3875 15.1221C33.9861 6.59942 20.4213 6.68921 13.1977 15.3088L12.2876 16.3948H11.0096C10.3067 16.3948 9.73166 16.3587 9.73166 16.3146C9.73166 15.9997 11.4258 13.8819 12.6737 12.6366C17.5518 7.76896 24.158 5.63488 30.8341 6.76984ZM30.6428 11.2616C33.7852 11.9338 36.8671 13.5832 38.9374 15.7004L39.6164 16.3948L27.3761 16.3892L15.136 16.3837L16.1872 15.3827C19.9291 11.8194 25.6404 10.1913 30.6428 11.2616ZM46.4479 18.9572C48.7649 23.4788 48.6667 30.8709 46.2216 35.976L45.6467 37.1764L45.1641 36.8458C43.6978 35.8415 41.7241 35.8397 40.2485 36.8411C39.6414 37.2532 39.2014 37.2532 38.5943 36.8411C37.1215 35.8415 35.154 35.8415 33.6812 36.8411C33.0741 37.2532 32.6341 37.2532 32.027 36.8411C30.5542 35.8415 28.5867 35.8415 27.1139 36.8411L26.6338 37.1671H17.8605H9.08724L8.53449 35.9713C6.13742 30.7864 5.98405 24.2303 8.14565 19.3481L8.48524 18.5813H27.3703H46.2554L46.4479 18.9572ZM26.8654 19.7661C26.7698 19.8046 26.5954 20.0216 26.4781 20.2483C25.9064 21.3523 27.267 22.3978 28.14 21.5257C29.0011 20.6657 28.0149 19.3041 26.8654 19.7661ZM9.10982 21.1034C8.89802 21.3148 8.77393 21.595 8.77393 21.8612C8.77393 22.1274 8.89802 22.4075 9.10982 22.619L9.44557 22.9545H14.2467H19.0478L19.3836 22.619C19.5954 22.4075 19.7195 22.1274 19.7195 21.8612C19.7195 21.595 19.5954 21.3148 19.3836 21.1034L19.0478 20.7679H14.2467H9.44557L9.10982 21.1034ZM35.3791 21.1034C35.1673 21.3148 35.0432 21.595 35.0432 21.8612C35.0432 22.1274 35.1673 22.4075 35.3791 22.619L35.7149 22.9545H40.516H45.3171L45.6529 22.619C45.8647 22.4075 45.9887 22.1274 45.9887 21.8612C45.9887 21.595 45.8647 21.3148 45.6529 21.1034L45.3171 20.7679H40.516H35.7149L35.3791 21.1034ZM24.6763 21.9526C24.5806 21.9911 24.4063 22.2082 24.2889 22.4349C23.7173 23.5388 25.0778 24.5844 25.9509 23.7122C26.812 22.8522 25.8258 21.4907 24.6763 21.9526ZM29.0545 21.9526C28.9589 21.9911 28.7846 22.2082 28.6672 22.4349C28.0955 23.5388 29.4561 24.5844 30.3291 23.7122C31.1902 22.8522 30.2041 21.4907 29.0545 21.9526ZM24.182 25.6877C23.7281 26.1054 23.4768 26.2343 23.1156 26.2343C21.5372 26.2343 19.5246 27.0324 18.3254 28.1339C17.626 28.7762 17.5988 28.828 17.5988 29.5141C17.5988 30.2003 17.626 30.2521 18.3254 30.8944C19.5246 31.9959 21.5372 32.794 23.1156 32.794C23.4768 32.794 23.7281 32.9228 24.182 33.3406C24.8956 33.9977 25.4396 34.0626 25.9509 33.5517C26.1356 33.3673 26.2868 33.1282 26.2868 33.0207C26.2868 32.8609 26.7201 32.8131 28.6469 32.7606C30.659 32.7057 31.1685 32.6461 32.1016 32.3565C32.7036 32.1697 33.856 31.811 34.6624 31.5594L36.1287 31.1021L37.0108 31.948C38.0249 32.9208 38.5047 33.0387 39.0855 32.4585C39.6658 31.879 39.5481 31.3988 38.5788 30.3905L37.7362 29.5141L38.5788 28.6377C39.5481 27.6295 39.6658 27.1492 39.0855 26.5698C38.4972 25.982 38.024 26.105 36.9732 27.1182L36.0565 28.0021L33.5318 27.1618L31.007 26.3215L28.6572 26.2626L26.3073 26.2037L26.1509 25.8268C25.8101 25.0049 24.9866 24.9468 24.182 25.6877ZM9.10982 27.6631C8.89802 27.8745 8.77393 28.1546 8.77393 28.4209C8.77393 28.6871 8.89802 28.9672 9.10982 29.1786C9.63493 29.7033 14.4802 29.7033 15.0054 29.1786C15.2172 28.9672 15.3412 28.6871 15.3412 28.4209C15.3412 28.1546 15.2172 27.8745 15.0054 27.6631C14.4802 27.1384 9.63493 27.1384 9.10982 27.6631ZM32.0332 28.9585C32.7481 29.2083 33.3807 29.4555 33.439 29.5078C33.4973 29.56 32.8816 29.8136 32.0708 30.071L30.5966 30.5391H26.2868H21.977L21.0534 30.1022C19.9486 29.5793 19.9273 29.4846 20.8135 29.0361C21.9183 28.4769 22.3216 28.4378 26.6288 28.4717L30.7334 28.5041L32.0332 28.9585ZM9.10982 33.1295C8.89802 33.3409 8.77393 33.621 8.77393 33.8872C8.77393 34.1535 8.89802 34.4336 9.10982 34.645C9.63493 35.1697 14.4802 35.1697 15.0054 34.645C15.2172 34.4336 15.3412 34.1535 15.3412 33.8872C15.3412 33.621 15.2172 33.3409 15.0054 33.1295C14.4802 32.6048 9.63493 32.6048 9.10982 33.1295ZM30.7694 38.6255C32.1578 39.661 32.0829 41.2968 30.6062 42.1893C29.7526 42.7054 29.3848 42.7386 28.8179 42.3511C28.5922 42.1968 28.266 42.0132 28.0931 41.9429C27.5102 41.7062 27.2109 40.504 27.5273 39.67C28.0022 38.4178 29.74 37.8579 30.7694 38.6255ZM37.3367 38.6255C38.7252 39.661 38.6502 41.2968 37.1735 42.1893C36.3199 42.7054 35.9521 42.7386 35.3853 42.3511C35.1595 42.1968 34.8333 42.0132 34.6604 41.9429C34.0775 41.7062 33.7782 40.504 34.0946 39.67C34.5695 38.4178 36.3073 37.8579 37.3367 38.6255ZM43.4829 38.4062C45.2235 39.0649 45.3695 41.205 43.7408 42.1893C42.8872 42.7054 42.5194 42.7386 41.9526 42.3511C41.7268 42.1968 41.4007 42.0132 41.2277 41.9429C40.8697 41.7975 40.516 41.0608 40.516 40.4602C40.516 38.939 42.0623 37.8684 43.4829 38.4062ZM50.5809 38.7361C51.8712 39.7189 51.7446 41.3211 50.3081 42.1893C49.4545 42.7054 49.0867 42.7386 48.5199 42.3511C48.2942 42.1968 47.968 42.0132 47.795 41.9429C47.2122 41.7062 46.9128 40.504 47.2293 39.67C47.7384 38.3279 49.4273 37.8572 50.5809 38.7361ZM57.0387 38.6255C58.4271 39.661 58.3521 41.2968 56.8755 42.1893C56.0218 42.7054 55.6541 42.7386 55.0872 42.3511C54.8615 42.1968 54.5353 42.0132 54.3624 41.9429C53.7795 41.7062 53.4801 40.504 53.7966 39.67C54.2715 38.4178 56.0092 37.8579 57.0387 38.6255ZM14.5196 40.6311C16.4844 42.5147 18.7404 43.9145 21.1903 44.77L21.9086 45.0208L21.9105 45.7746C21.9114 46.1891 21.9495 46.6666 21.9948 46.8358C22.1085 47.2591 21.6669 47.246 20.3776 46.7878C17.1183 45.6296 13.6852 43.2684 11.5815 40.7381C10.3509 39.2581 10.3315 39.3536 11.863 39.3536H13.187L14.5196 40.6311ZM25.2606 40.5049V41.6558L24.7604 41.8206C24.4854 41.9112 23.947 42.2223 23.5641 42.5117L22.8678 43.0381L21.875 42.682C19.9939 42.007 17.5596 40.5992 16.7078 39.6935L16.3881 39.3536L20.8244 39.3538L25.2606 39.354V40.5049ZM27.3719 43.995C29.2974 45.0243 28.4893 48.027 26.2868 48.027C24.2479 48.027 23.3486 45.6229 24.8726 44.2465C25.4445 43.7299 26.6492 43.6087 27.3719 43.995ZM33.5664 43.8689C34.1703 44.0364 34.8682 44.8195 34.9896 45.4656C35.3875 47.5837 32.8462 48.944 31.3267 47.4263C29.6863 45.788 31.2919 43.2379 33.5664 43.8689ZM40.1337 43.8689C40.7376 44.0364 41.4355 44.8195 41.5569 45.4656C41.9548 47.5837 39.4135 48.944 37.894 47.4263C36.2537 45.788 37.8592 43.2379 40.1337 43.8689ZM46.701 43.8689C47.3049 44.0364 48.0029 44.8195 48.1242 45.4656C48.5221 47.5837 45.9808 48.944 44.4613 47.4263C42.821 45.788 44.4265 43.2379 46.701 43.8689ZM53.2683 43.8689C53.8723 44.0364 54.5702 44.8195 54.6915 45.4656C55.0894 47.5837 52.5481 48.944 51.0286 47.4263C49.3883 45.788 50.9939 43.2379 53.2683 43.8689ZM59.999 43.9173C60.9678 44.3215 61.5258 45.6054 61.1832 46.6421C60.6876 48.1418 58.5571 48.551 57.5009 47.3492C55.9742 45.6127 57.8586 43.0239 59.999 43.9173ZM23.7556 49.4755C23.9814 49.6298 24.3076 49.8134 24.4805 49.8837C24.6534 49.9539 24.8844 50.2251 24.9936 50.4862C25.3769 51.4025 25.4276 51.3797 23.0031 51.3797C20.5896 51.3797 20.6293 51.3968 21.0004 50.5212C21.4766 49.3973 22.8685 48.8691 23.7556 49.4755ZM30.323 49.4755C30.5487 49.6298 30.8749 49.8134 31.0478 49.8837C31.2208 49.9539 31.4517 50.2251 31.5609 50.4862C31.9443 51.4025 31.9949 51.3797 29.5704 51.3797C27.1534 51.3797 27.198 51.3991 27.5701 50.5095C27.6988 50.202 27.9935 49.9225 28.4937 49.6332C29.3626 49.131 29.7677 49.096 30.323 49.4755ZM36.8903 49.4755C37.116 49.6298 37.4422 49.8134 37.6151 49.8837C37.7881 49.9539 38.019 50.2251 38.1282 50.4862C38.5116 51.4025 38.5622 51.3797 36.1378 51.3797C33.7207 51.3797 33.7653 51.3991 34.1375 50.5095C34.2661 50.202 34.5608 49.9225 35.061 49.6332C35.9299 49.131 36.3351 49.096 36.8903 49.4755ZM43.4576 49.4755C43.6833 49.6298 44.0095 49.8134 44.1825 49.8837C44.3554 49.9539 44.5863 50.2251 44.6955 50.4862C45.0789 51.4025 45.1295 51.3797 42.7051 51.3797C40.288 51.3797 40.3326 51.3991 40.7048 50.5095C40.8334 50.202 41.1281 49.9225 41.6283 49.6332C42.4973 49.131 42.9024 49.096 43.4576 49.4755ZM50.0249 49.4755C50.2507 49.6298 50.5768 49.8134 50.7498 49.8837C50.9227 49.9539 51.1537 50.2251 51.2629 50.4862C51.6462 51.4025 51.6968 51.3797 49.2724 51.3797C46.8554 51.3797 46.9 51.3991 47.2721 50.5095C47.4007 50.202 47.6954 49.9225 48.1956 49.6332C49.0646 49.131 49.4697 49.096 50.0249 49.4755ZM56.5922 49.4755C56.818 49.6298 57.1442 49.8134 57.3171 49.8837C57.49 49.9539 57.721 50.2251 57.8302 50.4862C58.2135 51.4025 58.2642 51.3797 55.8397 51.3797C53.4227 51.3797 53.4673 51.3991 53.8394 50.5095C53.968 50.202 54.2628 49.9225 54.763 49.6332C55.6319 49.131 56.037 49.096 56.5922 49.4755ZM63.6113 49.5624C64.1131 49.9364 64.4426 50.4221 64.5432 50.9356L64.6304 51.3797H62.4242C60.5337 51.3797 60.2179 51.3498 60.2179 51.1703C60.2179 49.7824 62.4734 48.7137 63.6113 49.5624ZM66.7853 56.2995V59.0327H42.7051H18.6249V56.2995V53.5663H42.7051H66.7853V56.2995ZM20.0554 54.995C19.8436 55.2065 19.7195 55.4866 19.7195 55.7528C19.7195 56.019 19.8436 56.2992 20.0554 56.5106L20.3911 56.8461H25.7395H31.0879L31.4237 56.5106C31.6355 56.2992 31.7596 56.019 31.7596 55.7528C31.7596 55.4866 31.6355 55.2065 31.4237 54.995L31.0879 54.6595H25.7395H20.3911L20.0554 54.995ZM33.19 54.995C32.9782 55.2065 32.8541 55.4866 32.8541 55.7528C32.8541 56.6173 33.3123 56.8461 35.0432 56.8461C36.7741 56.8461 37.2323 56.6173 37.2323 55.7528C37.2323 54.8883 36.7741 54.6595 35.0432 54.6595C33.6145 54.6595 33.5062 54.6792 33.19 54.995ZM66.7853 64.3351C66.7853 66.5763 66.7392 67.4969 66.6211 67.6149C66.3823 67.8534 19.0278 67.8534 18.7891 67.6149C18.671 67.4969 18.6249 66.5763 18.6249 64.3351V61.2192H42.7051H66.7853V64.3351Z" fill="#EE4C1F"/>
</svg>
