<svg width="33" height="32" viewBox="0 0 33 32" fill="none" xmlns="http://www.w3.org/2000/svg">
<g clip-path="url(#clip0_0_430)">
<path d="M23.9667 7.46665H26.1H23.9667ZM10.1 1.06665H22.9C25.1632 1.06665 27.3337 1.9657 28.934 3.56601C30.5343 5.16632 31.4333 7.3368 31.4333 9.59998V22.4C31.4333 24.6632 30.5343 26.8337 28.934 28.434C27.3337 30.0343 25.1632 30.9333 22.9 30.9333H10.1C7.83682 30.9333 5.66633 30.0343 4.06602 28.434C2.46571 26.8337 1.56667 24.6632 1.56667 22.4V9.59998C1.56667 7.3368 2.46571 5.16632 4.06602 3.56601C5.66633 1.9657 7.83682 1.06665 10.1 1.06665V1.06665ZM16.5 22.4C14.8026 22.4 13.1747 21.7257 11.9745 20.5255C10.7743 19.3252 10.1 17.6974 10.1 16C10.1 14.3026 10.7743 12.6747 11.9745 11.4745C13.1747 10.2743 14.8026 9.59998 16.5 9.59998C18.1974 9.59998 19.8252 10.2743 21.0255 11.4745C22.2257 12.6747 22.9 14.3026 22.9 16C22.9 17.6974 22.2257 19.3252 21.0255 20.5255C19.8252 21.7257 18.1974 22.4 16.5 22.4Z" stroke="#EE4C1F" stroke-width="2"/>
</g>
<defs>
<clipPath id="clip0_0_430">
<rect width="32" height="32" fill="white" transform="translate(0.5)"/>
</clipPath>
</defs>
</svg>
